<?xml version="1.0" encoding="utf-8"?>
<!-- Generator: Adobe Illustrator 25.0.1, SVG Export Plug-In . SVG Version: 6.00 Build 0)  -->
<svg version="1.0" id="Camada_1" xmlns="http://www.w3.org/2000/svg" xmlns:xlink="http://www.w3.org/1999/xlink" x="0px" y="0px"
	 viewBox="0 0 333.7 333.7" style="enable-background:new 0 0 333.7 333.7;" xml:space="preserve">
<style type="text/css">
	.st0{fill:#7E1210;}
	.st1{clip-path:url(#SVGID_2_);fill:#432918;stroke:#000000;stroke-width:2.8765;stroke-miterlimit:10;}
	.st2{clip-path:url(#SVGID_2_);fill:#FFFFFF;stroke:#000000;stroke-width:1.4304;stroke-linecap:round;stroke-miterlimit:10;}
	.st3{fill:#E3C7AB;stroke:#000000;stroke-width:1.5281;stroke-linecap:round;stroke-miterlimit:10;}
	.st4{clip-path:url(#SVGID_4_);fill:none;stroke:#E30613;stroke-width:1.3316;stroke-miterlimit:10;}
	.st5{clip-path:url(#SVGID_4_);fill:none;stroke:#E30613;stroke-width:1.3858;stroke-miterlimit:10;}
	.st6{clip-path:url(#SVGID_4_);fill:none;stroke:#E30613;stroke-width:1.2386;stroke-miterlimit:10;}
	.st7{clip-path:url(#SVGID_4_);fill:none;stroke:#E30613;stroke-width:1.532;stroke-miterlimit:10;}
	.st8{display:none;}
	.st9{display:inline;fill:#13110C;}
	.st10{display:inline;}
	.st11{fill:none;stroke:#000000;stroke-width:1.5281;stroke-miterlimit:10;}
	.st12{display:inline;fill:none;stroke:#000000;stroke-width:1.5281;stroke-miterlimit:10;}
	.st13{fill:none;stroke:#000000;stroke-width:1.2098;stroke-miterlimit:10;}
	.st14{fill:none;stroke:#13110C;stroke-width:1.2098;stroke-miterlimit:10;}
	.st15{fill:#13110C;}
	.st16{fill:none;stroke:#13110C;stroke-width:1.0769;stroke-miterlimit:10;}
	.st17{opacity:0.3;}
	
		.st18{fill:none;stroke:#000000;stroke-width:0.25;stroke-linecap:round;stroke-linejoin:round;stroke-dasharray:13.7005,6.8502,13.7005,6.8502;}
	
		.st19{fill:none;stroke:#000000;stroke-width:0.25;stroke-linecap:round;stroke-linejoin:round;stroke-dasharray:13.7015,6.8507,13.7015,6.8507;}
	.st20{fill:#BE1622;}
	.st21{fill:#432918;stroke:#000000;stroke-width:2.8237;stroke-linecap:round;stroke-linejoin:round;stroke-miterlimit:10;}
	.st22{fill:#E3C7AB;stroke:#000000;stroke-width:1.4422;stroke-linecap:round;stroke-miterlimit:10;}
	.st23{fill:#E3C7AB;stroke:#000000;stroke-width:1.4304;stroke-linecap:round;stroke-miterlimit:10;}
	.st24{fill:#DADADA;}
	.st25{fill:#D9D9D9;}
	.st26{fill:#DEDEDE;}
	.st27{fill:#D8D8D8;}
	.st28{fill:#DDDDDD;}
	.st29{fill:#E0E0E0;}
	.st30{fill:#DCDCDC;}
	.st31{fill:#DBDCDC;}
	.st32{fill:#D7D8D7;}
	.st33{fill:#9B9A9A;}
	.st34{fill:#979797;}
	.st35{fill:#959595;}
	.st36{fill:#9D9D9D;}
	.st37{fill:#A1A1A1;}
	.st38{fill:#9F9F9F;}
	.st39{fill:#A2A2A1;}
	.st40{fill:#9A9A9A;}
	.st41{fill:#999999;}
	.st42{fill:#8F8F8F;}
	.st43{fill:#A8A8A7;}
</style>
<ellipse transform="matrix(5.754920e-02 -0.9983 0.9983 5.754920e-02 -8.9027 324.3622)" class="st0" cx="167.3" cy="166.9" rx="155.2" ry="154.5"/>
<g>
	<defs>
		<circle id="SVGID_1_" cx="163.9" cy="160" r="162"/>
	</defs>
	<clipPath id="SVGID_2_">
		<use xlink:href="#SVGID_1_"  style="overflow:visible;"/>
	</clipPath>
	<path class="st1" d="M335.7,214.4c-0.5,0-1,0-1.5-0.1c-11.6,2.9-32.3-3.8-39.9-17.4c-3.2-5.7-6.2-14-9.1-23.8
		c-0.7,5-1.5,9.5-2.6,13.4c-3.6,13-17.7,25.5-34.4,29c-6.6,1.4-30.2,2.7-53.5,7.8c-15,3.3-32.5,3.2-48.5,0.8
		c-23.2-3.4-43.2-3.4-55.7-7.9c-9.7-3.6-28.8-9.8-36.2-24.3c-1,2.3-2,4.4-3,6.2c-6,10.8-20.2,17.3-31.7,18
		c-0.7,11.3,8,27.2,22.3,17.3c21.6-15.1,35,6.5,13.2,11.3c-36.6,8,33.8,27.3,50.4,30.6c15.9,3.1,11.4,7.2,35.8,11.3
		c24.4,4.1,101.7,8.8,135.9-7.5c34.2-16.3,36.3-14.9,24.5-29.6C290,234.5,289.3,219.9,322,237C331.2,241.8,346.4,221.3,335.7,214.4z
		"/>
	<path class="st2" d="M252.8,270.3c-5.6-17.2-21.3-36.6-29.6-46.1c-4.1-3-12.8-6.7-12.8-6.7l-94.6,1.4l-12.2,7
		c0,0-34.4,30.4-32.1,46.7c0.5,0.5,1.3,1,2.4,1.4c0.3,0.1,0.7,0.3,1.1,0.4c6.2,2,17.9,2.7,25,2.9c0.4,0,0.8,0,1.2,0
		c0.4,0,0.9,0,1.3,0c2.1,0,4.9-9.3,4.9-9.3l-1.8,46c0,0,41.6,10,56.8,9.8c15.4-0.1,61.8-11.2,61.8-11.2l-6.1-50.4
		c0,0,3.8,12.5,4.1,12.5c0.5-0.1,1.3-0.1,2.3-0.3c4.7-0.6,14.5-1.7,21.4-2.7c2.3-0.3,4.2-0.6,5.6-0.9
		C253.3,270.6,254,270.4,252.8,270.3z"/>
</g>
<path class="st3" d="M258.3,62.2c-15.1-14.7-45.2-18.4-75.6-15.9c-7.3,0.6-11.7-2.2-14.4-6.7c-3.7,5.6-9.2,9.4-17.4,8.9
	c-41.1-2.4-69.9,5.6-72.9,36.7c-0.7,4.9-1.4,10.1-2.2,15.4c-4.7,31.3-11.6,68.9-20,89.2c7.5,14.4,26.7,20.4,36.5,23.8
	c12.5,4.4,32.5,4.1,55.8,7.2c16,2.2,33.5,2.1,48.5-1.4c23.2-5.3,46.8-7,53.4-8.4c16.6-3.7,30.6-16.4,34-29.4c1-3.9,1.8-8.4,2.4-13.4
	c-7.7-25.2-14.2-60.2-18.5-86.5C267.1,73.8,263.6,67.3,258.3,62.2z"/>
<g>
	<defs>
		<path id="SVGID_3_" d="M103.6,225.2c0,0-34.4,30.4-32.1,46.7c4.7,4.8,34.3,4.9,34.3,4.9l1.1,35c-2.3-0.2,28.5,8.6,47.5,9.4
			c16.9,0.7,66.8-9.4,66.8-9.4l0.4-37.5c0,0,36.7-4.2,31.1-4.7c-7.8-23.9-32.9-47.9-32.9-47.9l-104.1-3.5L103.6,225.2z"/>
	</defs>
	<clipPath id="SVGID_4_">
		<use xlink:href="#SVGID_3_"  style="overflow:visible;"/>
	</clipPath>
	<path class="st4" d="M83.4,249.2c0,0,94.9,16.5,157.2,1.4"/>
	<path class="st5" d="M107,274.7c0,0,44.9,13.7,112.3-1.4"/>
	<path class="st6" d="M106.4,295.2c0,0,75.5,18.9,115.1-1.1"/>
	<path class="st7" d="M62.9,310.6c0,0,27.1,2.3,64.6,3.8c16.7,0.7,35.5,1.2,54.9,1.3c8.6,0.1,17.3,0,26.1-0.1
		c16.4-0.2,31.9-0.8,46.6-1.8c16.8-1.2,32.6-2.9,46.4-5.5"/>
	<path class="st7" d="M208.5,315.6"/>
</g>
<g>
	<g id="tata_olhos_abertos_3_" class="st8">
		<path class="st9" d="M222.1,132.5c0-3.6,3.1-6.6,6.9-6.6c3.8,0,6.9,2.9,6.9,6.6c0,3.6-3.1,6.6-6.9,6.6
			C225.2,139,222.1,136.1,222.1,132.5z"/>
		<g class="st10">
			<path class="st11" d="M100.4,128.4c-1.5,0.3-2.8-0.2-3.5-1.5"/>
			<path class="st11" d="M99,131.8c-1.4,0.5-2.8,0.2-3.7-1"/>
		</g>
		<path class="st12" d="M234.2,129.4c1.5,0.3,2.8-0.2,3.5-1.5"/>
		<path class="st12" d="M235.5,132.8c1.4,0.5,2.8,0.2,3.7-1"/>
		<path class="st9" d="M98.4,132.5c0-3.6,3.1-6.6,6.9-6.6c3.8,0,6.9,2.9,6.9,6.6c0,3.6-3.1,6.6-6.9,6.6
			C101.5,139,98.4,136.1,98.4,132.5z"/>
	</g>
	<g id="tata_olhos_fechados_3_">
		<path class="st11" d="M98.3,131.6c1.6-4.9,11.8-5.8,22.7-2.1"/>
		<g>
			<path class="st11" d="M244.2,131.6c-1.6-4.9-11.8-5.8-22.7-2.1"/>
			<g>
				<path class="st11" d="M240.1,128.8c1-1.2,1.2-2.6,0.5-3.9"/>
				<path class="st11" d="M243.7,129.4c1.2-1,1.5-2.4,1-3.8"/>
			</g>
		</g>
		<g>
			<path class="st13" d="M101.3,128.2c-0.1-1.6,0.5-2.8,1.9-3.4"/>
			<path class="st13" d="M98.4,129.8c-0.9-1.3-0.9-2.7,0-3.9"/>
		</g>
	</g>
	<path class="st14" d="M158.2,178.2c0,0,9.1-7,13-6.2c2.9,0.6,3,10.6,3,10.6"/>
	<path id="sobramc_d_6_" class="st15" d="M239,110.7c3.6,1.3,7.1,3.5,10.9,5.1c5,2.1-1.7-3.2-1.7-3.2c-5.6-4.2-6.3-4.1-7.5-4.8
		c-8.2-2.2-16.8-3.6-19.3-1.7c0,0.2,0.9,2.4,2.7,2.5C228.6,108.9,236.6,109.8,239,110.7z"/>
	<path id="sobramc_d_5_" class="st15" d="M107.2,110.7c-3.6,1.3-7.1,3.5-10.8,5.1c-5,2.1,1.7-3.2,1.7-3.2c5.6-4.2,6.3-4.1,7.5-4.8
		c8.2-2.2,16.8-3.6,19.3-1.7c0,0.2-0.9,2.4-2.7,2.5C117.6,108.9,109.7,109.8,107.2,110.7z"/>
	<path class="st16" d="M150.7,196.5c2.8,7.4,20.2,9.4,26.4,3.2"/>
	<g>
		<g class="st17">
			<path class="st18" d="M254.5,175c0,7.1-6,12.8-13.4,12.8c-7.4,0-13.4-5.7-13.4-12.8c0-7.1,6-12.8,13.4-12.8
				C248.6,162.2,254.5,167.9,254.5,175z"/>
		</g>
		<g class="st17">
			<ellipse class="st19" cx="86.3" cy="171.3" rx="13.4" ry="12.8"/>
		</g>
	</g>
</g>
<g>
	<path class="st20" d="M167,333.7c-3.2,0-6.5-0.1-9.7-0.3C65.4,328.2-5,249.1,0.3,157.3c2.6-44.5,22.3-85.3,55.6-115
		C89.1,12.6,132-2.3,176.5,0.3c91.9,5.3,162.3,84.3,157,176.2C328.3,265.1,254.6,333.7,167,333.7z M166.7,12.9
		c-37.8,0-73.8,13.7-102.2,39c-30.7,27.4-48.9,65-51.3,106.1C8.2,242.8,73.2,315.7,158,320.6c3,0.2,6,0.3,9,0.3
		c80.9,0,148.9-63.4,153.6-145.1C325.5,91,260.5,18,175.7,13.1C172.7,13,169.7,12.9,166.7,12.9z"/>
</g>
<g>
	<path class="st21" d="M319.7,190.8c-6.4-8-17-24.7-16.7-40.1c0.3-11.9-1-23.8-4.5-35.1c-12.6-41-31-77.2-45.6-83.3
		C211.2,14.7,276.7,49,277.6,64c1.4,22.7,5,75.5,0.6,108c0,0,0,0,0,0c2.8,9.8,5.9,18.1,9.1,23.8c7.6,13.6,28.3,20.4,39.9,17.4
		C336,211.1,331.4,205.6,319.7,190.8z"/>
	<path class="st21" d="M284.6,66.4c-0.9-15-30.1-41.9-65.6-47.4c-17.2-2.6-29.4-5.3-51.8-4.9c-1.7,7.1-3.5,21.5,1.4,30.1
		c2.6,4.5,7,7.4,14.3,6.8c30.4-2.1,60.5,2,75.4,16.8c5.2,5.2,8.6,11.7,9.5,19.8c4,26.3,10,61.5,17.4,86.7c0,0,0,0,0,0
		c14.7,29.1,9.4-0.7,8.1-4.3C282.5,140,285.9,86.7,284.6,66.4z"/>
	<path class="st21" d="M21.1,192.5c6.4-8,17-24.7,16.7-40.1c-0.3-11.9,1-23.8,4.5-35.1c12.6-41,31-77.2,45.6-83.3
		c41.7-17.5-23.8,16.8-24.7,31.8c-1.4,22.7-5,75.5-0.6,108c0,0,0,0,0,0c-2.8,9.8-5.9,18.1-9.1,23.8c-7.6,13.6-28.3,20.4-39.9,17.4
		C4.7,212.8,9.3,207.3,21.1,192.5z"/>
	<path class="st21" d="M60.2,67.1c0.9-15,30.1-41.9,65.6-47.4c17.2-2.6,29.4-5.3,51.8-4.9c1.7,7.1,3.5,21.5-1.4,30.1
		c-2.6,4.5-7,7.4-14.3,6.8c-30.4-2.1-60.5,2-75.4,16.8c-5.2,5.2-8.6,11.7-9.5,19.8c-4,26.3-10,61.5-17.4,86.7c0,0,0,0,0,0
		c-14.7,29.1-9.4-0.7-8.1-4.3C62.3,140.7,58.9,87.4,60.2,67.1z"/>
	<path class="st20" d="M299.1,119.2l-0.9-12l-29.1,0.6c-1.6-5.5-5-9.1-9.1-9.1h-68.2c-3.5,0-6.4,2.6-8.2,6.7l-20.7,0.1
		c-1.6-5.8-5-9.6-9.3-9.6H85.4c-4.5,0-8.2,4.4-9.6,11.1l-25.6-0.1l-2.7,10l27.7,13v11.9c0,10,4.3,17.3,10.2,17.3h68.2
		c5.9,0,10.2-7.3,10.2-17.3v-28.4c4.7-0.9,12.9-2.1,17.9-0.8c-0.1,1.1-0.2,2.3-0.2,3.5v28.6c0,10,4.3,17.3,10.2,17.3H260
		c5.9,0,10.2-7.3,10.2-17.3v-14.5L299.1,119.2z M156.8,141.7c0,6.7-2.5,10.1-3.2,10.3l-68.2,0c-0.8-0.2-3.3-3.7-3.3-10.3v-28.6
		c0-0.9,0.1-1.8,0.2-2.7c0.6-4.9,2.4-7.4,3.1-7.6l68.2,0c0.8,0.2,3.3,3.7,3.3,10.3V141.7z M263.2,144.5c0,6.7-2.5,10.1-3.2,10.3
		l-68.2,0c-0.8-0.2-3.3-3.7-3.3-10.3v-28.6c0-6.7,2.5-10.1,3.2-10.3l68.2,0c0.8,0.2,3.3,3.7,3.3,10.3V144.5z"/>
</g>
<path class="st22" d="M75,274.4c-0.4-0.1-0.8-0.3-1.1-0.4c-4,11.2-10.2,30.7-5.3,33.1c3.2,1.7,2.7-2.6,3.2-3.6
	c0.1,1.2,3.1,6.9,4.8,2.9c0.2,1.4,4.4,9,5.4,1.9c0.8,1,3.9,8.3,6.7,3.2c2.8-5.1-2-17.8,2.1-16.6c4.1,1.2,6.3,6.5,10.7,6.7
	c4.4,0.2,1.7-7.4,0.9-9.3c-0.8-1.9-1.5-3.2-2.2-5.2c-0.4-1.2-0.3-3.8-0.1-5.1c0.2-1.1,0.6-2.7,1.2-4.5c-0.4,0-0.8,0-1.2,0
	C92.9,277.1,81.1,276.5,75,274.4z"/>
<path class="st23" d="M251.4,271c-1.3,0.3-3.3,0.6-5.6,0.9c-6.9,1-16.6,2.2-21.4,2.7c-0.4,0-0.7,0.1-1.1,0.1c-0.5,0.1-1,0.1-1.3,0.1
	c1.1,3.2,2.9,8.5,3.5,10.7c0.3,1.2,0.8,3.7,0.5,5c-0.4,2-0.9,3.4-1.5,5.4c-0.6,2-2.2,9.7,2.1,9c4.3-0.8,5.8-6.2,9.7-7.9
	c3.9-1.7,0.8,11.3,4.2,16c3.4,4.7,5.6-2.8,6.3-3.9c1.9,6.8,5.1-1.2,5.1-2.5c2.2,3.7,4.4-2.3,4.4-3.5c0.6,0.9,0.6,5.2,3.6,3.1
	C265.1,302.7,255.6,280.1,251.4,271z"/>
<g>
	<path class="st24" d="M1235.7,227.6c0,24,0,48,0,72c-1.5,2.1-3.5,1.5-5.3,1.5c-41,0-82-0.7-123,0.2c-54.2,1.2-108.3-0.1-162.5,1
		c-33.4,0.7-66.7,0-100.1,0.9c-62.5,1.8-124.9,0.3-187.4,1c-5,0.1-10.1-0.6-15.1,0.7c-1.2,0.3-2.5,0-3.5-1.3c0-24.3,0-48.6,0-73
		c1.5-2,3.5-1.5,5.3-1.5c16,0,31.9,0,47.9,0c0.7,0,1.4,0,2.1,0c3.5,0,7,0,10.6,0c33.3,0,66.6,0,100,0c18.1,0,36.2,0.2,54.3-0.2
		c10-0.2,20,0.9,30-0.6c5.3-0.8,10.8-0.3,16.3-0.3c32.7,0,65.4-0.2,98.1,0.1c10.8,0.1,21.6-1.2,32.4-1.2c39.2,0.2,78.5,0.2,117.7,0
		c10.2-0.1,20.3-1.1,30.5-0.9c15.6,0.2,31.3,0,46.9,0C1232.5,226.1,1234.4,225.6,1235.7,227.6z"/>
	<path class="st25" d="M638.9,376.5c0-23.7,0-47.3,0-71c3.4-2.1,7.1-1.4,10.6-1.4c56.8-0.3,113.6,0.5,170.4-0.4
		c34.3-0.6,68.6,0.2,102.8-0.9c46.1-1.4,92.2,0,138.2-1c11.4-0.2,22.8-0.2,34.2-0.6c20.4-0.8,40.7-0.2,61.1-0.2
		c24.9,0,49.7,0,74.6,0c1.7,0,3.5-0.5,4.9,1.5c0,23.7,0,47.3,0,71c-1.8,2.2-4,1.5-6.1,1.5c-67.1,0.1-134.2-0.4-201.4,0.2
		c-37.4,0.4-74.7,0.1-112.1,1c-33.8,0.8-67.7,0.4-101.5,0.9c-6.5,0.1-13.1,0.7-19.6,0.7c-12.8,0-25.5,0.2-38.3,0.2
		c-19.3,0-38.5-0.1-57.8,0c-13.9,0.1-27.7,0-41.6,0c-4.9,0-9.8,1.8-14.8,0.2C641.3,377.9,639.9,377.9,638.9,376.5z"/>
	<path class="st26" d="M638.9,79.7c0-23.3,0-46.6,0-70c1.1-1.7,2.7-1.5,4.2-1.5c12.4,0.1,24.8-0.1,37.2-0.2
		c6.8-0.1,13.6-0.2,20.4-0.3c11-0.2,22-0.3,33,0c10,0.3,20.1-0.7,30.1-0.4c13.7,0.5,27.5,0.1,41.2,0.1c19.9-0.1,39.7-0.1,59.6-0.2
		c42.7-0.1,85.5,0,128.2,0c19,0,38,0,57,0c6-0.4,12,0.8,18-0.7c0.7-0.2,1.4-0.3,2.1-0.3c25.5,2.1,51.1,0.5,76.6,0.9
		c7,0.1,14.1,0.7,21-0.2c9.8-1.2,19.5-0.4,29.3-0.6c11.5-0.2,23-0.2,34.6-0.1c1.6,0,3.3-0.4,4.5,1.5c0,23.3,0,46.6,0,70
		c-1,1.5-2.4,1.5-3.8,1.5c-10.4,0.4-20.9,0.3-31.3,0.5c-37,0.8-74,0.3-111,0.5c-7.4,0-14.9,0.1-22.3-0.1c-3.9-0.1-7.6,1.5-11.5,1
		c-3-0.9-6-1.6-9-0.2c-0.7,0.1-1.4,0.2-2.1,0.2c-102.5,0-205,0-307.5,0.1c-12.4,0-24.8,0.1-37.2,0.2c-16.2,0.2-32.5,0.5-48.7,0.2
		c-1.9,0-3.7,0.2-5.6,0.4C643.3,82.4,640.8,82.6,638.9,79.7z"/>
	<path class="st27" d="M1235.7,375.5c0,23.7,0,47.3,0,71c-1.4,2-3.2,1.5-4.9,1.5c-28.2,0-56.4,0-84.6,0c-16.6,0-33.3-0.5-49.9,0.1
		c-49.6,1.7-99.2,0.4-148.8,1c-8.5,0.1-17.1-0.5-25.6,0.1c-12.6,0.9-25.3,0.5-37.9,0.8c-2.4,0-4.7,0-7.1,0c-4.3,0-8.5,0-12.8,0
		c-15.1-0.1-30.3-0.5-45.4,0.2c-39,1.7-77.9,0-116.8,1c-19.3,0.5-38.7,0.8-58,0.8c-1.7,0-3.5,0.5-4.9-1.5c0-23.3,0-46.6,0-70
		c1.3-1.9,3.1-2.7,4.8-2.2c3.6,1,7.1,0,10.7-0.2c8.7-0.5,17.4,0.1,26,0c5.6,0,11.2-0.1,16.7-0.1c27.1-0.1,54.2,0.4,81.3-0.1
		c36.6-0.7,73.2-0.8,109.8-1c5.6,0,11.3-0.5,17-0.7c15.7-0.5,31.5-0.1,47.2-0.2c13.3-0.1,26.6,0,39.9-0.3
		c64.6-1.3,129.2-0.3,193.8-0.7c10.3-0.1,20.5-0.3,30.8-0.2c5.1,0.1,10.2-0.7,15.2-0.2C1233.4,374.7,1234.7,374.3,1235.7,375.5z"/>
	<path class="st28" d="M638.9,153.6c0-23.3,0-46.6,0-70c4-2.9,8.5-1.8,12.7-1.9c12-0.4,24-0.5,36-0.4c9.8,0.1,19.6-0.7,29.4-0.1
		c5.1,0.3,10.2-0.1,15.2-0.1c105.1,0,210.3,0,315.4,0c38.7-1.7,77.5-0.8,116.2-1c18.2-0.1,36.4-0.6,54.6-0.5c4.3,0,8.7-0.8,13-0.5
		c1.5,0.1,3-0.2,4.2,1.5c0,23.3,0,46.6,0,70c-1.3,1.8-3.1,2.1-4.8,1.9c-9.3-0.9-18.6,0.6-27.9,0.6c-21.5,0-43-0.3-64.5,0.1
		c-12.8,0.2-25.5,0.2-38.3,0.3c-12.3,0-24.6-0.3-36.8-0.1c-17.1,0.2-34.2,0.7-51.3,0.7c-41.9,0-83.8,0-125.7,0
		c-11.4,0-22.7,0.9-34,0.9c-69.4,0.2-138.8,0.1-208.2,0.1C642.4,155.1,640.4,155.8,638.9,153.6z"/>
	<path class="st29" d="M638.9,6.7c0-13.7,0-27.3,0-41c197.8,0,395.7,0,593.5-0.1c2.8,0,3.5,0.8,3.4,4.6c-0.2,11.5-0.1,23-0.1,34.5
		c-1.4,2-3.2,1.5-4.9,1.5c-17.3,0-34.5,0.1-51.8,0c-52.8,0-105.6,0-158.4,0c-1.7,0-3.5-0.2-5.2,0.6c-5,1-10.1,0.4-15.1,0.4
		c-4.6-0.4-9.2,0.1-13.7,0.1c-33.4,0-66.8,0-100.2,0c-22.8,0-45.7-0.1-68.5,0c-16.1,0.1-32.2,0.4-48.3,0.3
		c-16.5-0.1-33,0.5-49.5,0.2c-9.5-0.2-19,0.6-28.4,0.3c-10.8-0.3-21.5,0.3-32.3,0c-5.4-0.1-10.9,0.2-16.4,0.2
		C641.6,8.2,640,8.4,638.9,6.7z"/>
	<path class="st24" d="M1235.7,154.6c0,1,0,2,0,3c-1.6,3.5-3.8,4.6-6.7,3.1c-1.2-0.6-2.4-0.6-3.6-1c-1.4-0.5-2.1-0.5-2.6,1.9
		c-1.1,5-3.4,5.4-6.1,1.4c-0.4-0.6-0.7-1.5-1.4-1.2c-0.7,0.3-0.8,1.2-0.9,2c-0.3,2,0.3,4.8-1.9,5.2c-2.2,0.4-3.3-1.8-4.2-4.1
		c-1.5-3.7-3.6-5.8-7-4.3c-1.6,0.7-3.2,0-5.1-0.5c1.2,1.6,3.1,2.4,2.2,4.9c-0.5,1.6-1.7,1.6-2.9,1.6c-4.4-0.2-4.4-0.2-3.1,6.3
		c0.4-3.5,1.8-5.4,4.3-5.4c1.4,0,2.1-0.7,2.7-2.6c1-2.9,3.2-3.3,4.8-1c3,4,3.5,9.5,3.9,14.7c0.3,3.9-6.4,8.5-9,6.3
		c-3.1-2.7-5.9,1.3-8.9,0.2c-0.3-0.1-0.7,0.9-0.5,1.6c0.2,0.8,0.8,1,1.2,0.7c3-2.5,5.5,0,8.1,1.4c3.9,2.1,8.1,1.7,12.1,2.5
		c1.7,0.3,3.5,0.4,5,1.5c1.3,0.9,2.2,2.4,1.9,4.4c-0.3,1.9-1.5,2.5-2.8,2.8c-2.1,0.4-4-0.1-5.6-2c-1.1-1.3-2.4-2.4-3.6-0.8
		c-1.5,1.9,0,3.3,0.8,4.6c1.5,2.6,1.4,5-1.1,5.7c-2.3,0.7-4.1,2.1-6.1,3.4c-1.2,0.9-2.7,1.1-3.9-0.3c-1.2-1.4-0.9-3-0.1-4.5
		c0.9-1.8-0.1-2.7-1-3.8c1,5.8-2.4,11.3-8.6,14.5c0.7-0.5,1.9-1.2,3.1-1.3c1.7-0.1,2.1-2,3.1-3.2c0.5-0.6,1.1-0.4,1.8-0.2
		c5.6,2,9.8-1.2,13.4-6.6c1-1.5,1.7-3.3,3.6-2.7c1.6,0.5,2.1,2.2,2.1,4.2c0,0.7,0,1.4,0.3,1.9c0.9,1.7,2.3,2.7,3.7,3.2
		c3.2,1.1,5.1,6.8,9.3,4.3c1.4-0.9,3.1-1.3,4.6-1.9c1.6-0.7,3.2-1,4.5,0.8c0,3,0,6,0,9c-1.3,1.9-2.9,1.5-4.5,1.5
		c-11.2,0-22.4,0-33.5,0c-9.4,0-18.8-0.2-28.2,0.2c-41,1.7-81.9,0.2-122.9,0.9c-7.8,0.1-15.6-1-23.3,0.1
		c-11.5,1.6-23.1,0.5-34.6,0.7c-2-0.9-1.7-1.9-0.5-3.8c2.6-3.9,2.6-9,0-11.3c-1.3-1.1-2.7-2.7-4.4-1.1c-1.7,1.5-2.8,3.4-2.2,6.3
		c-0.1-4.1,1.2-6.5,3.8-6.5c2.6,0,4.7,3.2,4.7,6.9c0,3.9-2.4,5.9-3.8,8.7c-0.9,0.7-1.7,0.7-2.7,0.3c-3.2-2.1-6-4.7-6.4-10.1
		c-0.7-7.5,3-12.5,8.7-11.5c1.4,0.3,3,0,3.6,0.8c-2.9-1.2-6.3-2.5-9.8,1.1c-2.8,2.9-2.9,6.7-2.6,10.8c0.2,2.5,1.4,4.3,2.6,5.8
		c1.2,1.5,1.1,2.4-0.3,3.3c-7.2,0.7-14.4,0.2-21.6,0.2c-20.3,0.1-40.5-0.1-60.8,0.1c-7.5,0.1-15,1.1-22.6,0.9
		c-11.5-0.3-23.1,0.3-34.6,0c-0.9,0-1.7-0.3-2.5-0.6c-0.6,0-1-2.6-1.8-0.2c-2,1.4-4.2,0.8-6.2,0.8c-39-0.1-78-0.1-117,0.1
		c-8,0-16.1-0.9-24.1,0.3c-15.4,0.1-30.8,0.2-46.2,0.1c-1.1,0-2.2,0.1-3.2-1c0-0.3,0-0.7,0-1c2.5-5.2,7-6,10.6-8.7
		c1.3-1,2.7,0.2,3.8,1.3c2.1,2,4,1.8,6.1-0.3c3.5-3.4,5.1-2.6,6.4,2.8c0.3,1.2,0.6,2.3,1.6,2.3c1.7-0.1,3-1.4,4.1-3.2
		c0.8-1.3-0.2-2.1-0.8-2.9c-0.2-0.2-0.4-0.4-0.6-0.7c-1.4-1.7-2.1-3.6-0.5-5.5c1.4-1.7,2.8-0.8,3.9,0.9c2.2,3.3,4.7,5.7,8.1,6.5
		c3.5,0.8,6.9,1.2,10.2-0.6c2.2-1.2,4.1-1.3,5.8,1.2c0.9,1.2,2,2.3,3.3,2.1c5.5-0.6,11.2,0.9,16.6-2.6c-3.7-2.6-7.4-4.8-11.5-5.9
		c-3.5-1-4.3-2.6-3.9-7.4c0.1-1.2,0.3-2.3,0.4-3.5c0.2-2.4,0.6-4.7,2.5-5.7c2.1-1,3.9-0.3,5.4,1.9c0.7,1,1.3,2.2,2.5,1.8
		c1.4-0.4,1-2.1,1-3.3c0-2.5,0.5-4.7,2.5-5.5c1.6-0.6,3.1-0.2,4,1.6c1.2,2.5,1.8,5.2,0.7,8c-0.5,1.4-1.5,2.2-2.3,3.2
		c-2.6,2.9-3.1,5.4-1.6,7.4c1.6,2.1,5.5,1.9,7.2-0.6c1.2-1.9,2.2-4,3.4-5.9c1.1-1.7,1.5-4.5,3.9-2.2c2.6,2.5,3.5,5.4,2.3,8.4
		c-0.4,0.9-1.5,1.3-1.1,3.4c1.8-2.6,3.9-3.5,6.4-3.4c4.1,0.2,4.4,0.6,2.7,5.7c0.7,1,1.6,0.8,2.4,0.6c3.2-0.9,6.4-2,8.4,3.1
		c0.3,0.8,1.5,1,2.1,0.6c3.6-2.5,7.6-1.3,11.3-1.5c2.6-0.2,4.7-1.6,6.8-3.4c1.9-1.6,4.3-4,5.2,1.7c0.2,1.4,8.2,3.2,9.2,2
		c2.6-3,5.1-3.8,8.1-1.1c1.1,1,2.6,0.8,4,0.3c0.5-1.9-1-2.5-1.3-3.9c-0.4-1.6-0.3-3,0.6-4.1c1.1-1.3,2.4-1.2,3.4,0.2
		c1.4,1.9,2.8,4,3.1,6.7c0.3,2.8,1.6,3.5,3.4,3.5c2.7,0.1,5.4,0.1,8-1.8c2.5-1.8,5.3-1.2,8.1-0.9c4.4,0.4,8.9,1.5,12.9-2.6
		c1.7-1.7,3.8-1.1,5.6,0.3c2.9,2.2,5.8,4,9,0.8c0.4-0.4,1.1-0.7,1.4-0.3c2.3,3.6,5.5,0.1,8.1,1.7c1.6,1,3-1.1,3.9-3
		c0.9-1.7,0.1-3.2-0.7-4.5c-1.9-3-3.3-6.6-6.5-7.8c-1.6-0.6-3.3-2.2-3.3-4.9c0-2.4,1.6-3.2,3.1-3.7c2-0.6,4.2-0.8,5.3,2
		c1,2.4,1.8,4.1,4.2,3.4c1.5-0.4,2.4,0.8,2.2,2.9c-0.6,5.4,2.2,10.2,1.7,15.7c-0.2,1.9,1.5,1.4,2.3,1.3c2.9-0.3,5.4-2.3,8.1-2.9
		c0.2-2.1-1-1.8-1.7-2.2c-2.8-1.7-3.1-3.9-0.8-6.7c0.5-0.7,1.2-1.2,1.8-1.7c2-1.9,4.7-3.5,0.9-7c-1.3-1.2-0.8-3.3-0.2-5.1
		c1.1-2.8,2-5.7,1.8-9c-0.1-1.9,0.7-3.2,2.1-3.5c1.4-0.4,2.6,0.5,2.8,2.4c0.4,3.5,3.1,4.1,4.2,6.7c1.5,3.6,5.4,4.9,5.5,10.1
		c0,1.1,1.8,0.8,2.6,1.4c2.3,1.8,5.8,0.1,7,5.7c0.8,3.9,6.8,3.7,8.9,0.1c1.1-2,3.3-3.2,0.8-7c-2.1-3,1.3-4.1,2.9-5
		c-1.9-2-3.8-4-5.9-5.8c-2-1.8-3.1-0.9-4.3,1.2c-1.1,1.9-1.9,3.9-2.6,6.1c-0.5,1.5-1,3-2.2,4c-0.8,0.6-1.6,1.1-2.5,0.4
		c-0.9-0.8-0.9-2-0.4-3.1c0.9-2.4,1-4.7,0.3-7.2c-0.2-0.6-0.3-1.4,0-2c2-4.3,4.4-8.2,6.3-12.8c0.7-1.8,2.3-0.5,3,1
		c1.6,3.3,4,3.8,6.7,4.4c4.1,0.9,8.3,2.2,10.2,8.5c0.7,2.3,2.1,2.8,3.9,1.1c5.9-5.5,12.5-5.3,19.2-3.2c0.9,0.3,1.2,0.2,2.1-0.7
		c2.3-2.6,4.9-4.5,8.1-3.2c1.8,0.7,2.7-0.5,3.6-2.4c0.9-2.1-0.2-2.5-1.1-3.3c-1.1-0.9-1.1-2.5-1-4c0.1-1.6-0.4-2.8-1.2-4
		c-3.2-4.6-2.8-6.4,1.7-8.9c-2.8,0-5.2,1.7-7.8,2.9c-1.8,0.9-3.9,2.1-4.1-2.8c-0.1-3.6-2-0.2-3-0.8c2.9,2.6,4.7,7.6,9,6.4
		c0.9-0.2,1.5,1,1.7,2.3c0.2,2.3-0.8,3.3-2.4,3.9c0.5,0.5,1.1,0.2,1.6,0.4c2.1,0.7,4.1,1.8,3.6,5.2c-0.5,3.2-2.5,3.9-4.7,3.1
		c-1.6-0.6-3.1-0.5-4.6,0.6c-2.2,1.5-3.3,0.4-3.5-3.2c-0.4-7.7-1.7-9.7-7.4-11c-3.3-0.8-6.3-3.2-9.2-4.9c-3.1-1.8-6-2.9-9.2-2.8
		c-6.1,0.2-12.4,0.4-18.1-1.3c-4.5-1.3-8.5-0.1-12.7-0.6c-0.8-0.1-1.6-0.1-2.2,0.3c-4.4,3-9.1,1.5-13.7,2.1
		c-0.6,0.1-1.3,0.1-1.8-0.2c-5.5-3.7-11.2-2-16.9-1.8c-6.9,0.2-13.9-0.2-20.8-1.9c-2.6-0.6-2.9-2-1.3-4.6c10-1.1,20-0.5,30-0.8
		c3.8-0.1,7.7-0.4,11.5-0.4c46.6,0,93.2-0.1,139.9,0c9.3,0,18.6-0.7,28-0.5c14.6,0.2,29.3,0.2,43.9-0.1c11.1-0.2,22.3-0.1,33.4-0.3
		c28-0.4,55.9,0,83.9-0.3c7.7-0.1,15.3-1,23-0.4C1232.4,152.8,1234.3,152.6,1235.7,154.6z"/>
	<path class="st30" d="M835.9,156.6c2.6,3.7,6.3,2.8,9.4,2.8c6.4-0.1,12.8,3.2,19.1-0.6c3.4,3.4,8.2-2.6,11.3,3.3
		c0.5,1,2.1,1,2.8,0.2c1.9-1.9,3.5-1,5.1,0.3c1.1,0.9,1.9,0.2,3-0.3c2.9-1.3,5.6-4.7,9-1.5c0.9,0.8,1.9-0.4,2.6-1.3
		c1.8-2.4,3.4-2.2,5.2,0.1c1.4,1.8,3,2.7,5,0.7c1.7-1.7,2.8,1.4,4.5,1.4c5.6,0,11.1,0.2,16.7,0.3c0.5,0,1.2-0.4,1.4-0.1
		c2,2.9,5,2.8,7.2,4.3c2.5,1.8,4.7,3.4,7.7,3.7c3.2,0.3,6.4,7,5.7,11.2c-0.2,1.3-0.7,2.8,0.3,3.7c1.2,1.1,1.4-0.8,1.9-1.5
		c1.6-2.4,3.4-0.8,4.8-0.1c1.3,0.7,2.2,0.9,3.3-0.4c0.6-0.8,1-1.6,0.6-2.6c-0.7-1.6-1.9-2.1-3.1-2.4c-0.5-0.1-1,0.1-1.5,0.3
		c-1,0.3-2.4,1.4-2.8-0.6c-0.3-2,1-2.8,2.4-2.8c1.2,0,2.5-0.3,2.1-2.4c-0.4-2.3-1.6-1.3-2.6-0.5c-0.1,0.1-0.2,0.2-0.3,0.3
		c-0.9,0.4-9.3-7.2-9.4-8.5c-0.1-1,0.3-1.4,1-1.8c1.9-1.1,4.8-0.9,7.1,0.7c0.3,2-1.8,1.6-1.8,4.3c4.9-2,9.5-5.5,14.8-4.1
		c-0.2,2.9-2,2.8-3.7,3.2c-1.2,0.3-2.7,0.7-2.9,2.5c-0.3,2.1,1.2,3.5,2.4,3.9c2,0.7,2.4,1.3,1.3,4c-0.8,2.1-1,5,2.1,3.8
		c0.6-0.2,1.3-0.3,1.6,0.6c0.3,0.9,0,1.6-0.6,2.1c-1.2,1-1.3,2.8-1.8,4.2c-0.5,1.2-1.1,3-2.1,2.2c-3.3-2.9-6.2,0.6-9.3,0.8
		c-0.7,1.4,1.7,1.8,0.7,3.2c-0.6,0.9-1.9,0.8-2.4,0.1c-3.5-4.9-8.3,0.4-12-3c-2.3,2.7-5.7,2.2-8,4.9c-0.8,0.9-0.9,3.5-2.3,2.6
		c-1.4-0.9-3.1-2.6-3.4-4.3c-1.2-6.8-5.7-6.8-9.1-7.5c-3.2-0.6-5.8-1-7.3-5.3c-0.8-2.3-1.9-1.6-2.2,0.3c-0.5,4.3-2.1,7.3-4.9,9.5
		c-0.5,0.4-0.9,1.5-0.5,2.2c1.9,3.6,1.6,7-1.6,10.5c2.9,0.1,3.7-1.5,4.2-3.4c0.5-1.7,0.9-3.5,1.6-5c1-2.1,2-4.3,3.4-5.8
		c2.5-2.7,2.5,2.5,4.2,2.9c3.4,0.8,4.8,5.9,8.4,6.6c-0.5,0.8-0.6,1.1-0.8,1.2c-1.9,0.5-4.7-1.1-5.4,1.9c-0.6,2.8,3,2,3.8,4.7
		c-1.7,1.6-3.4,3.1-4.4,6.1c-1.2,3.8-5.7,3.5-6.4,2.2c-2-3.9-3.9-2.1-5.8-0.9c-0.7-1.5-0.2-2,0.3-2.5c0.6-0.7,1.8-1,1.3-2.5
		c-0.3-1.1-1.3-0.6-2-0.9c-2.1-0.9-4.1-2.1-6.5-2c-1.7,0.1-2.4-1.5-1.9-3.8c0.6-2.5-0.1-3.9-2-4.1c-1.4-0.1-2-1-2.2-2.7
		c-0.2-1.7-0.9-2.9-2.3-3.6c-1.5-0.7-3.1-1.5-2.3-4.6c0.4-1.4-0.5-2.2-1.5-2c-1.1,0.2-2,0.7-1.4,2.6c1,3.5-0.4,6.4-1.7,9
		c-1.4,2.9-1.5,4.3,1.3,5.3c2.9,1.1,2.6,3.1,0.4,5.1c-1.6,1.5-3.3,2.9-4.9,4.4c-0.7,0.7-1.5,1.5-1.2,2.8c0.3,1.3,1.3,1.8,2.1,1.5
		c2.6-0.9,3,1.1,2.9,3.7c-0.1,3.8-2,1.4-3.2,1.8c-3,0.9-5.6,3.3-8.9,2.7c-2.3-0.4-3.4-0.3-1.5-3.8c1.7-3.2-0.8-6.4-1.2-9.7
		c-0.3-2.4-1.1-4.5,0.6-6.6c-1.7-0.9-2.7,0.1-3.7,0.5c-1.8,0.6-3,0.5-2.7-2.7c0.2-2.2-0.5-3.6-2.2-3.8c-1.8-0.2-3.5-0.1-4.9,1.7
		c-0.6,0.7-0.2,1.6,0.3,2.1c0.8,0.8,1.6,2.1,2.4,2.2c4.5,0.5,5.4,6.3,8,9.7c1.6,2.1,1.3,4.2-0.4,5.9c-1.6,1.6-2.9,5.1-5.5,2.5
		c-1.3-1.3-2.2-0.6-3.3,0.1c-1.9,1.3-3.8,1.6-4.3-2.3c-2.5,3.4-6.5,4.2-9.4,1c-3.1-3.5-5.3-2.4-8.1,0.6c-3,3.3-6.7,0.8-10,0.9
		c-3.5,0.1-6.8-1-10.3,1.7c-2.8,2.2-6.5,1.1-9.9,0.3c-0.8-0.2-2-1.1-1.5-2.3c1.4-3.7-2.1-4.7-2.2-7.7c0-1.4-1.5-1.8-2.4-0.9
		c-1.1,1.1-1,2.6,0,3.8c0.6,0.7,1.8,0.6,1.9,2.1c0.1,1.4,1.2,3.2-1.3,3.2c-2.4-0.1-4.8,1.3-6.9-1.8c-1.2-1.8-2.9-0.7-3.9,1
		c-2.1,3.7-4.4,3.6-7.1,1.3c-2.2-2-4.7-0.8-7-0.2c-0.2-1.9,0.6-1.8,1.1-2.2c0.8-0.6,1.5-1.5,0.7-2.8c-0.6-1-1.3-0.7-1.9,0
		c-0.8,1-2.2,1.4-2.8,2.3c-2.6,4.2-6,2.6-9.2,2.8c-2.2,0.1-4.4-0.9-6.7,1.2c-1.6,1.5-4.6,2.2-5.6-2.5c-0.4-2.1-1.5-3.2-3-1.7
		c-1.1,1.1-2.4,0.9-3.6,0.8c-1.6-0.1-3.8,1.1-4.6-0.7c-1-2.5,2.1-3.1,2.9-6.9c-2.9,3.4-6.8-2.2-8.5,4.8c-0.5,2-2.1,0-3-1.1
		c-0.8-0.9-1.6-2.6-0.3-3.3c5.3-2.8,2.6-5.3,0-7.9c-0.3-0.3-0.4-0.8-0.9-2c0.2,4.9-3.2,5.8-4.3,9.5c-1,3.6-4.2,3.8-7.2,2.8
		c-1.7-0.6-3.2-1.2-3.4-3.8c-0.3-2.7-0.3-5.2,1.9-6.9c2.4-1.7,4.7-3.6,3.3-8.5c-0.7-2.4-1.6-3.2-3.3-2.9c-1.8,0.3-2.1,2.1-2,4.1
		c0.1,2,1.6,4.5-0.8,5.5c-2,0.9-3.9,0.6-4.7-2.9c-0.5-2.2-2.2-1.8-3.5-1.7c-1.5,0.2-2,1.5-2.2,3.4c-0.9,8.8-1,9,5.3,11.3
		c3.6,1.3,6.6,4.7,10.4,5.3c0.5,0.1,1,0.3,1,1.2c0,0.9-0.6,1.4-1.2,1.6c-2.5,0.9-5,2.3-7.5,2.6c-3.9,0.5-8.2,1.7-11.6-0.1
		c-3.9-2.1-6.9-4.3-11.4-1.7c-3.3,1.9-7.3-0.4-10.8-1.5c-1.9-0.6-4-3.3-5.2-6.3c-0.4-1.1-1-2.1-2-1.6c-0.4,0.2-0.8,0.8-1,1.3
		c-0.4,1.4,0.3,2,1.1,2.7c1.5,1.4,4.3,2.3,2.3,5.8c-2.2,3.9-5.9,5-7.9,3c-0.7-0.7-1.7-1-0.8-2.6c0.7-1.2,0.7-2.5-0.3-3.5
		c-1.2-1.1-2.8-0.6-3.4,0.5c-2.9,4.8-5.7,4.5-8.7,0.5c-0.9-1.2-1.9-1-3-0.2c-3.3,2.5-6.7,4.7-10.1,7c0-23.7,0-47.3,0-71
		c1.5-2.1,3.5-1.5,5.3-1.5c49.7,0,99.3,0,149,0c11.4,0,22.8,0,34.2,0C830.3,155.2,833.4,152.9,835.9,156.6z"/>
	<path class="st31" d="M1235.7,449.5c0,15-0.1,30,0.1,44.9c0,3.3-0.4,4.1-3,4.1c-83.5-0.1-167-0.1-250.5-0.1c-43.4,0-86.7,0-130.1,0
		c-3-5.5-2.9-9.8,0.4-12.2c1-0.7,2.7-0.6,2.3-3c-0.3-1.4-1.3-1.3-2.2-1.4c-1.4-0.1-2.7,0.1-3.1,2.5c-0.2,1.5-0.5,2.9-1,4.3
		c-0.6,2-2.2,2.6-3.3,4.1c0.4,2.5,4.6,1.5,3.1,5.7c-4.5,0-9,0-13.4,0c-1-3.4-2-0.9-3,0c-0.5,0-1,0-1.5,0c-2.8-1.4-5-3.3-3.7-8.1
		c0.4-1.4-0.6-2-1-3c-1.4-3.7-0.8-6.1,2.2-8.1c-1.8-1.9-3.6-4-1.9-7.3c1.2-2.3,5.1-2.8,7.2-1c0.5,0.4,0.9,1.2,1.3,1.8
		c0.4,0.6,0.8,0.8,1.2,0.2c0.4-0.7,0.1-1.3-0.4-1.5c-0.8-0.4-1.7-0.7-2.5-1c-2.6-0.9-5.3-5.9-5.1-9.4c0.1-1.7,0.8-2.3,1.9-2.4
		c1.4-0.1,2.7,0.2,4,0.8c1.2,0.5,2,0.8,2.2-1.6c0.2-3.3,2.1-3.8,4.2-3.2c1.5,0.4,2.9,1.2,4.2,2.1c1.6,1.2,3.1,2.8,2.6,5.4
		c-0.5,2.8-2.5,2.9-4.3,2.5c2.2,2.2,3.8,0.2,5.3-1.5c1.3-1.4,0.6-2.9-0.4-4.2c-0.7-0.9-1.4-2.1-0.7-3.5c0.7-1.2,1.8-1.4,2.7-1.1
		c3.7,1.3,7.6,1.8,11.1,4.2c1.8,1.2,3.4,1.8,3.9-1.8c0.3-2.1,0.4-5,2.5-4.6c2.2,0.4,4.9,0.3,6,4c0.4,1.4,0.6,2.9,1,4.3
		c-0.3-3.5,0.1-6.4,3.1-7.2c2.6-0.7,4.5,1.6,5.8,6.7c2.1-5.2,8.4-8.6,12.3-6.1c3.3,2.1,6.2,2.3,9.8,0.9c8.6-3.2,17.4-2.8,26,0.7
		c1.1,0.4,2.2,1.4,3.2,0.5c5.8-4.7,12.1-1.6,18.2-2c2-0.1,3.9,0.2,5.9-0.7c3-1.3,6-1.1,9.2-0.4c4.9,1.1,9.9-0.7,14.8-0.4
		c7.8,0.4,15.6-1,23.4,0c2.6,0.3,5.2,0.2,7.8-0.1c1-0.1,2.3-0.8,2.9,0c3.3,3.8,6.3,1.3,9.5,0c2.2-0.9,4.5-1,6.7-0.4
		c8.8,2.4,17.6,0.9,26.4,0.1c6.4-0.6,12.8-0.1,19-1.1c5.8-0.9,11.4,3.3,17.1,0.2c6.2,3.8,12.4-0.9,18.6,0.3
		c6.8,1.3,13.6-1.7,20.3,0.3c0.8,0.2,1.8-0.1,2.6,0.5c4.7,3.5,8.8,1.5,12.8-2.3c0.9-0.8,1.9-0.6,2.9-0.1c4.5,2.5,9.3,3.1,14.2,2.9
		c1.5-0.1,3-0.3,4.4-1.2c2.4-1.5,4.6-0.6,7.1,0c4.3,1,9,2.3,13.3-0.8c0.5-0.3,0.9-0.7,1.4-0.4c4.4,2.3,8.2,0,12.1-2.3
		c9-0.1,17.9,0,26.8-0.1C1233.1,448,1234.6,447.8,1235.7,449.5z"/>
	<path class="st32" d="M1203.7,449.6c-2.5,2.4-5,4.5-8.4,3.2c-1.3-0.5-3.4-2.6-4.2,1.3c0,0.1-0.2,0.3-0.3,0.2
		c-4.6-1.5-9.5,1.7-14-1.5c-1.3-0.9-2.4-1.6-3.8-0.7c-7.2,4.4-14.2,2.9-21.2-1c-3.8-2.1-1.8,3.4-3.3,4.8c-1.4-2.5-3-3.7-4.7-0.1
		c-1,2.1-2.1,1.3-3.5,0.4c-6-3.8-12.2-4.7-18.6-2.3c-0.9,0.3-1.7,0.5-2.5,0.3c-5.9-1.5-11.7-2-17.4,0.9c-0.9,0.5-2.2,0.8-2.9-0.2
		c-2.2-3.2-4.7-2.2-7.2-1.5c-2.6,0.8-4.9,0.4-7.5-0.7c-3.9-1.7-8,0.3-12.1-0.1c-1.2-0.1-2.5,0.6-3.9,0.1c-4-1.7-7.6,1.8-11.6,1.5
		c-7.8-0.6-15.7,1.8-23.6-0.5c-3.7-1.1-8.1-1.5-11,3.9c-0.8,1.5-1.9,0.7-2.6-1c-1.1-2.8-2.7-3-5-2.6c-3.8,0.7-7.7,1-11.5-0.2
		c-4.1-1.4-7.9,1.1-12,0.7c-7-0.8-14-0.3-21,0.9c-3.2,0.5-6.2-3.2-9.6-0.7c-4.4,3.3-9.5,1.3-14,1c-4.6-0.4-8.2,0.2-12.2,2.8
		c-2.1,1.3-4.5-1.5-6.3-2.6c-3.7-2.2-7.3-0.4-10.9-1c-3.8-0.6-8-1-11.8,1.6c-0.2,0.1-0.6-0.1-0.7,0.1c-3.8,5.3-6.5,0-9.5-1.7
		c-0.7-0.4-1.4-1.3-2.1-0.7c-3.4,3.1-10,1.2-9,11c-1.9-1.3-1.3-3-1.4-4.3c-0.2-2.3-0.8-4.2-2.2-5.6c-1.2-1.2-2.6-1.1-3.8-0.1
		c-1.2,1-1,2.5-0.6,4c0.2,0.6,0.4,1.2,0.5,1.9c0.2,1.3,0.5,2.9-0.6,3.5c-1.1,0.6-1.3-1.1-1.8-2c-0.5-0.9-1.1-2.1-1-3.1
		c0.6-5.9-3.3-4.9-5.4-6c-1.4-0.7-1.5,1.8-1.2,3.1c0.4,2,0.7,3.9-1.1,4.4c-1.5,0.4-3,2.3-4.8-0.8c-1.9-3.2-5.8-1.6-8.6-3.5
		c-1.1-0.7-2.5-1.7-3.8-0.6c-0.3,3.2,4.7,1.8,2.8,6.5c-1.7,4.1-4.9,4.9-7.5,6c-1.2,0.5-1.8-5.2-2.5-8.5c1.8,0.2,2.1,2.2,3,3.2
		c1,1,1.5,0.3,2.3-0.3c1.2-1,0.5-1.9,0-2.8c-1.8-3.2-4.7-3.3-7.2-4.3c-1.3-0.5-2.2,1.3-1.1,3.3c0.6,1.2,0.9,2.5,0,3.6
		c-1.1,1.2-1.8-0.1-2.5-1c-1.8-2.1-4.1-0.4-6.5-2.8c1.7,6.4,2.5,11.9,8,10.7c1-0.2,2.4,0.6,2,2.1c-0.5,1.9-1.6,3.8-2.9,5
		c-0.9,0.8-1.6-0.7-2-2.1c-0.7-2.8-4.6-4.2-6.3-2.4c-0.6,0.6-1,1.5-0.9,2.6c0.1,1.1,0.4,2.5,1.5,2.4c1.9-0.1,3.1,0.9,2.4,3.5
		c-0.8,3.4-2.4,0.1-4,0.5c0.7,2.5-1.4,6.3,2.6,6.8c0.9,0.1,1,1.6,0.2,2.3c-3.7,2.9-1.4,4.8,0.5,6.9c0.4,0.4,0.6,1,0.9,1.5
		c-62.8,0-125.6,0-188.4,0.1c-2.9,0-3.4-1.1-3.4-4.7c0.2-13.5,0.1-26.9,0.1-40.4c1.1-1.7,2.7-1.5,4.2-1.5c13.4,0,26.8,0.5,40.2-0.1
		c40.3-1.8,80.7,0,121-1.1c20.4-0.6,40.9-0.4,61.3-0.8c13.5,0,27.1,0.4,40.6-0.1c50.2-1.8,100.4-0.5,150.6-0.9
		c8.3-0.1,16.5-1.1,24.8-0.9c15.1,0.3,30.2-0.3,45.3-0.2c24,0.2,47.9,0,71.9,0.1C1200.5,448.1,1202.4,447.3,1203.7,449.6z"/>
	<path class="st30" d="M1235.7,215.6c-3.5-0.6-6.4,2.5-9.6,2.8c-2.2,0.2-5,2.6-6.5-2.6c-0.6-2.1-3.7-1.8-5.4-3.5
		c-1.5-1.5-3.5-2.3-2.1-5.6c0.5-1.1-0.1-1.8-0.8-2.3c-1.1-0.8-2.1-0.2-2.5,1.1c-1.8,6-5.9,7.2-9.8,9.1c-2.4,1.1-4.2,1.5-5.5-1
		c-2.8,5.5-7.7,2.2-10.7,5.7c0.4-2.1,1.6-2.3,2.5-2.4c4.6-0.8,6.2-6.1,8.5-10.2c2-3.6-1.7-3.3-2.5-5.3c2.8-2.8,4.4,0.8,6.1,2.2
		c1.8,1.6-0.2,3-1.1,4.1c-0.4,0.5-0.7,1-0.5,1.7c0.2,0.9,0.8,1.4,1.5,1.2c1-0.2,2.3-0.3,2.8-1.2c1.4-2.5,2.9-3.5,5.2-2.7
		c0.7,0.3,1.5-0.4,1.7-1.5c0.2-1.2-0.4-1.8-1.1-2.4c-2-1.7-3.4-4-1.2-6.8c1.9-2.4,4-2.6,5.7,0.8c1.5,3.1,3.8,1.8,5.8,1.8
		c0.6,0,1.2-0.6,1.1-1.6c-0.2-1.6-0.8-2.8-2.1-3.1c-3.2-0.6-6.4-1.4-9.7-1.7c-2.4-0.2-4.6-0.4-6.8-1.7c-2.6-1.5-5.2-4.9-8.2-0.5
		c-0.5,0.8-1.4,0.5-1.9-0.6c-0.7-1.5-0.9-3.1-0.4-4.8c0.4-1.5,1.5-2.2,2.4-1.7c2.3,1.3,4.1,0.8,6-1.3c1.1-1.2,1.9-0.2,2.6,1.4
		c1.2,2.8,2.7,2.1,4.2,0.2c0.2-0.2,0.3-0.6,0.3-0.9c0.5-2.6,4.3-0.7,3.5-3.8c-1.1-4.2-1.1-8.9-3.2-12.7c-0.7-1.4-1.5-2.2-2.7-1.9
		c-1.7,0.4-0.8,1.9-0.8,3.1c-0.1,2.2-1,2.7-2.5,2.5c-4.2-0.6-4.4-0.3-3.8,5.1c0.1,0.6,0.4,1.3-0.1,1.8c-0.6,0.5-1.3,0.3-1.7-0.4
		c-1.8-3-2.8-6.4-1.9-10.2c0.7-2.8,2.3-1.4,3.8-1c1.2,0.3,3,2.3,3.5-0.3c0.4-2.2-1.5-2.5-2.9-2.7c-0.8-0.1-2,0.3-1.9-1.5
		c0.1-1.1,1-1.4,1.8-1.4c3.1,0,6.1,0.7,9.4-0.5c2.2-0.8,4.6,3,5.4,6.5c0.5,2.1,1.5,3.4,2.9,3.1c1.8-0.5,1-2.8,0.7-4.1
		c-0.6-2.7,0.2-3.6,1.9-4.3c1.8-0.8,2.6,0.2,2.7,2.5c0.1,2.1,0.8,3.2,2.4,2.5c1.2-0.6,2.3-1.6,1.7-3.8c-1.4-5.3,0.8-3.6,2.9-2.9
		c3.6,1.2,7.3,3.9,11-0.1C1235.7,177,1235.7,196.3,1235.7,215.6z"/>
	<path class="st33" d="M835.9,156.6c-11.6,0-23.3-0.1-34.9-0.1c-30.5,0-61.1,0-91.6,0.1c-23.5,0-46.9,0-70.4,0.1c0-1,0-2,0-3
		c29.3,0,58.7-0.1,88-0.1c22,0,44-0.1,66-0.1c15,0,30,0.2,45,0c63.1-1.1,126.1-0.3,189.2-1c42.3-0.5,84.7-0.3,127-0.9
		c16.7-0.2,33.3,0,50-0.1c10.6-0.1,21.1-0.5,31.7-0.8c0,1.3,0,2.7,0,4c-25.2-0.8-50.4,0.6-75.6,0.1c-12.2-0.2-24.3,0.3-36.5,0.4
		c-17.2,0.1-34.4,0.4-51.7,0.4c-56.2,0.1-112.3,0.2-168.5,0.3c-15.3,0-30.6-0.3-45.9,0.3C850.4,156.2,843.1,155.3,835.9,156.6z"/>
	<path class="st34" d="M1235.7,302.6c-26.8,0-53.7,0-80.5,0c-16.7,0-33.3-0.2-50,0.3c-11.3,0.3-22.5-0.4-33.8-0.1
		c-44.1,1.2-88.2,0.2-132.3,1c-30.8,0.6-61.6,0.3-92.4,1c-64.6,1.3-129.2,0.7-193.8,1c-4.7,0-9.4,0.3-14.1-0.2c0-0.7,0-1.3,0-2
		c33.5-1.8,67.1-0.5,100.6-0.9c25.6-0.3,51.2,0.3,76.8-0.3c36.9-0.8,73.7-0.3,110.6-1c50.8-1,101.6-0.1,152.4-1
		c52.2-1,104.4-0.3,156.5-0.7C1235.7,300.6,1235.7,301.6,1235.7,302.6z"/>
	<path class="st35" d="M1235.7,375.5c-9,0.3-18,0.5-27.1,0.3c-15.6-0.3-31.2,0.5-46.8,0.5c-46.9,0.1-93.7,0.1-140.6,0.3
		c-23.4,0.1-46.9,0.6-70.3,1c-12.9,0.2-25.8,0.3-38.7,0.5c-33.9,0.6-67.8,0-101.7,0.7c-43.8,0.9-87.7,0.5-131.5,0.9
		c-13.4,0.1-26.8,0.5-40.1,0.8c0-1.3,0-2.7,0-4c12,1,24.1,0,36.1,0c34.7,0.1,69.3-0.1,104-0.3c37.7-0.2,75.4-0.3,113.2-1.1
		c36.3-0.7,72.5-0.1,108.8-1c34.5-0.8,69.1-0.5,103.6-0.8c34.9-0.3,69.9-0.1,104.8-0.1c8.8,0,17.6,0.1,26.4,0.1
		C1235.7,374.2,1235.7,374.9,1235.7,375.5z"/>
	<path class="st36" d="M987.4,226.3c11.8,0.2,23.6,0.4,35.4-0.3c6.3-0.4,12.7,0.2,18.9,0.1c8.1-0.1,16.1-0.3,24.2-0.3
		c29.2-0.2,58.4,0.2,87.6-0.4c27.4-0.6,54.8-0.3,82.2-0.7c0,1,0,2,0,3c-12.8,0-25.6-0.1-38.4,0.1c-46.8,0.8-93.7,1-140.5,1
		c-10.2,0-20.3-0.3-30.5,0.1c-40.9,1.5-81.8,0.4-122.6,1c-10.2,0.2-20.5,1.2-30.7,0.8c-12-0.4-24-0.1-35.9-0.3
		c-15.3-0.2-30.7,0.1-46.1,0.2c-28.8,0.2-57.7,0.1-86.5,0.1c-3.5-1.7-7-1.8-10.5,0c-0.5,0-1,0-1.5,0c-1.2-2.1-3.4,0-4.6-2.1
		c4.4-1.7,8.9-0.6,13.3-0.7c8-0.2,16,0,24.1-0.1c34.9-0.1,69.7-0.1,104.6-0.2c2.2,0,4.5,0.7,6.6-0.8l0,0c1.4,1.6,3.1,0.8,4.7,0.8
		c14.8,0.1,29.5,0.5,44.3-0.1c24.4-1.1,48.9-0.3,73.3-0.8c7.3-0.1,14.5-0.1,21.8-0.1c1-1,2-0.9,3,0.2c1,0,2-0.1,3-0.1
		C986.8,226.1,987.1,226,987.4,226.3z"/>
	<path class="st37" d="M638.9,6.7C651,6.4,663.1,6,675.3,5.9c9.2,0,18.5,1,27.7,0.5c25.2-1.4,50.4-0.5,75.5-0.6
		c48.6-0.3,97.1-0.2,145.7-0.2c23.1,0,46.1,0,69.2-0.1c2.5,0,4.9-0.7,7.4,0.3c2.5,1.7,5.2,1.2,7.9,1.1c2.8-0.1,5.7,0,8.4-0.1
		c-0.7-0.1-1.6,0.1-2.2-1.1c1-0.9,2.1-0.7,3.2-0.7c53.7,0,107.3,0,161-0.1c-0.1,2-1.3,1.8-2.2,1.9c-7.6,0.1-15.1,1-22.7,0.2
		c-2-0.2-3.9,0.4-5.9,0.4c-23.5-0.1-47-0.1-70.5,0c-2.8,0-5.7-1.9-8.4,0.5c-0.5,0-1,0-1.5,0.1c-1-0.7-2.2-0.6-3.3-0.6
		c-12.2,0.2-24.3-1-34.3-0.5c4,0,10.2-0.1,16.4,0.1c1.2,0,2.9-1,3.3,1.8c-42.5,0-85,0.1-127.5,0.1c-14.5,0-29.1-0.1-43.6,0.1
		c-18.2,0.3-36.5-0.1-54.7,0.2c-8,0.1-16.1,0.3-24.1,0c-10-0.4-20,0.9-30,0.3C763,8.9,756,9.1,749,9.1c-8.7,0.1-17.4,0.3-26,0.4
		c-28,0.2-56,0.1-84,0.2C638.9,8.7,638.9,7.7,638.9,6.7z"/>
	<path class="st38" d="M1047.6,82.2c-6.6,1-13.2,0.4-19.7,0.4c-81.2,0.1-162.3,0.1-243.5,0.2c-19.7,0-39.5,0.5-59.2,0.1
		c-11.6-0.2-23.2,0.1-34.8,0.2c-17.1,0.2-34.3,0.1-51.4,0.5c0-1.3,0-2.7,0-4c18.6,0,37.2,0.1,55.8,0.1c59,0,118.1,0,177.1-0.1
		c56.7,0,113.3-0.1,170-0.1c1.2,0,2.5,0,3.7,0.1C1045.9,80.8,1047.5,80.3,1047.6,82.2z"/>
	<path class="st39" d="M1203.7,449.6c-26.7,0.1-53.4-0.2-80.2,0.2c-10.4,0.2-20.8-0.2-31.2-0.1c-46.8,0.8-93.6,0.6-140.4,0.9
		c-28.7,0.2-57.5,1.1-86.2,0.8c0.7-3,2.5-0.3,3.2-1.3c1-0.1,0.4-1.1,0.5-0.5c0,0,0,0.1-0.1,0.1c-1.7-0.2-3.7,2-5-1.1
		c4.2,0,8.4-0.1,12.7-0.1c-0.6,3.2-2.7,0.5-3.8,1.7c-0.5,0.1,0,0.5,0,0.5c3.3-2.1,7.1-0.1,10.4-2.1c7-0.1,13.9-0.1,20.9-0.2
		c55.1-1.6,110.2-0.1,165.3-1.1c54.8-1,109.7-0.5,164.5-0.9c0.5,0,1,0.1,1.5,0.1c0,1,0,2,0,3C1225,449.6,1214.4,449.6,1203.7,449.6z
		"/>
	<path class="st40" d="M864.2,448.6c1.7,1.9,3.9,0.2,5.9,1.3c-1.4,1.4-3.2-0.2-4.4,1.6c-75.6,0.7-151.2,1.4-226.8,2.1c0-1,0-2,0-3
		c11.4-0.1,22.9,0.1,34.3-0.2c43.1-1.2,86.2-0.2,129.2-1.1C823,448.8,843.6,448.6,864.2,448.6z"/>
	<path class="st34" d="M1047.6,82.2c-0.8-0.7-2.1-0.7-2.1-2.6c0.5,0,0.9,0,1.4,0c2.8-0.7,5.6-0.7,8.4,0c34-1.7,68.1-0.6,102.1-1
		c11-0.2,22-0.6,32.9-0.7c15.1-0.2,30.3-0.1,45.4-0.2c0,1,0,2,0,3c-26.4,1.5-52.8,0.8-79.3,1c-22.3,0.2-44.7,0-67,0.2
		c-12.5,0.1-25,0.5-37.4,0.7C1050.5,82.5,1049.1,82.3,1047.6,82.2z"/>
	<path class="st36" d="M1069.4,7.8c0.8-3.4,2.9-2,4.4-2c33.7-0.1,67.3-0.1,101-0.1c1.4,0,3,0.6,4.3-0.9c18.9,0,37.8-0.1,56.7-0.1
		c0,1,0,2,0,3c-9.1,0.1-18.2-0.2-27.2,0.3c-13.6,0.7-27.2,0-40.9,0.4c-30.4,0.7-60.8,0.2-91.3,0.2C1074.1,8.5,1071.7,8,1069.4,7.8z"
		/>
	<path class="st32" d="M848.5,498.5c-0.2-1.6-0.6-3-2.1-2.5c-1.8,0.6-2.6-0.8-2.9-2.7c-0.4-2.4,1-2.4,2.2-2.9c2.9-1,2.5-4.4,2.8-7.3
		c0.2-1.7,0.4-3.8,2.1-3c2,1,5.4-2.4,6,3c0.2,1.9,0,4-1.8,4.2c-4.4,0.4-4.4,3.4-2.9,7.8c0.3,1,0.2,2.3,0.3,3.4
		C851,498.5,849.8,498.5,848.5,498.5z"/>
	<path class="st41" d="M688,228.5c1.5,0.7,3.8-1.4,4.6,2.1c-17.9,0-35.8,0-53.7-0.1c0-0.7,0-1.3,0-2
		C655.3,228.6,671.6,228.5,688,228.5z"/>
	<path class="st32" d="M832.1,498.5c0.1-0.3,0.2-0.6,0.3-0.9c0.8-1.5,0-5,2-4.5c2.5,0.6,0.1,3.6,0.7,5.4
		C834.1,498.5,833.1,498.5,832.1,498.5z"/>
	<path class="st42" d="M1224.5,274.9c-0.1,1.8-0.8,2.7-1.9,2.7c-1.4-0.1-2.4-0.9-2.5-2.9c-0.1-1.2,0.4-2.6,1.4-2.5
		C1222.8,272.2,1223.9,273.4,1224.5,274.9z"/>
	<path class="st41" d="M694.1,230.7c0-0.5-0.2-1.3-0.1-1.4c1.8-1.6,8.7-0.7,10.5,1.4C701.1,230.7,697.6,230.7,694.1,230.7z"/>
	<path class="st36" d="M1049.9,8.6c-1.4-1.5-3.1-0.8-4.7-0.9c-7.7-0.1-15.3,0-23.1,0c0.4-2.7,1.6-1.9,2.4-1.9
		c13.7-0.1,27.3-0.1,41,0c0.9,0,2.9-1.2,2.3,2.1C1061.9,9.5,1055.9,8.1,1049.9,8.6z"/>
	<path class="st38" d="M1055.3,79.6c-2.8,0-5.6,0-8.4,0C1049.7,78.3,1052.5,78.3,1055.3,79.6z"/>
	<path class="st40" d="M883.6,448.6c-0.3,2-1.5,1.9-2.6,1.9c-2.8,0-5.6,0-8.8,0c1.6-1.9,3.5,0,4.6-2
		C879.1,448.5,881.4,448.6,883.6,448.6z"/>
	<path class="st36" d="M1014.8,5.6c1.8,0.1,3.6,0.2,5.5,0.3c-0.5,2-1.4,1.7-2.3,1.7c-5.2,0-10.4,0-15.6,0c-0.9,0-2.2,0.4-1.6-2
		C1005.4,5.7,1010.1,5.6,1014.8,5.6z"/>
	<path class="st43" d="M1166.4-28.3c-0.1,1.2-0.4,1.9-1.1,1.6c-0.9-0.4-2-0.6-2.2-2.1c-0.1-0.8,0.6-1.3,1.3-1.3
		C1165.4-30.2,1166.1-29.5,1166.4-28.3z"/>
	<path class="st30" d="M953.5,207c-0.3,2.5,1,3.7,1.8,5.3c1.3,2.4,2.1,4.7,0.2,7.6c-1.7,2.6-3.1,2.6-5,0.6c-1-1-2.4-1.2-3.3-2.3
		c-1.8-2.3-3.3-1.4-4.9,0.4c-3.8,4.1-5.6,3.7-7.8-1.9c-1.1-2.8-1.9-3.6-4.5-2.6c-3.4,1.4-6.4,3-8.5,7.1c-1,2-2.5,2.4-4.3,2.4
		c-1.9,0-3.3-1.1-3.9-3.1c-0.7-2.6,1.6-3.9,2.5-4.1c4.1-0.6,5.9-7.2,10.4-6.7c0.7,0.1,1.2-1.5,1.5-2.6c1-3.3,5.4-5.7,7.7-4.1
		c1.6,1.1,2.8,2.9,1.9,5.7c-0.4,1.2-1.1,2.9-0.2,3.7c1.3,1.1,1.5,8.7,4.9,1.8c0.8-1.7,3.1-3,4.4-5c1.4-2.1,3.5-3.8,0.7-6.8
		c-1.1-1.2,0.2-2.4,0.8-3.2c0.9-1.1,2.1-3,3.1-1.3c1.6,2.7,3.1,0.9,4.7,0.4c0.5-0.2,0.9-0.5,1.4-0.8c1.9-1.1,4.8-1.9,5.5-0.2
		c0.9,2,0.2,5.6-0.3,8.4c-0.5,2.8-2.5,4.4-4.3,5.1C956.2,211.3,955.6,207.2,953.5,207z"/>
	<path class="st30" d="M985.3,163.6c-2.6,2.5-4.7,4.6-6.9,6.7c-0.4,0.4-0.5,1.1-0.7,1.7c-0.3,1.1,1.4,4-1.1,3.2
		c-1.4-0.4-3.1-2-2.2-4.8c0.8-2.4,0.3-3.4-1.5-4.5c-1.7-1-1.8-4-1.1-5.7c1-2.1,2,0.5,3,1.1c1.6,1,3.2,3.4,3.9-1.2
		c0.2-1.1,1.1-1.1,1.9-0.9c5.4,1.9,10.7,3.7,16.1,5.5c2,0.7,2,3.2,2.6,5.1c0.5,1.5-0.8,1.8-1.7,1.6c-1.6-0.4-3.3-0.7-4.6-1.4
		c-2.2-1.3-3.8-1.7-6.2-0.8C984.5,170,985.6,166.2,985.3,163.6z"/>
	<path class="st30" d="M983.6,226.7c-1-0.1-2-0.1-3-0.2c-4-2.9-5.7-7.7-4.5-13.1c1.2-5.7,5.1-9.6,9.3-9.4c4.4,0.2,6.7,2.6,7.6,8.5
		c-2.3-2.4-3.9-5.1-6.9-5.2c-3.5,0-6.6,1.4-7.5,5.1c-1.1,4.5,0.4,10.1,3.3,12.1C982.7,225,983.5,225.2,983.6,226.7z"/>
	<path class="st30" d="M1033.8,160.7c-0.7,6.9,3.1,6.5,6.1,7.3c-0.4,1.7-0.8,3-1.1,4.4c-0.4,1.4-1.2,2.3-2.3,2
		c-3.4-0.9-3.7-5.7-5.6-8.5C1029.5,164,1031.8,162.1,1033.8,160.7z"/>
	<path class="st30" d="M1015.8,169c-0.1-7.4,2.3-8.8,5.9-8.4c2.1,0.2,4.2,0,6.3,0.2c0.8,0,1.5,0.6,1.5,1.8c0,1.2-0.7,1.6-1.5,1.9
		c-0.1,0-0.2,0.1-0.4,0.1C1023.6,165,1019.3,162.8,1015.8,169z"/>
	<path class="st30" d="M987.4,226.3c-0.3,0.1-0.6,0.2-0.8,0.2c0-2.5,2.1-3.6,2.3-6.1c0.2-2.5,0.8-5-1.2-6.6c-1.4-1.2-3-1.5-4.5,0.3
		c-2,2.5-0.7,4.7,0.2,7.2c-1.8-1.7-3.6-3.3-2.3-7c1.4-4.1,3.6-5.5,6.2-3.6C992.3,214.4,992.3,223.1,987.4,226.3z"/>
	<path class="st30" d="M1054.1,163.3c3.4-3.2,10.6-2.2,11.8,1.4c0.5,1.3,0.7,2.6,0,3.7c-0.7,1.2-1.6,0.4-2.4,0.1
		c-0.8-0.3-1.8-0.7-2.3-1.5C1059.5,163.8,1056.9,163.5,1054.1,163.3z"/>
	<path class="st30" d="M971.7,211.1c0.8,1.6,2.1,3.4,2.7,5.5c0.5,1.8-0.4,3.6-1.6,4.6c-1.8,1.4-3.6,0-3.5-2.9c0-1,0-1.9-0.3-2.8
		C967.9,213,969.1,210.9,971.7,211.1z"/>
	<path class="st30" d="M990.5,185.2c-1.3,0.5-2.3,1-3.4,1.4c-1,0.4-2,0.8-2.2,2.3c-0.3,1.8,1.2,1.8,1.9,2.5c0.6,0.6,2,0.4,1.4,2.1
		c-0.5,1.4-1.6,1.4-2.6,0.9c-1.6-0.8-2-2.7-2.4-4.7c-0.4-1.9,0.1-3.4,1.5-3.9C986.5,185,987.9,178.4,990.5,185.2z"/>
	<path class="st30" d="M1009.5,160.6c0.9,0.5,3.1-0.9,2.6,1.8c-0.5,3-2.8,4.5-5,5c-1.3,0.3-1.9-1.3-1.9-2.9
		C1005.3,160.5,1007.6,160.9,1009.5,160.6z"/>
	<path class="st30" d="M887,220.1c3.8-2.7,6.6-3.7,9.8-2.1c0.7,0.4,1.8,0.8,1.3,2.4c-0.4,1.3-1.2,2.4-2.3,1.8
		C893.3,220.8,890.6,220.8,887,220.1z"/>
	<path class="st30" d="M1181.9,165.1c0.4-3.9,1-7.5,4.8-6.4c0.9,0.2,1.8,0.5,1.7,2c0,1.2-0.7,1.8-1.5,1.8
		C1184.9,162.3,1183.6,164.1,1181.9,165.1z"/>
	<path class="st30" d="M997.3,191.8c-1.3,1.4-2.8,0.7-4.2,0.7c-0.9,0.1-2.4,0.7-2.6-0.6c-0.2-1.4,0.3-3.3,1-4.4
		c1-1.4,1.7,0.5,2.3,1.2C994.8,190,996.7,189.4,997.3,191.8z"/>
	<path class="st30" d="M1025.3,177.8c-0.1,2-0.4,3.8-1.5,3.2c-1.7-0.8-3.3-2.2-4-4.7c-0.4-1.4,0.5-1.7,1.3-1.7
		C1023.1,174.7,1024.6,175.6,1025.3,177.8z"/>
	<path class="st30" d="M958.1,225.3c0.4-3.9,1-7.1,4.5-5.8c0.9,0.3,2.4-0.2,2.4,1.4c-0.1,1.5-1.3,2.9-2.7,2.4
		C960.6,223,958.9,221.4,958.1,225.3z"/>
	<path class="st30" d="M1091.6,164.1c-0.1,1.2-0.5,2.1-1.3,2.1c-1.3-0.1-2.4-0.8-2.8-2.6c-0.2-1.2,0.4-1.8,1.3-1.8
		C1090,161.8,1091.2,162.3,1091.6,164.1z"/>
	<path class="st30" d="M1000.9,178.1c0.3-1.6,1.4-1.8,2.3-1.7c1,0.1,1.9,1.1,1.6,2.7c-0.2,1.3-1.1,1.6-2,1.5
		C1001.7,180.4,1001,179.7,1000.9,178.1z"/>
	<path class="st30" d="M1006.6,193c-0.8-2.8-1.5-4.6-3-5.6c-0.6-0.4-1.4-1.2-0.8-2.2c0.6-1,1.6-0.7,2.2,0.3
		C1006.3,187.3,1007.1,189.4,1006.6,193z"/>
	<path class="st30" d="M725.3,222.7c2.3-1.6,4.6-1.2,7.2,0.5C729.8,225,727.5,223.3,725.3,222.7z"/>
	<path class="st30" d="M1178.7,216.6c-0.4,1.2-1.2,1.8-2.1,1.6c-0.9-0.2-2.3-0.6-2.2-2.2c0.1-1.7,1.5-1.4,2.4-1.4
		C1177.8,214.7,1178.6,215.1,1178.7,216.6z"/>
	<path class="st30" d="M1150.6,165.5c0,1.2-0.4,1.9-1.3,1.9c-0.7,0-1.3-0.3-1.3-1.3c-0.1-1.4,0.5-2.2,1.5-2.3
		C1150.2,163.9,1150.6,164.5,1150.6,165.5z"/>
	<path class="st30" d="M992.7,221.9c-1.1-1.3,0.1-2.1,0.4-3c0.4-1.2-1.7-3.4,0.5-3.3c1.5,0.1,0.3,2.5,0.4,3.8
		C994.1,220.5,993.9,221.8,992.7,221.9z"/>
	<path class="st30" d="M1210.4,160.5c-0.8-0.1-1.4-0.5-1.3-1.8c0.1-1.1,0.6-1.8,1.5-1.7c0.6,0.1,1,0.8,1.1,1.6
		C1211.8,160,1211.2,160.4,1210.4,160.5z"/>
	<path class="st30" d="M1212.5,217.1c-1.4,0.2-2.9,1.4-4.1-0.7c-0.1-0.2,0-0.8,0.1-0.9C1210.1,214.7,1211.3,215.8,1212.5,217.1z"/>
	<path class="st30" d="M1194.4,196.3c-0.4-2.3-0.9-3.9,0.4-5.2c0.2-0.2,0.9,0,0.9,0.2C1196,193.1,1195.5,194.5,1194.4,196.3z"/>
	<path class="st30" d="M1011.4,177.7c0.7,0.1,1.6-0.1,1.6,1.3c0,0.9-0.6,1.4-1.3,1.5c-0.8,0.1-1.5-0.4-1.6-1.5
		C1010,177.9,1010.7,177.7,1011.4,177.7z"/>
	<path class="st30" d="M1156.5,167.8c0.6,0,1.3,0.1,1.4,1.2c0.1,1-0.4,1.5-1.1,1.5c-0.6,0.1-1.3-0.1-1.4-1.2
		C1155.3,168.3,1155.8,167.9,1156.5,167.8z"/>
	<path class="st30" d="M1200.4,172.3c0.7,0.3,1,1.1,0.9,1.9c-0.1,1-0.7,1.3-1.4,1.3c-0.6,0-1-0.3-0.8-1.2
		C1199.2,173.4,1199.5,172.5,1200.4,172.3z"/>
	<path class="st30" d="M1097.5,204.4c0,0.9-0.4,1.6-1,1.8c-0.7,0.2-1.2-0.3-1.4-1.2c-0.2-1,0.4-1.4,1-1.7
		C1096.8,203,1097.2,203.5,1097.5,204.4z"/>
	<path class="st30" d="M1016.7,172.8c0.5,0.1,1,0.4,1,1.2c0,1-0.4,1.5-1.2,1.4c-0.5-0.1-1-0.4-1.1-1.1
		C1015.5,173.3,1016,172.9,1016.7,172.8z"/>
	<path class="st30" d="M836.6,226.7c0.2-1.4-0.2-3,0.9-4.2C837.9,224.1,838.8,225.7,836.6,226.7
		C836.5,226.7,836.6,226.7,836.6,226.7z"/>
	<path class="st32" d="M866.3,484.5c-0.6,2-1.7,3.6-3.6,3.3c-1.3-0.2-2.6-1.6-2.4-3.3c0.3-3.1,2.7-2.1,4.2-2.7
		C865.6,481.4,866.3,482.7,866.3,484.5z"/>
	<path class="st32" d="M878.6,488.3c-2.3,2.3-3.9,3-5.6,3c-1,0-2.5-0.4-2.4-2.2c0.1-1.5,1.2-2.6,2.4-2.5
		C874.6,486.9,876.2,487.6,878.6,488.3z"/>
	<path class="st32" d="M840.5,476.1c1-0.2,1.3,0.6,1.2,1.5c-0.2,2.2-0.9,4.3-2.2,5.3c-0.8,0.7-1.9-1.1-1.9-2.4
		C837.5,477.9,839.6,477.5,840.5,476.1z"/>
</g>
</svg>
