<?xml version="1.0" encoding="utf-8"?>
<!-- Generator: Adobe Illustrator 25.1.0, SVG Export Plug-In . SVG Version: 6.00 Build 0)  -->
<svg version="1.1" id="Capa_1" xmlns="http://www.w3.org/2000/svg" xmlns:xlink="http://www.w3.org/1999/xlink" x="0px" y="0px"
	 viewBox="0 0 512 512" style="enable-background:new 0 0 512 512;" xml:space="preserve">
<style type="text/css">
	.st0{fill:#BE1622;}
</style>
<g>
	<g>
		<path class="st0" d="M467,61H45c-6.9,0-13.4,1.7-19.3,4.5L255,294.8l51.4-49.4c0,0,0,0,0,0s0,0,0,0L486.3,65.5
			C480.4,62.7,473.9,61,467,61z"/>
	</g>
</g>
<g>
	<g>
		<path class="st0" d="M507.5,86.7L338.2,256l169.3,169.3c2.8-5.9,4.5-12.4,4.5-19.3V106C512,99.1,510.3,92.6,507.5,86.7z"/>
	</g>
</g>
<g>
	<g>
		<path class="st0" d="M4.5,86.7C1.7,92.6,0,99.1,0,106v300c0,6.9,1.7,13.4,4.5,19.3L173.8,256L4.5,86.7z"/>
	</g>
</g>
<g>
	<g>
		<path class="st0" d="M317,277.2l-51.4,49.4c-2.9,2.9-6.8,4.4-10.6,4.4s-7.7-1.5-10.6-4.4L195,277.2L25.7,446.5
			c5.9,2.8,12.4,4.5,19.3,4.5h422c6.9,0,13.4-1.7,19.3-4.5L317,277.2z"/>
	</g>
</g>
</svg>
