<?xml version="1.0" encoding="utf-8"?>
<!-- Generator: Adobe Illustrator 25.1.0, SVG Export Plug-In . SVG Version: 6.00 Build 0)  -->
<svg version="1.1" id="Camada_1" xmlns="http://www.w3.org/2000/svg" xmlns:xlink="http://www.w3.org/1999/xlink" x="0px" y="0px"
	 viewBox="0 0 135.3 45.9" style="enable-background:new 0 0 135.3 45.9;" xml:space="preserve">
<style type="text/css">
	.st0{fill:#FFFFFF;}
	.st1{fill:#FBDEEA;}
</style>
<g>
	<g>
		<g>
			<path class="st0" d="M26.5,11.8v14.1h-3.8V11.4h-0.3c-3.1,0-4,1.3-4,3.4c0,1.9,0.7,2.3,1,2.6c-2.2,0-3.5-0.7-3.5-2.9
				c0-2.8,2.1-4.9,7.7-4.9c2.8,0,4.3,0.5,6.5,0.5c1.4,0,2.4-0.2,3.1-0.5c0.1,0.3,0.1,0.5,0.1,0.8c0,1.3-0.8,2-2.8,2
				C29.4,12.3,28,12.1,26.5,11.8z"/>
			<path class="st0" d="M40.8,14.9v7.5c0,1.2,0.3,1.5,1.4,1.5c1,0,1.7-0.8,1.8-1.9h1.1c-0.6,3.6-3,4.1-4.4,4.1c-1.8,0-2.7-0.8-3.1-2
				c-0.5,1-1.5,2-3.4,2c-2.2,0-4.6-1.3-4.6-5.1c0-2.7,1.4-6.1,5-6.1c0.9,0,2,0.1,2.4,1.2v-1.1H40.8z M37,17
				c-0.1-0.2-0.4-0.9-1.3-0.9c-1.7,0-2.3,2.7-2.3,4.6c0,3.1,1.3,3.2,1.9,3.2c0.8,0,1.7-0.7,1.7-1.9V17z"/>
			<path class="st0" d="M47.7,14.9v7.5c0,1.2,0.3,1.5,1.4,1.5s1.7-0.8,1.8-1.9H52c-0.6,3.6-3,4.1-4.4,4.1c-2.7,0-3.6-1.4-3.6-3.4
				v-7.7H47.7z M46.3,9.4H49l-2.1,4.2h-1.9L46.3,9.4z"/>
			<path class="st0" d="M57.1,14.3c1.7,5.7,2.3,6.6,2.3,8.7c0,2.3-2.5,3.1-4.4,3.1c-3,0-4.6-1.8-4.6-3.3c0-0.8,0.4-1.4,1-1.6
				c1-2.2,1.7-4.4,2-6.5L57.1,14.3z M52.6,23.1c-0.3,0-0.6-0.1-0.8-0.3c0.3,1,0.8,1.5,2,1.5c1,0,1.8-0.4,1.8-1.5
				c0-1.6-0.4-2.3-1.4-5.6c-0.3,1.4-0.9,2.7-1.4,4.1c0.4,0.2,0.7,0.5,0.7,0.9C53.5,22.6,53.1,23.1,52.6,23.1z"/>
			<path class="st0" d="M76.7,25.9v-8c-1.4-0.5-2.4-0.7-3.6-0.8c-0.8,2.7-1.2,5.7-1.2,7.9c0,2.5,0.6,3,0.9,3.4
				c-1.7,0-4.2-0.1-4.2-3.7c0-1.9,0.7-4.8,1.9-7.6c-1.7,0.1-2.7,0.4-2.9,1.2c0.2,0,0.5,0.5,0.5,0.8c0,0.4-0.5,0.7-1.3,0.7
				c-1,0-2-0.6-2-1.6c0-1.4,1.9-2.4,4.6-2.4c0.4,0,0.9,0,1.5,0.1c1.7-3.5,4.3-6.5,7.4-6.5c0.5,0,1.4,0.1,2.1,0.3v16.2H76.7z
				 M76.7,11c-1.3,0.7-2.4,2.8-3.2,5.2c1.1,0.2,2.2,0.4,3.2,0.7V11z"/>
			<path class="st0" d="M86.8,10.5v11.9c0,1.2,0.3,1.5,1.4,1.5s1.7-0.8,1.8-1.9h1.1c-0.6,3.6-3,4.1-4.4,4.1c-2.7,0-3.6-1.4-3.6-3.4
				V11L86.8,10.5z"/>
			<path class="st0" d="M91.9,10.2c1.1,0,2.1,0.8,2.1,1.8c0,1-0.9,1.7-2.1,1.7S89.9,13,89.9,12C89.9,11,90.8,10.2,91.9,10.2z
				 M93.9,14.9v7.5c0,1.2,0.3,1.5,1.4,1.5s1.7-0.8,1.8-1.9h1.1c-0.6,3.6-3,4.1-4.4,4.1c-2.7,0-3.6-1.4-3.6-3.4v-7.7H93.9z"/>
			<path class="st0" d="M102.6,16.8c-1,0-1.4,1-1.5,2v7.1h-3.7v-11h3.7v1.1c0.8-1,1.9-1.2,2.8-1.2c2,0,3.6,1,3.6,4
				c0,0.8-0.1,2.4-0.1,3.1c0,1.3,0.2,1.9,1.3,1.9c1.2,0,1.5-0.8,1.8-1.9h1.1c-0.5,3.5-2.3,4.1-3.8,4.1c-2.7,0-3.8-1.6-3.8-4.1
				c0-0.5,0.1-2.1,0.1-2.7C103.9,17.5,103.4,16.8,102.6,16.8z"/>
			<path class="st0" d="M119,22.8c0,2.5-1.5,3.3-3.7,3.3c-3,0-5.1-1.4-5.1-5.1c0-2.5,1.1-6.1,5.3-6.1c3.5,0,3.5,2,3.5,2.8
				c0,2.1-2.2,3.8-5,3.9c0.2,1.9,1.1,2.5,2.2,2.5C117.2,24,118.3,23.4,119,22.8z M116,16c-1.2,0-1.9,2.5-2,4.4c1.7-0.1,3-1.4,3-3
				C116.9,16.3,116.5,16,116,16z"/>
		</g>
	</g>
	<g>
		<path class="st1" d="M74.8,28.4c0.6,0.5,0.9,1.2,0.9,2.1c0,0.9-0.3,1.6-0.9,2.1s-1.4,0.8-2.5,0.8h-2.4v2.7h-0.6v-8.4h3
			C73.4,27.7,74.2,27.9,74.8,28.4z M74.4,32.2c0.5-0.4,0.7-1,0.7-1.7s-0.2-1.3-0.7-1.7c-0.5-0.4-1.2-0.6-2.1-0.6h-2.4v4.5h2.4
			C73.2,32.8,73.9,32.6,74.4,32.2z"/>
		<path class="st1" d="M78.4,35.7c-0.5-0.3-0.9-0.6-1.1-1.1c-0.3-0.5-0.4-1-0.4-1.6s0.1-1.2,0.4-1.6c0.3-0.5,0.6-0.9,1.1-1.1
			c0.5-0.3,1-0.4,1.6-0.4s1.1,0.1,1.6,0.4c0.5,0.3,0.8,0.6,1.1,1.1c0.3,0.5,0.4,1,0.4,1.6s-0.1,1.2-0.4,1.6
			c-0.3,0.5-0.6,0.9-1.1,1.1c-0.5,0.3-1,0.4-1.6,0.4S78.8,36,78.4,35.7z M81.3,35.3c0.4-0.2,0.7-0.5,0.9-0.9
			c0.2-0.4,0.3-0.9,0.3-1.4c0-0.5-0.1-1-0.3-1.4c-0.2-0.4-0.5-0.7-0.9-0.9c-0.4-0.2-0.8-0.3-1.3-0.3c-0.5,0-0.9,0.1-1.3,0.3
			c-0.4,0.2-0.7,0.5-0.9,0.9c-0.2,0.4-0.3,0.9-0.3,1.4c0,0.5,0.1,1,0.3,1.4c0.2,0.4,0.5,0.7,0.9,0.9c0.4,0.2,0.8,0.3,1.3,0.3
			C80.5,35.6,80.9,35.5,81.3,35.3z"/>
		<path class="st1" d="M86.4,30.1c0.4-0.2,0.9-0.4,1.5-0.4v0.6l-0.1,0c-0.7,0-1.2,0.2-1.6,0.7s-0.6,1-0.6,1.8v3.3H85v-6.3h0.6v1.4
			C85.7,30.7,86,30.4,86.4,30.1z"/>
		<path class="st1" d="M93,35.7c-0.2,0.1-0.3,0.3-0.6,0.3c-0.2,0.1-0.5,0.1-0.7,0.1c-0.5,0-1-0.1-1.3-0.4C90.1,35.4,90,35,90,34.4
			v-4.1h-1.2v-0.5H90v-1.4h0.6v1.4h2v0.5h-2v4c0,0.4,0.1,0.7,0.3,0.9c0.2,0.2,0.5,0.3,0.9,0.3c0.4,0,0.7-0.1,1-0.3L93,35.7z"/>
		<path class="st1" d="M95.4,28.9v0.9h2v0.5h-2v5.7h-0.6v-5.7h-1.2v-0.5h1.2v-1c0-0.5,0.2-0.9,0.5-1.3c0.3-0.3,0.7-0.5,1.3-0.5
			c0.2,0,0.5,0,0.7,0.1c0.2,0.1,0.4,0.2,0.5,0.3L97.5,28c-0.3-0.2-0.6-0.3-1-0.3C95.7,27.7,95.4,28.1,95.4,28.9z"/>
		<path class="st1" d="M99.3,35.7c-0.5-0.3-0.9-0.6-1.1-1.1c-0.3-0.5-0.4-1-0.4-1.6s0.1-1.2,0.4-1.6c0.3-0.5,0.6-0.9,1.1-1.1
			c0.5-0.3,1-0.4,1.6-0.4s1.1,0.1,1.6,0.4c0.5,0.3,0.8,0.6,1.1,1.1c0.3,0.5,0.4,1,0.4,1.6s-0.1,1.2-0.4,1.6
			c-0.3,0.5-0.6,0.9-1.1,1.1c-0.5,0.3-1,0.4-1.6,0.4S99.8,36,99.3,35.7z M102.2,35.3c0.4-0.2,0.7-0.5,0.9-0.9
			c0.2-0.4,0.3-0.9,0.3-1.4c0-0.5-0.1-1-0.3-1.4c-0.2-0.4-0.5-0.7-0.9-0.9c-0.4-0.2-0.8-0.3-1.3-0.3c-0.5,0-0.9,0.1-1.3,0.3
			c-0.4,0.2-0.7,0.5-0.9,0.9c-0.2,0.4-0.3,0.9-0.3,1.4c0,0.5,0.1,1,0.3,1.4c0.2,0.4,0.5,0.7,0.9,0.9c0.4,0.2,0.8,0.3,1.3,0.3
			C101.4,35.6,101.8,35.5,102.2,35.3z M101.9,27.4h0.9l-1.9,1.4h-0.6L101.9,27.4z"/>
		<path class="st1" d="M105.9,27.2h0.6v8.9h-0.6V27.2z"/>
		<path class="st1" d="M109,28.2c-0.1-0.1-0.1-0.2-0.1-0.3c0-0.1,0-0.3,0.1-0.3c0.1-0.1,0.2-0.1,0.3-0.1c0.1,0,0.3,0,0.3,0.1
			c0.1,0.1,0.1,0.2,0.1,0.3c0,0.1,0,0.3-0.1,0.3c-0.1,0.1-0.2,0.1-0.3,0.1C109.2,28.3,109.1,28.3,109,28.2z M109,29.8h0.6v6.3H109
			V29.8z"/>
		<path class="st1" d="M113,35.7c-0.5-0.3-0.9-0.6-1.1-1.1c-0.3-0.5-0.4-1-0.4-1.6s0.1-1.2,0.4-1.6c0.3-0.5,0.6-0.9,1.1-1.1
			c0.5-0.3,1-0.4,1.6-0.4s1.1,0.1,1.6,0.4c0.5,0.3,0.8,0.6,1.1,1.1c0.3,0.5,0.4,1,0.4,1.6s-0.1,1.2-0.4,1.6
			c-0.3,0.5-0.6,0.9-1.1,1.1c-0.5,0.3-1,0.4-1.6,0.4S113.5,36,113,35.7z M115.9,35.3c0.4-0.2,0.7-0.5,0.9-0.9
			c0.2-0.4,0.3-0.9,0.3-1.4c0-0.5-0.1-1-0.3-1.4c-0.2-0.4-0.5-0.7-0.9-0.9c-0.4-0.2-0.8-0.3-1.3-0.3c-0.5,0-0.9,0.1-1.3,0.3
			c-0.4,0.2-0.7,0.5-0.9,0.9c-0.2,0.4-0.3,0.9-0.3,1.4c0,0.5,0.1,1,0.3,1.4c0.2,0.4,0.5,0.7,0.9,0.9c0.4,0.2,0.8,0.3,1.3,0.3
			C115.1,35.6,115.5,35.5,115.9,35.3z"/>
	</g>
</g>
</svg>
