<?xml version="1.0" encoding="utf-8"?>
<!-- Generator: Adobe Illustrator 25.1.0, SVG Export Plug-In . SVG Version: 6.00 Build 0)  -->
<svg version="1.1" id="Camada_1" xmlns="http://www.w3.org/2000/svg" xmlns:xlink="http://www.w3.org/1999/xlink" x="0px" y="0px"
	 viewBox="0 0 204.1 204.1" style="enable-background:new 0 0 204.1 204.1;" xml:space="preserve">
<style type="text/css">
	.st0{opacity:0.8;}
	.st1{fill:url(#SVGID_1_);}
	.st2{clip-path:url(#SVGID_3_);}
	.st3{clip-path:url(#SVGID_5_);}
	.st4{fill:#432918;stroke:#000000;stroke-width:0.5;stroke-miterlimit:10;}
	.st5{clip-path:url(#SVGID_7_);fill:#FFFFFF;stroke:#000000;stroke-width:0.8433;stroke-linecap:round;stroke-miterlimit:10;}
	.st6{fill:#E3C7AB;stroke:#000000;stroke-width:0.8791;stroke-linecap:round;stroke-miterlimit:10;}
	.st7{clip-path:url(#SVGID_9_);fill:none;stroke:#E30613;stroke-width:0.769;stroke-miterlimit:10;}
	.st8{clip-path:url(#SVGID_11_);fill:none;stroke:#E30613;stroke-width:0.8003;stroke-miterlimit:10;}
	.st9{clip-path:url(#SVGID_13_);fill:none;stroke:#E30613;stroke-width:0.7153;stroke-miterlimit:10;}
	.st10{clip-path:url(#SVGID_15_);fill:none;stroke:#E30613;stroke-width:0.8848;stroke-miterlimit:10;}
	.st11{clip-path:url(#SVGID_17_);fill:none;stroke:#E30613;stroke-width:0.8848;stroke-miterlimit:10;}
	.st12{display:none;}
	.st13{display:inline;fill:#13110C;}
	.st14{display:inline;}
	.st15{fill:none;stroke:#000000;stroke-width:0.8825;stroke-miterlimit:10;}
	.st16{display:inline;fill:none;stroke:#000000;stroke-width:0.8825;stroke-miterlimit:10;}
	.st17{fill:none;stroke:#000000;stroke-width:0.6987;stroke-miterlimit:10;}
	.st18{fill:none;stroke:#13110C;stroke-width:0.5;stroke-miterlimit:10;}
	.st19{fill:#13110C;}
	.st20{fill:none;stroke:#13110C;stroke-width:0.6219;stroke-miterlimit:10;}
	.st21{opacity:0.3;}
	
		.st22{fill:none;stroke:#000000;stroke-width:0.1444;stroke-linecap:round;stroke-linejoin:round;stroke-dasharray:7.9124,3.9562,7.9124,3.9562;}
	
		.st23{fill:none;stroke:#000000;stroke-width:0.1444;stroke-linecap:round;stroke-linejoin:round;stroke-dasharray:7.913,3.9565,7.913,3.9565;}
	.st24{fill:#BE1622;}
	.st25{fill:#432918;stroke:#000000;stroke-width:0.5;stroke-linecap:round;stroke-linejoin:round;stroke-miterlimit:10;}
	.st26{fill:#E3C7AB;stroke:#000000;stroke-width:0.5;stroke-miterlimit:10;}
	.st27{display:inline;fill:#DADADA;}
	.st28{display:inline;fill:#D9D9D9;}
	.st29{display:inline;fill:#DEDEDE;}
	.st30{display:inline;fill:#D8D8D8;}
	.st31{display:inline;fill:#DDDDDD;}
	.st32{display:inline;fill:#E0E0E0;}
	.st33{display:inline;fill:#DCDCDC;}
	.st34{display:inline;fill:#DBDCDC;}
	.st35{display:inline;fill:#D7D8D7;}
	.st36{display:inline;fill:#9B9A9A;}
	.st37{display:inline;fill:#979797;}
	.st38{display:inline;fill:#959595;}
	.st39{display:inline;fill:#9D9D9D;}
	.st40{display:inline;fill:#A1A1A1;}
	.st41{display:inline;fill:#9F9F9F;}
	.st42{display:inline;fill:#A2A2A1;}
	.st43{display:inline;fill:#9A9A9A;}
	.st44{display:inline;fill:#999999;}
	.st45{display:inline;fill:#8F8F8F;}
	.st46{display:inline;fill:#A8A8A7;}
</style>
<g>
	<g class="st0">
		<g>
			
				<linearGradient id="SVGID_1_" gradientUnits="userSpaceOnUse" x1="66.8045" y1="181.3605" x2="142.8989" y2="19.6178" gradientTransform="matrix(1 0 0 -1 0 203.8898)">
				<stop  offset="0" style="stop-color:#BE2F43"/>
				<stop  offset="1" style="stop-color:#6C167F"/>
			</linearGradient>
			<path class="st1" d="M14.8,96.1C17.7,46.7,59.9,9,109,11.8s86.7,45.2,83.9,94.6s-45,87.1-94.2,84.3
				C49.5,187.9,12,145.5,14.8,96.1z"/>
		</g>
	</g>
	<g>
		<g>
			<g>
				<g>
					<defs>
						<ellipse id="SVGID_2_" cx="101.9" cy="99.1" rx="93.6" ry="91.7"/>
					</defs>
					<clipPath id="SVGID_3_">
						<use xlink:href="#SVGID_2_"  style="overflow:visible;"/>
					</clipPath>
					<g class="st2">
						<g>
							<g>
								<defs>
									
										<ellipse id="SVGID_4_" transform="matrix(5.755652e-02 -0.9983 0.9983 5.755652e-02 -2.2105 200.3236)" cx="105" cy="101.3" rx="91.8" ry="91.4"/>
								</defs>
								<clipPath id="SVGID_5_">
									<use xlink:href="#SVGID_4_"  style="overflow:visible;"/>
								</clipPath>
								<g class="st3">
									<path class="st4" d="M201,125.7c-0.3,0-0.6,0-0.9-0.1c-6.7,1.7-18.7-2.2-23-10c-1.8-3.3-3.6-8.1-5.3-13.7
										c-0.4,2.9-0.9,5.5-1.5,7.7c-2.1,7.5-10.2,14.7-19.9,16.7c-3.8,0.8-17.4,1.6-30.9,4.5c-8.7,1.9-18.8,1.8-28,0.5
										c-13.4-2-24.9-2-32.2-4.6c-5.6-2.1-16.6-5.7-20.9-14c-0.6,1.3-1.2,2.5-1.7,3.6c-3.5,6.2-11.7,10-18.3,10.4
										c-0.4,6.5,4.6,15.7,12.9,10c12.5-8.7,20.2,3.8,7.6,6.5C17.8,147.8,58.4,159,68,160.9c9.2,1.8,6.6,4.2,20.7,6.5
										c14.1,2.4,58.7,5.1,78.5-4.3c19.8-9.4,21-8.6,14.1-17.1c-6.8-8.7-7.2-17.1,11.7-7.2C198.4,141.6,207.2,129.7,201,125.7z"/>
								</g>
							</g>
						</g>
					</g>
				</g>
			</g>
			<g>
				<g>
					<defs>
						<ellipse id="SVGID_6_" cx="101.9" cy="99.1" rx="93.6" ry="91.7"/>
					</defs>
					<clipPath id="SVGID_7_">
						<use xlink:href="#SVGID_6_"  style="overflow:visible;"/>
					</clipPath>
					<path class="st5" d="M153.3,161.1c-3.2-10.4-12.3-22-17.1-27.7c-2.4-1.8-7.4-4-7.4-4l-54.6,0.8l-7,4.2c0,0-19.9,18.3-18.5,28.1
						c0.3,0.3,0.8,0.6,1.4,0.8c0.2,0.1,0.4,0.2,0.6,0.2c3.6,1.2,10.3,1.6,14.4,1.7c0.2,0,0.5,0,0.7,0s0.5,0,0.8,0
						c1.2,0,2.8-5.6,2.8-5.6l-1,27.7c0,0,24,6,32.8,5.9c8.9-0.1,35.7-6.7,35.7-6.7l-3.5-30.3c0,0,2.2,7.5,2.4,7.5
						c0.3-0.1,0.8-0.1,1.3-0.2c2.7-0.4,8.4-1,12.4-1.6c1.3-0.2,2.4-0.4,3.2-0.5C153.5,161.3,153.9,161.2,153.3,161.1z"/>
				</g>
			</g>
		</g>
	</g>
	<path class="st6" d="M155.7,41.3c-8.7-8.4-26.1-10.5-43.7-9.1c-4.2,0.3-6.8-1.3-8.3-3.9c-2.1,3.2-5.3,5.4-10,5.1
		C70,32,53.3,36.6,51.6,54.4c-0.4,2.8-0.8,5.8-1.3,8.8c-2.7,18-6.7,39.5-11.6,51.1c4.3,8.2,15.4,11.7,21.1,13.6
		c7.2,2.5,18.8,3.1,32.2,4.9c9.2,1.3,19.3,1.2,28-0.8c13.4-3.1,27-4.7,30.8-5.6c9.6-2.1,17.7-9.4,19.6-16.9c0.6-2.3,1-4.9,1.4-7.6
		c-4.4-14.5-8.2-34.5-10.7-49.6C160.8,48,158.8,44.3,155.7,41.3z"/>
	<g>
		<g>
			<g>
				<g>
					<defs>
						<path id="SVGID_8_" d="M67.1,134.9c0,0-19.9,17.6-18.5,27c2.7,2.8,19.8,2.8,19.8,2.8l0.6,20.2c-1.3-0.1,16.5,5,27.4,5.4
							c9.8,0.4,38.6-5.4,38.6-5.4l0.2-21.7c0,0,21.2-2.4,18-2.7c-4.5-13.8-19-27.7-19-27.7l-60.1-2L67.1,134.9z"/>
					</defs>
					<clipPath id="SVGID_9_">
						<use xlink:href="#SVGID_8_"  style="overflow:visible;"/>
					</clipPath>
					<path class="st7" d="M55.8,146.7c0,0,54.7,9.6,90.7,0.9"/>
				</g>
			</g>
		</g>
		<g>
			<g>
				<g>
					<defs>
						<path id="SVGID_10_" d="M67.1,134.9c0,0-19.9,17.6-18.5,27c2.7,2.8,19.8,2.8,19.8,2.8l0.6,20.2c-1.3-0.1,16.5,5,27.4,5.4
							c9.8,0.4,38.6-5.4,38.6-5.4l0.2-21.7c0,0,21.2-2.4,18-2.7c-4.5-13.8-19-27.7-19-27.7l-60.1-2L67.1,134.9z"/>
					</defs>
					<clipPath id="SVGID_11_">
						<use xlink:href="#SVGID_10_"  style="overflow:visible;"/>
					</clipPath>
					<path class="st8" d="M69.8,162.1c0,0,25.2,9.3,64.2,0.6"/>
				</g>
			</g>
		</g>
		<g>
			<g>
				<g>
					<defs>
						<path id="SVGID_12_" d="M67.1,134.9c0,0-19.9,17.6-18.5,27c2.7,2.8,19.8,2.8,19.8,2.8l0.6,20.2c-1.3-0.1,16.5,5,27.4,5.4
							c9.8,0.4,38.6-5.4,38.6-5.4l0.2-21.7c0,0,21.2-2.4,18-2.7c-4.5-13.8-19-27.7-19-27.7l-60.1-2L67.1,134.9z"/>
					</defs>
					<clipPath id="SVGID_13_">
						<use xlink:href="#SVGID_12_"  style="overflow:visible;"/>
					</clipPath>
					<path class="st9" d="M68.7,175.3c0,0,43.6,10.9,66.5-0.6"/>
				</g>
			</g>
		</g>
		<g>
			<g>
				<g>
					<defs>
						<path id="SVGID_14_" d="M67.1,134.9c0,0-19.9,17.6-18.5,27c2.7,2.8,19.8,2.8,19.8,2.8l0.6,20.2c-1.3-0.1,16.5,5,27.4,5.4
							c9.8,0.4,38.6-5.4,38.6-5.4l0.2-21.7c0,0,21.2-2.4,18-2.7c-4.5-13.8-19-27.7-19-27.7l-60.1-2L67.1,134.9z"/>
					</defs>
					<clipPath id="SVGID_15_">
						<use xlink:href="#SVGID_14_"  style="overflow:visible;"/>
					</clipPath>
					<path class="st10" d="M68.8,183.9c18.2,4.3,24,4.7,38.8,4.7c18-1.5,34.1-7.4,29.8-6.4"/>
				</g>
			</g>
		</g>
		<g>
			<g>
				<g>
					<defs>
						<path id="SVGID_16_" d="M67.1,134.9c0,0-19.9,17.6-18.5,27c2.7,2.8,19.8,2.8,19.8,2.8l0.6,20.2c-1.3-0.1,16.5,5,27.4,5.4
							c9.8,0.4,38.6-5.4,38.6-5.4l0.2-21.7c0,0,21.2-2.4,18-2.7c-4.5-13.8-19-27.7-19-27.7l-60.1-2L67.1,134.9z"/>
					</defs>
					<clipPath id="SVGID_17_">
						<use xlink:href="#SVGID_16_"  style="overflow:visible;"/>
					</clipPath>
					<path class="st11" d="M127.7,187.1"/>
				</g>
			</g>
		</g>
	</g>
	<g>
		<g id="tata_olhos_abertos_3_" class="st12">
			<path class="st13" d="M135.5,81.3c0-2.1,1.8-3.8,4-3.8s4,1.7,4,3.8c0,2.1-1.8,3.8-4,3.8S135.5,83.4,135.5,81.3z"/>
			<g class="st14">
				<path class="st15" d="M65.2,78.9c-0.9,0.2-1.6-0.1-2-0.9"/>
				<path class="st15" d="M64.4,80.9c-0.8,0.3-1.6,0.1-2.1-0.6"/>
			</g>
			<path class="st16" d="M142.5,79.5c0.9,0.2,1.6-0.1,2-0.9"/>
			<path class="st16" d="M143.3,81.5c0.8,0.3,1.6,0.1,2.1-0.6"/>
			<path class="st13" d="M64.1,81.3c0-2.1,1.8-3.8,4-3.8s4,1.7,4,3.8c0,2.1-1.8,3.8-4,3.8S64.1,83.4,64.1,81.3z"/>
		</g>
		<g id="tata_olhos_fechados_3_">
			<path class="st15" d="M64,80.8c0.9-2.8,6.8-3.3,13.1-1.2"/>
			<g>
				<path class="st15" d="M148.3,80.8c-0.9-2.8-6.8-3.3-13.1-1.2"/>
				<g>
					<path class="st15" d="M145.9,79.2c0.6-0.7,0.7-1.5,0.3-2.3"/>
					<path class="st15" d="M148,79.5c0.7-0.6,0.9-1.4,0.6-2.2"/>
				</g>
			</g>
			<g>
				<path class="st17" d="M65.8,78.8c-0.1-0.9,0.3-1.6,1.1-2"/>
				<path class="st17" d="M64.1,79.8c-0.5-0.8-0.5-1.6,0-2.3"/>
			</g>
		</g>
		<path class="st18" d="M99.4,107.2c0,0,4.5-3.4,6.7-3c1.7,0.3,2.5,6.1,2.5,6.1"/>
		<path id="sobramc_d_6_" class="st19" d="M145.3,68.6c2.2,0.6,4.3,1.5,6.6,2.2c3,0.9-1.2-1.7-1.2-1.7c-3.4-2-3.8-2-4.6-2.3
			c-4.8-0.8-9.9-1-11.1,0.2c0,0.1,0.7,1.3,1.7,1.2C139.2,68.3,143.8,68.2,145.3,68.6z"/>
		<path id="sobramc_d_5_" class="st19" d="M69.2,68.7c-2.1,0.7-4.2,1.8-6.3,2.7C60,72.5,64,69.6,64,69.6c3.3-2.3,3.7-2.3,4.4-2.6
			c4.7-1.1,9.8-1.7,11.1-0.6c0,0.1-0.6,1.4-1.7,1.3C75.2,67.9,70.6,68.2,69.2,68.7z"/>
		<path class="st20" d="M95.2,117.7c1.6,4.3,10.8,6.1,14.3,2.5"/>
		<g>
			<g class="st21">
				<path class="st22" d="M154.2,105.9c0,4.1-3.5,7.4-7.7,7.4s-7.7-3.3-7.7-7.4s3.5-7.4,7.7-7.4C150.8,98.5,154.2,101.8,154.2,105.9
					z"/>
			</g>
			<g class="st21">
				<ellipse class="st23" cx="57.1" cy="103.7" rx="7.7" ry="7.4"/>
			</g>
		</g>
	</g>
	<g>
		<path class="st24" d="M103.7,197.5c-1.8,0-3.8-0.1-5.6-0.2C45,194.3,4.4,148.6,7.4,95.6c1.5-25.7,12.9-49.3,32.1-66.4
			S83.5,3.5,109.2,5c53.1,3.1,93.7,48.7,90.7,101.8C196.9,157.9,154.3,197.5,103.7,197.5z M103.5,12.2c-21.8,0-42.6,7.9-59,22.5
			C26.8,50.6,16.3,72.3,14.9,96c-2.9,49,34.7,91.1,83.6,93.9c1.7,0.1,3.5,0.2,5.2,0.2c46.7,0,86-36.6,88.7-83.8
			c2.8-49-34.7-91.1-83.7-94C107,12.3,105.3,12.2,103.5,12.2z"/>
	</g>
	<g>
		<path class="st25" d="M191.9,115c-3.7-4.6-9.8-14.3-9.6-23.2c0.2-6.9-0.6-13.7-2.6-20.3c-2.8-31.2-17.9-44.6-26.3-48.1
			c-24.2-10.1,13.7,9.7,14.2,18.4c0.8,13.1-2.2,53.8,0.3,62.4l0,0c1.6,5.7,3.4,10.5,5.3,13.7c4.4,7.9,16.3,11.8,23,10
			C201.3,126.7,198.7,123.5,191.9,115z"/>
		<path class="st25" d="M171.6,43.1C171,32.5,154.3,19,133.7,15.7c-9.9-1.5-17-3.1-29.9-2.8c-1,4.1-2,12.4,0.8,17.4
			c1.5,2.6,4,4.3,8.3,3.9c17.6-1.2,34.9,1.2,43.5,9.7c3,3,5,6.8,5.5,11.4c2.3,15.2,5.7,43.3,8.6,49.6l1.6,2.2
			c12.6,15.6,5.2-2.1,4.5-4.2C171.8,86.2,172.4,54.9,171.6,43.1z"/>
		<path class="st25" d="M19.4,116c3.7-4.6,9.8-14.3,9.6-23.2c-0.2-6.9,0.6-13.7,2.6-20.3c7.4-23.6,4-34.1,26.4-48.1
			c24.1-10.1-13.7,9.7-14.2,18.4c-0.8,13.1-2.9,43.6-0.3,62.4l0,0c-1.6,5.7-3.4,10.5-5.3,13.7c-4.4,7.9-16.3,11.8-23,10
			C10,127.7,12.6,124.5,19.4,116z"/>
		<path class="st25" d="M39.9,45.1c0.5-8.7,18.7-26.5,39.2-29.7c9.9-1.5,17-3.1,29.9-2.8c1,4.1,2,12.4-0.8,17.4
			c-1.5,2.6-4,4.3-8.3,3.9c-17.6-1.2-34.9,1.2-43.5,9.7c-3,3-5,6.8-5.5,11.4c-2.3,15.2-3.3,35.6-7.5,50.2l-0.6,1.9
			c-10.6,15-6.8-0.6-5.8-4.2C43.3,85.8,39.2,56.9,39.9,45.1z"/>
		<path class="st24" d="M165.4,77.8L163.7,67h-1.1c-0.9-3.2-2.9-5.3-5.3-5.3H118c-2,0-3.7,1.5-4.7,3.9l-12,0.1
			c-0.9-3.3-2.9-5.5-5.4-5.5H56.6c-2.6,0-4.7,2.5-5.5,6.4L49.2,67l-1.6,10.5l3.1,2.3v6.9c0,5.8,2.5,10,5.9,10H96
			c3.4,0,5.9-4.2,5.9-10V70.3c2.7-0.5,7.5-1.2,10.3-0.5c-0.1,0.6-0.1,1.3-0.1,2v16.5c0,5.8,2.5,10,5.9,10h39.4c3.4,0,5.9-4.2,5.9-10
			v-8.4L165.4,77.8z M97.8,86.6c0,3.9-1.4,5.8-1.8,5.9H56.6c-0.5-0.1-1.9-2.1-1.9-5.9V70.1c0-0.5,0.1-1,0.1-1.6
			c0.3-2.8,1.4-4.3,1.8-4.4H96c0.5,0.1,1.9,2.1,1.9,5.9L97.8,86.6L97.8,86.6z M159.3,88.2c0,3.9-1.4,5.8-1.8,5.9h-39.4
			c-0.5-0.1-1.9-2.1-1.9-5.9V71.7c0-3.9,1.4-5.8,1.8-5.9h39.4c0.5,0.1,1.9,2.1,1.9,5.9L159.3,88.2L159.3,88.2z"/>
	</g>
	<path class="st26" d="M45.8,178.3c0.4,1.6,1.4,1.5,1.7,1c-0.1,0.9,0.8,3.6,2.5,1.7c-0.3,0.7,1.1,4.3,2.9,1.7
		c-0.3,1.2,1.2,4.5,3.2,1.8c1.9-2.7,2.1-9.2,4.4-8.2s1.1,3.5,3.6,4c2.5,0.4,2-4,1.5-5.1c-0.4-1.1-1.1-3.3-1.4-4.3
		c-0.2-0.8-0.4-1.5-0.3-3c0.3-1.3,0.5-0.9,1.1-2.7c-0.2,0-11.4-0.4-15-1.8C47.6,168.6,45.2,175.5,45.8,178.3z"/>
	<path class="st26" d="M152.2,161.5c-0.8,0.2-15.1,2.1-15.3,2.1c0.6,1.8,1.5,4.7,1.8,6c0.2,0.7,0.1,2.3-0.1,3.1
		c-0.2,1.2-0.5,2-0.9,3.1s-1.3,5.6,1.2,5.2c2.5-0.5,3.3-3.6,5.6-4.6s0.9,6,2.8,8.7c2,2.7,3.5-0.6,3.2-1.8c1.7,2.7,3.2-1,2.9-1.7
		c1.7,1.9,2.6-0.8,2.5-1.7c0.3,0.5,1.3,0.7,1.7-1C158,175.7,154.7,166.8,152.2,161.5z"/>
</g>
<g class="st12">
	<path class="st27" d="M1170.9,162.8c0,24,0,48,0,72c-1.5,2.1-3.5,1.5-5.3,1.5c-41,0-82-0.7-123,0.2c-54.2,1.2-108.3-0.1-162.5,1
		c-33.4,0.7-66.7,0-100.1,0.9c-62.5,1.8-124.9,0.3-187.4,1c-5,0.1-10.1-0.6-15.1,0.7c-1.2,0.3-2.5,0-3.5-1.3c0-24.3,0-48.6,0-73
		c1.5-2,3.5-1.5,5.3-1.5c16,0,31.9,0,47.9,0c0.7,0,1.4,0,2.1,0c3.5,0,7,0,10.6,0c33.3,0,66.6,0,100,0c18.1,0,36.2,0.2,54.3-0.2
		c10-0.2,20,0.9,30-0.6c5.3-0.8,10.8-0.3,16.3-0.3c32.7,0,65.4-0.2,98.1,0.1c10.8,0.1,21.6-1.2,32.4-1.2c39.2,0.2,78.5,0.2,117.7,0
		c10.2-0.1,20.3-1.1,30.5-0.9c15.6,0.2,31.3,0,46.9,0C1167.7,161.3,1169.6,160.8,1170.9,162.8z"/>
	<path class="st28" d="M574.1,311.7c0-23.7,0-47.3,0-71c3.4-2.1,7.1-1.4,10.6-1.4c56.8-0.3,113.6,0.5,170.4-0.4
		c34.3-0.6,68.6,0.2,102.8-0.9c46.1-1.4,92.2,0,138.2-1c11.4-0.2,22.8-0.2,34.2-0.6c20.4-0.8,40.7-0.2,61.1-0.2
		c24.9,0,49.7,0,74.6,0c1.7,0,3.5-0.5,4.9,1.5c0,23.7,0,47.3,0,71c-1.8,2.2-4,1.5-6.1,1.5c-67.1,0.1-134.2-0.4-201.4,0.2
		c-37.4,0.4-74.7,0.1-112.1,1c-33.8,0.8-67.7,0.4-101.5,0.9c-6.5,0.1-13.1,0.7-19.6,0.7c-12.8,0-25.5,0.2-38.3,0.2
		c-19.3,0-38.5-0.1-57.8,0c-13.9,0.1-27.7,0-41.6,0c-4.9,0-9.8,1.8-14.8,0.2C576.5,313.1,575.1,313.1,574.1,311.7z"/>
	<path class="st29" d="M574.1,14.9c0-23.3,0-46.6,0-70c1.1-1.7,2.7-1.5,4.2-1.5c12.4,0.1,24.8-0.1,37.2-0.2
		c6.8-0.1,13.6-0.2,20.4-0.3c11-0.2,22-0.3,33,0c10,0.3,20.1-0.7,30.1-0.4c13.7,0.5,27.5,0.1,41.2,0.1c19.9-0.1,39.7-0.1,59.6-0.2
		c42.7-0.1,85.5,0,128.2,0c19,0,38,0,57,0c6-0.4,12,0.8,18-0.7c0.7-0.2,1.4-0.3,2.1-0.3c25.5,2.1,51.1,0.5,76.6,0.9
		c7,0.1,14.1,0.7,21-0.2c9.8-1.2,19.5-0.4,29.3-0.6c11.5-0.2,23-0.2,34.6-0.1c1.6,0,3.3-0.4,4.5,1.5c0,23.3,0,46.6,0,70
		c-1,1.5-2.4,1.5-3.8,1.5c-10.4,0.4-20.9,0.3-31.3,0.5c-37,0.8-74,0.3-111,0.5c-7.4,0-14.9,0.1-22.3-0.1c-3.9-0.1-7.6,1.5-11.5,1
		c-3-0.9-6-1.6-9-0.2c-0.7,0.1-1.4,0.2-2.1,0.2c-102.5,0-205,0-307.5,0.1c-12.4,0-24.8,0.1-37.2,0.2c-16.2,0.2-32.5,0.5-48.7,0.2
		c-1.9,0-3.7,0.2-5.6,0.4C578.5,17.6,576,17.8,574.1,14.9z"/>
	<path class="st30" d="M1170.9,310.7c0,23.7,0,47.3,0,71c-1.4,2-3.2,1.5-4.9,1.5c-28.2,0-56.4,0-84.6,0c-16.6,0-33.3-0.5-49.9,0.1
		c-49.6,1.7-99.2,0.4-148.8,1c-8.5,0.1-17.1-0.5-25.6,0.1c-12.6,0.9-25.3,0.5-37.9,0.8c-2.4,0-4.7,0-7.1,0c-4.3,0-8.5,0-12.8,0
		c-15.1-0.1-30.3-0.5-45.4,0.2c-39,1.7-77.9,0-116.8,1c-19.3,0.5-38.7,0.8-58,0.8c-1.7,0-3.5,0.5-4.9-1.5c0-23.3,0-46.6,0-70
		c1.3-1.9,3.1-2.7,4.8-2.2c3.6,1,7.1,0,10.7-0.2c8.7-0.5,17.4,0.1,26,0c5.6,0,11.2-0.1,16.7-0.1c27.1-0.1,54.2,0.4,81.3-0.1
		c36.6-0.7,73.2-0.8,109.8-1c5.6,0,11.3-0.5,17-0.7c15.7-0.5,31.5-0.1,47.2-0.2c13.3-0.1,26.6,0,39.9-0.3
		c64.6-1.3,129.2-0.3,193.8-0.7c10.3-0.1,20.5-0.3,30.8-0.2c5.1,0.1,10.2-0.7,15.2-0.2C1168.6,309.9,1169.9,309.5,1170.9,310.7z"/>
	<path class="st31" d="M574.1,88.8c0-23.3,0-46.6,0-70c4-2.9,8.5-1.8,12.7-1.9c12-0.4,24-0.5,36-0.4c9.8,0.1,19.6-0.7,29.4-0.1
		c5.1,0.3,10.2-0.1,15.2-0.1c105.1,0,210.3,0,315.4,0c38.7-1.7,77.5-0.8,116.2-1c18.2-0.1,36.4-0.6,54.6-0.5c4.3,0,8.7-0.8,13-0.5
		c1.5,0.1,3-0.2,4.2,1.5c0,23.3,0,46.6,0,70c-1.3,1.8-3.1,2.1-4.8,1.9c-9.3-0.9-18.6,0.6-27.9,0.6c-21.5,0-43-0.3-64.5,0.1
		c-12.8,0.2-25.5,0.2-38.3,0.3c-12.3,0-24.6-0.3-36.8-0.1c-17.1,0.2-34.2,0.7-51.3,0.7c-41.9,0-83.8,0-125.7,0
		c-11.4,0-22.7,0.9-34,0.9c-69.4,0.2-138.8,0.1-208.2,0.1C577.6,90.3,575.6,91,574.1,88.8z"/>
	<path class="st32" d="M574.1-58.1c0-13.7,0-27.3,0-41c197.8,0,395.7,0,593.5-0.1c2.8,0,3.5,0.8,3.4,4.6c-0.2,11.5-0.1,23-0.1,34.5
		c-1.4,2-3.2,1.5-4.9,1.5c-17.3,0-34.5,0.1-51.8,0c-52.8,0-105.6,0-158.4,0c-1.7,0-3.5-0.2-5.2,0.6c-5,1-10.1,0.4-15.1,0.4
		c-4.6-0.4-9.2,0.1-13.7,0.1c-33.4,0-66.8,0-100.2,0c-22.8,0-45.7-0.1-68.5,0c-16.1,0.1-32.2,0.4-48.3,0.3
		c-16.5-0.1-33,0.5-49.5,0.2c-9.5-0.2-19,0.6-28.4,0.3c-10.8-0.3-21.5,0.3-32.3,0c-5.4-0.1-10.9,0.2-16.4,0.2
		C576.8-56.6,575.2-56.4,574.1-58.1z"/>
	<path class="st27" d="M1170.9,89.8c0,1,0,2,0,3c-1.6,3.5-3.8,4.6-6.7,3.1c-1.2-0.6-2.4-0.6-3.6-1c-1.4-0.5-2.1-0.5-2.6,1.9
		c-1.1,5-3.4,5.4-6.1,1.4c-0.4-0.6-0.7-1.5-1.4-1.2c-0.7,0.3-0.8,1.2-0.9,2c-0.3,2,0.3,4.8-1.9,5.2c-2.2,0.4-3.3-1.8-4.2-4.1
		c-1.5-3.7-3.6-5.8-7-4.3c-1.6,0.7-3.2,0-5.1-0.5c1.2,1.6,3.1,2.4,2.2,4.9c-0.5,1.6-1.7,1.6-2.9,1.6c-4.4-0.2-4.4-0.2-3.1,6.3
		c0.4-3.5,1.8-5.4,4.3-5.4c1.4,0,2.1-0.7,2.7-2.6c1-2.9,3.2-3.3,4.8-1c3,4,3.5,9.5,3.9,14.7c0.3,3.9-6.4,8.5-9,6.3
		c-3.1-2.7-5.9,1.3-8.9,0.2c-0.3-0.1-0.7,0.9-0.5,1.6c0.2,0.8,0.8,1,1.2,0.7c3-2.5,5.5,0,8.1,1.4c3.9,2.1,8.1,1.7,12.1,2.5
		c1.7,0.3,3.5,0.4,5,1.5c1.3,0.9,2.2,2.4,1.9,4.4c-0.3,1.9-1.5,2.5-2.8,2.8c-2.1,0.4-4-0.1-5.6-2c-1.1-1.3-2.4-2.4-3.6-0.8
		c-1.5,1.9,0,3.3,0.8,4.6c1.5,2.6,1.4,5-1.1,5.7c-2.3,0.7-4.1,2.1-6.1,3.4c-1.2,0.9-2.7,1.1-3.9-0.3c-1.2-1.4-0.9-3-0.1-4.5
		c0.9-1.8-0.1-2.7-1-3.8c1,5.8-2.4,11.3-8.6,14.5c0.7-0.5,1.9-1.2,3.1-1.3c1.7-0.1,2.1-2,3.1-3.2c0.5-0.6,1.1-0.4,1.8-0.2
		c5.6,2,9.8-1.2,13.4-6.6c1-1.5,1.7-3.3,3.6-2.7c1.6,0.5,2.1,2.2,2.1,4.2c0,0.7,0,1.4,0.3,1.9c0.9,1.7,2.3,2.7,3.7,3.2
		c3.2,1.1,5.1,6.8,9.3,4.3c1.4-0.9,3.1-1.3,4.6-1.9c1.6-0.7,3.2-1,4.5,0.8c0,3,0,6,0,9c-1.3,1.9-2.9,1.5-4.5,1.5
		c-11.2,0-22.4,0-33.5,0c-9.4,0-18.8-0.2-28.2,0.2c-41,1.7-81.9,0.2-122.9,0.9c-7.8,0.1-15.6-1-23.3,0.1
		c-11.5,1.6-23.1,0.5-34.6,0.7c-2-0.9-1.7-1.9-0.5-3.8c2.6-3.9,2.6-9,0-11.3c-1.3-1.1-2.7-2.7-4.4-1.1c-1.7,1.5-2.8,3.4-2.2,6.3
		c-0.1-4.1,1.2-6.5,3.8-6.5s4.7,3.2,4.7,6.9c0,3.9-2.4,5.9-3.8,8.7c-0.9,0.7-1.7,0.7-2.7,0.3c-3.2-2.1-6-4.7-6.4-10.1
		c-0.7-7.5,3-12.5,8.7-11.5c1.4,0.3,3,0,3.6,0.8c-2.9-1.2-6.3-2.5-9.8,1.1c-2.8,2.9-2.9,6.7-2.6,10.8c0.2,2.5,1.4,4.3,2.6,5.8
		c1.2,1.5,1.1,2.4-0.3,3.3c-7.2,0.7-14.4,0.2-21.6,0.2c-20.3,0.1-40.5-0.1-60.8,0.1c-7.5,0.1-15,1.1-22.6,0.9
		c-11.5-0.3-23.1,0.3-34.6,0c-0.9,0-1.7-0.3-2.5-0.6c-0.6,0-1-2.6-1.8-0.2c-2,1.4-4.2,0.8-6.2,0.8c-39-0.1-78-0.1-117,0.1
		c-8,0-16.1-0.9-24.1,0.3c-15.4,0.1-30.8,0.2-46.2,0.1c-1.1,0-2.2,0.1-3.2-1c0-0.3,0-0.7,0-1c2.5-5.2,7-6,10.6-8.7
		c1.3-1,2.7,0.2,3.8,1.3c2.1,2,4,1.8,6.1-0.3c3.5-3.4,5.1-2.6,6.4,2.8c0.3,1.2,0.6,2.3,1.6,2.3c1.7-0.1,3-1.4,4.1-3.2
		c0.8-1.3-0.2-2.1-0.8-2.9c-0.2-0.2-0.4-0.4-0.6-0.7c-1.4-1.7-2.1-3.6-0.5-5.5c1.4-1.7,2.8-0.8,3.9,0.9c2.2,3.3,4.7,5.7,8.1,6.5
		c3.5,0.8,6.9,1.2,10.2-0.6c2.2-1.2,4.1-1.3,5.8,1.2c0.9,1.2,2,2.3,3.3,2.1c5.5-0.6,11.2,0.9,16.6-2.6c-3.7-2.6-7.4-4.8-11.5-5.9
		c-3.5-1-4.3-2.6-3.9-7.4c0.1-1.2,0.3-2.3,0.4-3.5c0.2-2.4,0.6-4.7,2.5-5.7c2.1-1,3.9-0.3,5.4,1.9c0.7,1,1.3,2.2,2.5,1.8
		c1.4-0.4,1-2.1,1-3.3c0-2.5,0.5-4.7,2.5-5.5c1.6-0.6,3.1-0.2,4,1.6c1.2,2.5,1.8,5.2,0.7,8c-0.5,1.4-1.5,2.2-2.3,3.2
		c-2.6,2.9-3.1,5.4-1.6,7.4c1.6,2.1,5.5,1.9,7.2-0.6c1.2-1.9,2.2-4,3.4-5.9c1.1-1.7,1.5-4.5,3.9-2.2c2.6,2.5,3.5,5.4,2.3,8.4
		c-0.4,0.9-1.5,1.3-1.1,3.4c1.8-2.6,3.9-3.5,6.4-3.4c4.1,0.2,4.4,0.6,2.7,5.7c0.7,1,1.6,0.8,2.4,0.6c3.2-0.9,6.4-2,8.4,3.1
		c0.3,0.8,1.5,1,2.1,0.6c3.6-2.5,7.6-1.3,11.3-1.5c2.6-0.2,4.7-1.6,6.8-3.4c1.9-1.6,4.3-4,5.2,1.7c0.2,1.4,8.2,3.2,9.2,2
		c2.6-3,5.1-3.8,8.1-1.1c1.1,1,2.6,0.8,4,0.3c0.5-1.9-1-2.5-1.3-3.9c-0.4-1.6-0.3-3,0.6-4.1c1.1-1.3,2.4-1.2,3.4,0.2
		c1.4,1.9,2.8,4,3.1,6.7c0.3,2.8,1.6,3.5,3.4,3.5c2.7,0.1,5.4,0.1,8-1.8c2.5-1.8,5.3-1.2,8.1-0.9c4.4,0.4,8.9,1.5,12.9-2.6
		c1.7-1.7,3.8-1.1,5.6,0.3c2.9,2.2,5.8,4,9,0.8c0.4-0.4,1.1-0.7,1.4-0.3c2.3,3.6,5.5,0.1,8.1,1.7c1.6,1,3-1.1,3.9-3
		c0.9-1.7,0.1-3.2-0.7-4.5c-1.9-3-3.3-6.6-6.5-7.8c-1.6-0.6-3.3-2.2-3.3-4.9c0-2.4,1.6-3.2,3.1-3.7c2-0.6,4.2-0.8,5.3,2
		c1,2.4,1.8,4.1,4.2,3.4c1.5-0.4,2.4,0.8,2.2,2.9c-0.6,5.4,2.2,10.2,1.7,15.7c-0.2,1.9,1.5,1.4,2.3,1.3c2.9-0.3,5.4-2.3,8.1-2.9
		c0.2-2.1-1-1.8-1.7-2.2c-2.8-1.7-3.1-3.9-0.8-6.7c0.5-0.7,1.2-1.2,1.8-1.7c2-1.9,4.7-3.5,0.9-7c-1.3-1.2-0.8-3.3-0.2-5.1
		c1.1-2.8,2-5.7,1.8-9c-0.1-1.9,0.7-3.2,2.1-3.5c1.4-0.4,2.6,0.5,2.8,2.4c0.4,3.5,3.1,4.1,4.2,6.7c1.5,3.6,5.4,4.9,5.5,10.1
		c0,1.1,1.8,0.8,2.6,1.4c2.3,1.8,5.8,0.1,7,5.7c0.8,3.9,6.8,3.7,8.9,0.1c1.1-2,3.3-3.2,0.8-7c-2.1-3,1.3-4.1,2.9-5
		c-1.9-2-3.8-4-5.9-5.8c-2-1.8-3.1-0.9-4.3,1.2c-1.1,1.9-1.9,3.9-2.6,6.1c-0.5,1.5-1,3-2.2,4c-0.8,0.6-1.6,1.1-2.5,0.4
		c-0.9-0.8-0.9-2-0.4-3.1c0.9-2.4,1-4.7,0.3-7.2c-0.2-0.6-0.3-1.4,0-2c2-4.3,4.4-8.2,6.3-12.8c0.7-1.8,2.3-0.5,3,1
		c1.6,3.3,4,3.8,6.7,4.4c4.1,0.9,8.3,2.2,10.2,8.5c0.7,2.3,2.1,2.8,3.9,1.1c5.9-5.5,12.5-5.3,19.2-3.2c0.9,0.3,1.2,0.2,2.1-0.7
		c2.3-2.6,4.9-4.5,8.1-3.2c1.8,0.7,2.7-0.5,3.6-2.4c0.9-2.1-0.2-2.5-1.1-3.3c-1.1-0.9-1.1-2.5-1-4c0.1-1.6-0.4-2.8-1.2-4
		c-3.2-4.6-2.8-6.4,1.7-8.9c-2.8,0-5.2,1.7-7.8,2.9c-1.8,0.9-3.9,2.1-4.1-2.8c-0.1-3.6-2-0.2-3-0.8c2.9,2.6,4.7,7.6,9,6.4
		c0.9-0.2,1.5,1,1.7,2.3c0.2,2.3-0.8,3.3-2.4,3.9c0.5,0.5,1.1,0.2,1.6,0.4c2.1,0.7,4.1,1.8,3.6,5.2c-0.5,3.2-2.5,3.9-4.7,3.1
		c-1.6-0.6-3.1-0.5-4.6,0.6c-2.2,1.5-3.3,0.4-3.5-3.2c-0.4-7.7-1.7-9.7-7.4-11c-3.3-0.8-6.3-3.2-9.2-4.9c-3.1-1.8-6-2.9-9.2-2.8
		c-6.1,0.2-12.4,0.4-18.1-1.3c-4.5-1.3-8.5-0.1-12.7-0.6c-0.8-0.1-1.6-0.1-2.2,0.3c-4.4,3-9.1,1.5-13.7,2.1
		c-0.6,0.1-1.3,0.1-1.8-0.2c-5.5-3.7-11.2-2-16.9-1.8c-6.9,0.2-13.9-0.2-20.8-1.9c-2.6-0.6-2.9-2-1.3-4.6c10-1.1,20-0.5,30-0.8
		c3.8-0.1,7.7-0.4,11.5-0.4c46.6,0,93.2-0.1,139.9,0c9.3,0,18.6-0.7,28-0.5c14.6,0.2,29.3,0.2,43.9-0.1c11.1-0.2,22.3-0.1,33.4-0.3
		c28-0.4,55.9,0,83.9-0.3c7.7-0.1,15.3-1,23-0.4C1167.6,88,1169.5,87.8,1170.9,89.8z"/>
	<path class="st33" d="M771.1,91.8c2.6,3.7,6.3,2.8,9.4,2.8c6.4-0.1,12.8,3.2,19.1-0.6c3.4,3.4,8.2-2.6,11.3,3.3
		c0.5,1,2.1,1,2.8,0.2c1.9-1.9,3.5-1,5.1,0.3c1.1,0.9,1.9,0.2,3-0.3c2.9-1.3,5.6-4.7,9-1.5c0.9,0.8,1.9-0.4,2.6-1.3
		c1.8-2.4,3.4-2.2,5.2,0.1c1.4,1.8,3,2.7,5,0.7c1.7-1.7,2.8,1.4,4.5,1.4c5.6,0,11.1,0.2,16.7,0.3c0.5,0,1.2-0.4,1.4-0.1
		c2,2.9,5,2.8,7.2,4.3c2.5,1.8,4.7,3.4,7.7,3.7c3.2,0.3,6.4,7,5.7,11.2c-0.2,1.3-0.7,2.8,0.3,3.7c1.2,1.1,1.4-0.8,1.9-1.5
		c1.6-2.4,3.4-0.8,4.8-0.1c1.3,0.7,2.2,0.9,3.3-0.4c0.6-0.8,1-1.6,0.6-2.6c-0.7-1.6-1.9-2.1-3.1-2.4c-0.5-0.1-1,0.1-1.5,0.3
		c-1,0.3-2.4,1.4-2.8-0.6c-0.3-2,1-2.8,2.4-2.8c1.2,0,2.5-0.3,2.1-2.4c-0.4-2.3-1.6-1.3-2.6-0.5c-0.1,0.1-0.2,0.2-0.3,0.3
		c-0.9,0.4-9.3-7.2-9.4-8.5c-0.1-1,0.3-1.4,1-1.8c1.9-1.1,4.8-0.9,7.1,0.7c0.3,2-1.8,1.6-1.8,4.3c4.9-2,9.5-5.5,14.8-4.1
		c-0.2,2.9-2,2.8-3.7,3.2c-1.2,0.3-2.7,0.7-2.9,2.5c-0.3,2.1,1.2,3.5,2.4,3.9c2,0.7,2.4,1.3,1.3,4c-0.8,2.1-1,5,2.1,3.8
		c0.6-0.2,1.3-0.3,1.6,0.6s0,1.6-0.6,2.1c-1.2,1-1.3,2.8-1.8,4.2c-0.5,1.2-1.1,3-2.1,2.2c-3.3-2.9-6.2,0.6-9.3,0.8
		c-0.7,1.4,1.7,1.8,0.7,3.2c-0.6,0.9-1.9,0.8-2.4,0.1c-3.5-4.9-8.3,0.4-12-3c-2.3,2.7-5.7,2.2-8,4.9c-0.8,0.9-0.9,3.5-2.3,2.6
		c-1.4-0.9-3.1-2.6-3.4-4.3c-1.2-6.8-5.7-6.8-9.1-7.5c-3.2-0.6-5.8-1-7.3-5.3c-0.8-2.3-1.9-1.6-2.2,0.3c-0.5,4.3-2.1,7.3-4.9,9.5
		c-0.5,0.4-0.9,1.5-0.5,2.2c1.9,3.6,1.6,7-1.6,10.5c2.9,0.1,3.7-1.5,4.2-3.4c0.5-1.7,0.9-3.5,1.6-5c1-2.1,2-4.3,3.4-5.8
		c2.5-2.7,2.5,2.5,4.2,2.9c3.4,0.8,4.8,5.9,8.4,6.6c-0.5,0.8-0.6,1.1-0.8,1.2c-1.9,0.5-4.7-1.1-5.4,1.9c-0.6,2.8,3,2,3.8,4.7
		c-1.7,1.6-3.4,3.1-4.4,6.1c-1.2,3.8-5.7,3.5-6.4,2.2c-2-3.9-3.9-2.1-5.8-0.9c-0.7-1.5-0.2-2,0.3-2.5c0.6-0.7,1.8-1,1.3-2.5
		c-0.3-1.1-1.3-0.6-2-0.9c-2.1-0.9-4.1-2.1-6.5-2c-1.7,0.1-2.4-1.5-1.9-3.8c0.6-2.5-0.1-3.9-2-4.1c-1.4-0.1-2-1-2.2-2.7
		s-0.9-2.9-2.3-3.6c-1.5-0.7-3.1-1.5-2.3-4.6c0.4-1.4-0.5-2.2-1.5-2c-1.1,0.2-2,0.7-1.4,2.6c1,3.5-0.4,6.4-1.7,9
		c-1.4,2.9-1.5,4.3,1.3,5.3c2.9,1.1,2.6,3.1,0.4,5.1c-1.6,1.5-3.3,2.9-4.9,4.4c-0.7,0.7-1.5,1.5-1.2,2.8s1.3,1.8,2.1,1.5
		c2.6-0.9,3,1.1,2.9,3.7c-0.1,3.8-2,1.4-3.2,1.8c-3,0.9-5.6,3.3-8.9,2.7c-2.3-0.4-3.4-0.3-1.5-3.8c1.7-3.2-0.8-6.4-1.2-9.7
		c-0.3-2.4-1.1-4.5,0.6-6.6c-1.7-0.9-2.7,0.1-3.7,0.5c-1.8,0.6-3,0.5-2.7-2.7c0.2-2.2-0.5-3.6-2.2-3.8c-1.8-0.2-3.5-0.1-4.9,1.7
		c-0.6,0.7-0.2,1.6,0.3,2.1c0.8,0.8,1.6,2.1,2.4,2.2c4.5,0.5,5.4,6.3,8,9.7c1.6,2.1,1.3,4.2-0.4,5.9c-1.6,1.6-2.9,5.1-5.5,2.5
		c-1.3-1.3-2.2-0.6-3.3,0.1c-1.9,1.3-3.8,1.6-4.3-2.3c-2.5,3.4-6.5,4.2-9.4,1c-3.1-3.5-5.3-2.4-8.1,0.6c-3,3.3-6.7,0.8-10,0.9
		c-3.5,0.1-6.8-1-10.3,1.7c-2.8,2.2-6.5,1.1-9.9,0.3c-0.8-0.2-2-1.1-1.5-2.3c1.4-3.7-2.1-4.7-2.2-7.7c0-1.4-1.5-1.8-2.4-0.9
		c-1.1,1.1-1,2.6,0,3.8c0.6,0.7,1.8,0.6,1.9,2.1c0.1,1.4,1.2,3.2-1.3,3.2c-2.4-0.1-4.8,1.3-6.9-1.8c-1.2-1.8-2.9-0.7-3.9,1
		c-2.1,3.7-4.4,3.6-7.1,1.3c-2.2-2-4.7-0.8-7-0.2c-0.2-1.9,0.6-1.8,1.1-2.2c0.8-0.6,1.5-1.5,0.7-2.8c-0.6-1-1.3-0.7-1.9,0
		c-0.8,1-2.2,1.4-2.8,2.3c-2.6,4.2-6,2.6-9.2,2.8c-2.2,0.1-4.4-0.9-6.7,1.2c-1.6,1.5-4.6,2.2-5.6-2.5c-0.4-2.1-1.5-3.2-3-1.7
		c-1.1,1.1-2.4,0.9-3.6,0.8c-1.6-0.1-3.8,1.1-4.6-0.7c-1-2.5,2.1-3.1,2.9-6.9c-2.9,3.4-6.8-2.2-8.5,4.8c-0.5,2-2.1,0-3-1.1
		c-0.8-0.9-1.6-2.6-0.3-3.3c5.3-2.8,2.6-5.3,0-7.9c-0.3-0.3-0.4-0.8-0.9-2c0.2,4.9-3.2,5.8-4.3,9.5c-1,3.6-4.2,3.8-7.2,2.8
		c-1.7-0.6-3.2-1.2-3.4-3.8c-0.3-2.7-0.3-5.2,1.9-6.9c2.4-1.7,4.7-3.6,3.3-8.5c-0.7-2.4-1.6-3.2-3.3-2.9c-1.8,0.3-2.1,2.1-2,4.1
		s1.6,4.5-0.8,5.5c-2,0.9-3.9,0.6-4.7-2.9c-0.5-2.2-2.2-1.8-3.5-1.7c-1.5,0.2-2,1.5-2.2,3.4c-0.9,8.8-1,9,5.3,11.3
		c3.6,1.3,6.6,4.7,10.4,5.3c0.5,0.1,1,0.3,1,1.2s-0.6,1.4-1.2,1.6c-2.5,0.9-5,2.3-7.5,2.6c-3.9,0.5-8.2,1.7-11.6-0.1
		c-3.9-2.1-6.9-4.3-11.4-1.7c-3.3,1.9-7.3-0.4-10.8-1.5c-1.9-0.6-4-3.3-5.2-6.3c-0.4-1.1-1-2.1-2-1.6c-0.4,0.2-0.8,0.8-1,1.3
		c-0.4,1.4,0.3,2,1.1,2.7c1.5,1.4,4.3,2.3,2.3,5.8c-2.2,3.9-5.9,5-7.9,3c-0.7-0.7-1.7-1-0.8-2.6c0.7-1.2,0.7-2.5-0.3-3.5
		c-1.2-1.1-2.8-0.6-3.4,0.5c-2.9,4.8-5.7,4.5-8.7,0.5c-0.9-1.2-1.9-1-3-0.2c-3.3,2.5-6.7,4.7-10.1,7c0-23.7,0-47.3,0-71
		c1.5-2.1,3.5-1.5,5.3-1.5c49.7,0,99.3,0,149,0c11.4,0,22.8,0,34.2,0C765.5,90.4,768.6,88.1,771.1,91.8z"/>
	<path class="st34" d="M1170.9,384.7c0,15-0.1,30,0.1,44.9c0,3.3-0.4,4.1-3,4.1c-83.5-0.1-167-0.1-250.5-0.1c-43.4,0-86.7,0-130.1,0
		c-3-5.5-2.9-9.8,0.4-12.2c1-0.7,2.7-0.6,2.3-3c-0.3-1.4-1.3-1.3-2.2-1.4c-1.4-0.1-2.7,0.1-3.1,2.5c-0.2,1.5-0.5,2.9-1,4.3
		c-0.6,2-2.2,2.6-3.3,4.1c0.4,2.5,4.6,1.5,3.1,5.7c-4.5,0-9,0-13.4,0c-1-3.4-2-0.9-3,0c-0.5,0-1,0-1.5,0c-2.8-1.4-5-3.3-3.7-8.1
		c0.4-1.4-0.6-2-1-3c-1.4-3.7-0.8-6.1,2.2-8.1c-1.8-1.9-3.6-4-1.9-7.3c1.2-2.3,5.1-2.8,7.2-1c0.5,0.4,0.9,1.2,1.3,1.8
		c0.4,0.6,0.8,0.8,1.2,0.2c0.4-0.7,0.1-1.3-0.4-1.5c-0.8-0.4-1.7-0.7-2.5-1c-2.6-0.9-5.3-5.9-5.1-9.4c0.1-1.7,0.8-2.3,1.9-2.4
		c1.4-0.1,2.7,0.2,4,0.8c1.2,0.5,2,0.8,2.2-1.6c0.2-3.3,2.1-3.8,4.2-3.2c1.5,0.4,2.9,1.2,4.2,2.1c1.6,1.2,3.1,2.8,2.6,5.4
		c-0.5,2.8-2.5,2.9-4.3,2.5c2.2,2.2,3.8,0.2,5.3-1.5c1.3-1.4,0.6-2.9-0.4-4.2c-0.7-0.9-1.4-2.1-0.7-3.5c0.7-1.2,1.8-1.4,2.7-1.1
		c3.7,1.3,7.6,1.8,11.1,4.2c1.8,1.2,3.4,1.8,3.9-1.8c0.3-2.1,0.4-5,2.5-4.6c2.2,0.4,4.9,0.3,6,4c0.4,1.4,0.6,2.9,1,4.3
		c-0.3-3.5,0.1-6.4,3.1-7.2c2.6-0.7,4.5,1.6,5.8,6.7c2.1-5.2,8.4-8.6,12.3-6.1c3.3,2.1,6.2,2.3,9.8,0.9c8.6-3.2,17.4-2.8,26,0.7
		c1.1,0.4,2.2,1.4,3.2,0.5c5.8-4.7,12.1-1.6,18.2-2c2-0.1,3.9,0.2,5.9-0.7c3-1.3,6-1.1,9.2-0.4c4.9,1.1,9.9-0.7,14.8-0.4
		c7.8,0.4,15.6-1,23.4,0c2.6,0.3,5.2,0.2,7.8-0.1c1-0.1,2.3-0.8,2.9,0c3.3,3.8,6.3,1.3,9.5,0c2.2-0.9,4.5-1,6.7-0.4
		c8.8,2.4,17.6,0.9,26.4,0.1c6.4-0.6,12.8-0.1,19-1.1c5.8-0.9,11.4,3.3,17.1,0.2c6.2,3.8,12.4-0.9,18.6,0.3
		c6.8,1.3,13.6-1.7,20.3,0.3c0.8,0.2,1.8-0.1,2.6,0.5c4.7,3.5,8.8,1.5,12.8-2.3c0.9-0.8,1.9-0.6,2.9-0.1c4.5,2.5,9.3,3.1,14.2,2.9
		c1.5-0.1,3-0.3,4.4-1.2c2.4-1.5,4.6-0.6,7.1,0c4.3,1,9,2.3,13.3-0.8c0.5-0.3,0.9-0.7,1.4-0.4c4.4,2.3,8.2,0,12.1-2.3
		c9-0.1,17.9,0,26.8-0.1C1168.3,383.2,1169.8,383,1170.9,384.7z"/>
	<path class="st35" d="M1138.9,384.8c-2.5,2.4-5,4.5-8.4,3.2c-1.3-0.5-3.4-2.6-4.2,1.3c0,0.1-0.2,0.3-0.3,0.2
		c-4.6-1.5-9.5,1.7-14-1.5c-1.3-0.9-2.4-1.6-3.8-0.7c-7.2,4.4-14.2,2.9-21.2-1c-3.8-2.1-1.8,3.4-3.3,4.8c-1.4-2.5-3-3.7-4.7-0.1
		c-1,2.1-2.1,1.3-3.5,0.4c-6-3.8-12.2-4.7-18.6-2.3c-0.9,0.3-1.7,0.5-2.5,0.3c-5.9-1.5-11.7-2-17.4,0.9c-0.9,0.5-2.2,0.8-2.9-0.2
		c-2.2-3.2-4.7-2.2-7.2-1.5c-2.6,0.8-4.9,0.4-7.5-0.7c-3.9-1.7-8,0.3-12.1-0.1c-1.2-0.1-2.5,0.6-3.9,0.1c-4-1.7-7.6,1.8-11.6,1.5
		c-7.8-0.6-15.7,1.8-23.6-0.5c-3.7-1.1-8.1-1.5-11,3.9c-0.8,1.5-1.9,0.7-2.6-1c-1.1-2.8-2.7-3-5-2.6c-3.8,0.7-7.7,1-11.5-0.2
		c-4.1-1.4-7.9,1.1-12,0.7c-7-0.8-14-0.3-21,0.9c-3.2,0.5-6.2-3.2-9.6-0.7c-4.4,3.3-9.5,1.3-14,1c-4.6-0.4-8.2,0.2-12.2,2.8
		c-2.1,1.3-4.5-1.5-6.3-2.6c-3.7-2.2-7.3-0.4-10.9-1c-3.8-0.6-8-1-11.8,1.6c-0.2,0.1-0.6-0.1-0.7,0.1c-3.8,5.3-6.5,0-9.5-1.7
		c-0.7-0.4-1.4-1.3-2.1-0.7c-3.4,3.1-10,1.2-9,11c-1.9-1.3-1.3-3-1.4-4.3c-0.2-2.3-0.8-4.2-2.2-5.6c-1.2-1.2-2.6-1.1-3.8-0.1
		s-1,2.5-0.6,4c0.2,0.6,0.4,1.2,0.5,1.9c0.2,1.3,0.5,2.9-0.6,3.5s-1.3-1.1-1.8-2s-1.1-2.1-1-3.1c0.6-5.9-3.3-4.9-5.4-6
		c-1.4-0.7-1.5,1.8-1.2,3.1c0.4,2,0.7,3.9-1.1,4.4c-1.5,0.4-3,2.3-4.8-0.8c-1.9-3.2-5.8-1.6-8.6-3.5c-1.1-0.7-2.5-1.7-3.8-0.6
		c-0.3,3.2,4.7,1.8,2.8,6.5c-1.7,4.1-4.9,4.9-7.5,6c-1.2,0.5-1.8-5.2-2.5-8.5c1.8,0.2,2.1,2.2,3,3.2c1,1,1.5,0.3,2.3-0.3
		c1.2-1,0.5-1.9,0-2.8c-1.8-3.2-4.7-3.3-7.2-4.3c-1.3-0.5-2.2,1.3-1.1,3.3c0.6,1.2,0.9,2.5,0,3.6c-1.1,1.2-1.8-0.1-2.5-1
		c-1.8-2.1-4.1-0.4-6.5-2.8c1.7,6.4,2.5,11.9,8,10.7c1-0.2,2.4,0.6,2,2.1c-0.5,1.9-1.6,3.8-2.9,5c-0.9,0.8-1.6-0.7-2-2.1
		c-0.7-2.8-4.6-4.2-6.3-2.4c-0.6,0.6-1,1.5-0.9,2.6s0.4,2.5,1.5,2.4c1.9-0.1,3.1,0.9,2.4,3.5c-0.8,3.4-2.4,0.1-4,0.5
		c0.7,2.5-1.4,6.3,2.6,6.8c0.9,0.1,1,1.6,0.2,2.3c-3.7,2.9-1.4,4.8,0.5,6.9c0.4,0.4,0.6,1,0.9,1.5c-62.8,0-125.6,0-188.4,0.1
		c-2.9,0-3.4-1.1-3.4-4.7c0.2-13.5,0.1-26.9,0.1-40.4c1.1-1.7,2.7-1.5,4.2-1.5c13.4,0,26.8,0.5,40.2-0.1c40.3-1.8,80.7,0,121-1.1
		c20.4-0.6,40.9-0.4,61.3-0.8c13.5,0,27.1,0.4,40.6-0.1c50.2-1.8,100.4-0.5,150.6-0.9c8.3-0.1,16.5-1.1,24.8-0.9
		c15.1,0.3,30.2-0.3,45.3-0.2c24,0.2,47.9,0,71.9,0.1C1135.7,383.3,1137.6,382.5,1138.9,384.8z"/>
	<path class="st33" d="M1170.9,150.8c-3.5-0.6-6.4,2.5-9.6,2.8c-2.2,0.2-5,2.6-6.5-2.6c-0.6-2.1-3.7-1.8-5.4-3.5
		c-1.5-1.5-3.5-2.3-2.1-5.6c0.5-1.1-0.1-1.8-0.8-2.3c-1.1-0.8-2.1-0.2-2.5,1.1c-1.8,6-5.9,7.2-9.8,9.1c-2.4,1.1-4.2,1.5-5.5-1
		c-2.8,5.5-7.7,2.2-10.7,5.7c0.4-2.1,1.6-2.3,2.5-2.4c4.6-0.8,6.2-6.1,8.5-10.2c2-3.6-1.7-3.3-2.5-5.3c2.8-2.8,4.4,0.8,6.1,2.2
		c1.8,1.6-0.2,3-1.1,4.1c-0.4,0.5-0.7,1-0.5,1.7c0.2,0.9,0.8,1.4,1.5,1.2c1-0.2,2.3-0.3,2.8-1.2c1.4-2.5,2.9-3.5,5.2-2.7
		c0.7,0.3,1.5-0.4,1.7-1.5c0.2-1.2-0.4-1.8-1.1-2.4c-2-1.7-3.4-4-1.2-6.8c1.9-2.4,4-2.6,5.7,0.8c1.5,3.1,3.8,1.8,5.8,1.8
		c0.6,0,1.2-0.6,1.1-1.6c-0.2-1.6-0.8-2.8-2.1-3.1c-3.2-0.6-6.4-1.4-9.7-1.7c-2.4-0.2-4.6-0.4-6.8-1.7c-2.6-1.5-5.2-4.9-8.2-0.5
		c-0.5,0.8-1.4,0.5-1.9-0.6c-0.7-1.5-0.9-3.1-0.4-4.8c0.4-1.5,1.5-2.2,2.4-1.7c2.3,1.3,4.1,0.8,6-1.3c1.1-1.2,1.9-0.2,2.6,1.4
		c1.2,2.8,2.7,2.1,4.2,0.2c0.2-0.2,0.3-0.6,0.3-0.9c0.5-2.6,4.3-0.7,3.5-3.8c-1.1-4.2-1.1-8.9-3.2-12.7c-0.7-1.4-1.5-2.2-2.7-1.9
		c-1.7,0.4-0.8,1.9-0.8,3.1c-0.1,2.2-1,2.7-2.5,2.5c-4.2-0.6-4.4-0.3-3.8,5.1c0.1,0.6,0.4,1.3-0.1,1.8c-0.6,0.5-1.3,0.3-1.7-0.4
		c-1.8-3-2.8-6.4-1.9-10.2c0.7-2.8,2.3-1.4,3.8-1c1.2,0.3,3,2.3,3.5-0.3c0.4-2.2-1.5-2.5-2.9-2.7c-0.8-0.1-2,0.3-1.9-1.5
		c0.1-1.1,1-1.4,1.8-1.4c3.1,0,6.1,0.7,9.4-0.5c2.2-0.8,4.6,3,5.4,6.5c0.5,2.1,1.5,3.4,2.9,3.1c1.8-0.5,1-2.8,0.7-4.1
		c-0.6-2.7,0.2-3.6,1.9-4.3c1.8-0.8,2.6,0.2,2.7,2.5c0.1,2.1,0.8,3.2,2.4,2.5c1.2-0.6,2.3-1.6,1.7-3.8c-1.4-5.3,0.8-3.6,2.9-2.9
		c3.6,1.2,7.3,3.9,11-0.1C1170.9,112.2,1170.9,131.5,1170.9,150.8z"/>
	<path class="st36" d="M771.1,91.8c-11.6,0-23.3-0.1-34.9-0.1c-30.5,0-61.1,0-91.6,0.1c-23.5,0-46.9,0-70.4,0.1c0-1,0-2,0-3
		c29.3,0,58.7-0.1,88-0.1c22,0,44-0.1,66-0.1c15,0,30,0.2,45,0c63.1-1.1,126.1-0.3,189.2-1c42.3-0.5,84.7-0.3,127-0.9
		c16.7-0.2,33.3,0,50-0.1c10.6-0.1,21.1-0.5,31.7-0.8c0,1.3,0,2.7,0,4c-25.2-0.8-50.4,0.6-75.6,0.1c-12.2-0.2-24.3,0.3-36.5,0.4
		c-17.2,0.1-34.4,0.4-51.7,0.4C951.1,90.9,895,91,838.8,91.1c-15.3,0-30.6-0.3-45.9,0.3C785.6,91.4,778.3,90.5,771.1,91.8z"/>
	<path class="st37" d="M1170.9,237.8c-26.8,0-53.7,0-80.5,0c-16.7,0-33.3-0.2-50,0.3c-11.3,0.3-22.5-0.4-33.8-0.1
		c-44.1,1.2-88.2,0.2-132.3,1c-30.8,0.6-61.6,0.3-92.4,1c-64.6,1.3-129.2,0.7-193.8,1c-4.7,0-9.4,0.3-14.1-0.2c0-0.7,0-1.3,0-2
		c33.5-1.8,67.1-0.5,100.6-0.9c25.6-0.3,51.2,0.3,76.8-0.3c36.9-0.8,73.7-0.3,110.6-1c50.8-1,101.6-0.1,152.4-1
		c52.2-1,104.4-0.3,156.5-0.7C1170.9,235.8,1170.9,236.8,1170.9,237.8z"/>
	<path class="st38" d="M1170.9,310.7c-9,0.3-18,0.5-27.1,0.3c-15.6-0.3-31.2,0.5-46.8,0.5c-46.9,0.1-93.7,0.1-140.6,0.3
		c-23.4,0.1-46.9,0.6-70.3,1c-12.9,0.2-25.8,0.3-38.7,0.5c-33.9,0.6-67.8,0-101.7,0.7c-43.8,0.9-87.7,0.5-131.5,0.9
		c-13.4,0.1-26.8,0.5-40.1,0.8c0-1.3,0-2.7,0-4c12,1,24.1,0,36.1,0c34.7,0.1,69.3-0.1,104-0.3c37.7-0.2,75.4-0.3,113.2-1.1
		c36.3-0.7,72.5-0.1,108.8-1c34.5-0.8,69.1-0.5,103.6-0.8c34.9-0.3,69.9-0.1,104.8-0.1c8.8,0,17.6,0.1,26.4,0.1
		C1170.9,309.4,1170.9,310.1,1170.9,310.7z"/>
	<path class="st39" d="M922.6,161.5c11.8,0.2,23.6,0.4,35.4-0.3c6.3-0.4,12.7,0.2,18.9,0.1c8.1-0.1,16.1-0.3,24.2-0.3
		c29.2-0.2,58.4,0.2,87.6-0.4c27.4-0.6,54.8-0.3,82.2-0.7c0,1,0,2,0,3c-12.8,0-25.6-0.1-38.4,0.1c-46.8,0.8-93.7,1-140.5,1
		c-10.2,0-20.3-0.3-30.5,0.1c-40.9,1.5-81.8,0.4-122.6,1c-10.2,0.2-20.5,1.2-30.7,0.8c-12-0.4-24-0.1-35.9-0.3
		c-15.3-0.2-30.7,0.1-46.1,0.2c-28.8,0.2-57.7,0.1-86.5,0.1c-3.5-1.7-7-1.8-10.5,0c-0.5,0-1,0-1.5,0c-1.2-2.1-3.4,0-4.6-2.1
		c4.4-1.7,8.9-0.6,13.3-0.7c8-0.2,16,0,24.1-0.1c34.9-0.1,69.7-0.1,104.6-0.2c2.2,0,4.5,0.7,6.6-0.8l0,0c1.4,1.6,3.1,0.8,4.7,0.8
		c14.8,0.1,29.5,0.5,44.3-0.1c24.4-1.1,48.9-0.3,73.3-0.8c7.3-0.1,14.5-0.1,21.8-0.1c1-1,2-0.9,3,0.2c1,0,2-0.1,3-0.1
		C922,161.3,922.3,161.2,922.6,161.5z"/>
	<path class="st40" d="M574.1-58.1c12.1-0.3,24.2-0.7,36.4-0.8c9.2,0,18.5,1,27.7,0.5c25.2-1.4,50.4-0.5,75.5-0.6
		c48.6-0.3,97.1-0.2,145.7-0.2c23.1,0,46.1,0,69.2-0.1c2.5,0,4.9-0.7,7.4,0.3c2.5,1.7,5.2,1.2,7.9,1.1c2.8-0.1,5.7,0,8.4-0.1
		c-0.7-0.1-1.6,0.1-2.2-1.1c1-0.9,2.1-0.7,3.2-0.7c53.7,0,107.3,0,161-0.1c-0.1,2-1.3,1.8-2.2,1.9c-7.6,0.1-15.1,1-22.7,0.2
		c-2-0.2-3.9,0.4-5.9,0.4c-23.5-0.1-47-0.1-70.5,0c-2.8,0-5.7-1.9-8.4,0.5c-0.5,0-1,0-1.5,0.1c-1-0.7-2.2-0.6-3.3-0.6
		c-12.2,0.2-24.3-1-34.3-0.5c4,0,10.2-0.1,16.4,0.1c1.2,0,2.9-1,3.3,1.8c-42.5,0-85,0.1-127.5,0.1c-14.5,0-29.1-0.1-43.6,0.1
		c-18.2,0.3-36.5-0.1-54.7,0.2c-8,0.1-16.1,0.3-24.1,0c-10-0.4-20,0.9-30,0.3c-7.1-0.6-14.1-0.4-21.1-0.4c-8.7,0.1-17.4,0.3-26,0.4
		c-28,0.2-56,0.1-84,0.2C574.1-56.1,574.1-57.1,574.1-58.1z"/>
	<path class="st41" d="M982.8,17.4c-6.6,1-13.2,0.4-19.7,0.4c-81.2,0.1-162.3,0.1-243.5,0.2c-19.7,0-39.5,0.5-59.2,0.1
		c-11.6-0.2-23.2,0.1-34.8,0.2c-17.1,0.2-34.3,0.1-51.4,0.5c0-1.3,0-2.7,0-4c18.6,0,37.2,0.1,55.8,0.1c59,0,118.1,0,177.1-0.1
		c56.7,0,113.3-0.1,170-0.1c1.2,0,2.5,0,3.7,0.1C981.1,16,982.7,15.5,982.8,17.4z"/>
	<path class="st42" d="M1138.9,384.8c-26.7,0.1-53.4-0.2-80.2,0.2c-10.4,0.2-20.8-0.2-31.2-0.1c-46.8,0.8-93.6,0.6-140.4,0.9
		c-28.7,0.2-57.5,1.1-86.2,0.8c0.7-3,2.5-0.3,3.2-1.3c1-0.1,0.4-1.1,0.5-0.5c0,0,0,0.1-0.1,0.1c-1.7-0.2-3.7,2-5-1.1
		c4.2,0,8.4-0.1,12.7-0.1c-0.6,3.2-2.7,0.5-3.8,1.7c-0.5,0.1,0,0.5,0,0.5c3.3-2.1,7.1-0.1,10.4-2.1c7-0.1,13.9-0.1,20.9-0.2
		c55.1-1.6,110.2-0.1,165.3-1.1c54.8-1,109.7-0.5,164.5-0.9c0.5,0,1,0.1,1.5,0.1c0,1,0,2,0,3
		C1160.2,384.8,1149.6,384.8,1138.9,384.8z"/>
	<path class="st43" d="M799.4,383.8c1.7,1.9,3.9,0.2,5.9,1.3c-1.4,1.4-3.2-0.2-4.4,1.6c-75.6,0.7-151.2,1.4-226.8,2.1c0-1,0-2,0-3
		c11.4-0.1,22.9,0.1,34.3-0.2c43.1-1.2,86.2-0.2,129.2-1.1C758.2,384,778.8,383.8,799.4,383.8z"/>
	<path class="st37" d="M982.8,17.4c-0.8-0.7-2.1-0.7-2.1-2.6c0.5,0,0.9,0,1.4,0c2.8-0.7,5.6-0.7,8.4,0c34-1.7,68.1-0.6,102.1-1
		c11-0.2,22-0.6,32.9-0.7c15.1-0.2,30.3-0.1,45.4-0.2c0,1,0,2,0,3c-26.4,1.5-52.8,0.8-79.3,1c-22.3,0.2-44.7,0-67,0.2
		c-12.5,0.1-25,0.5-37.4,0.7C985.7,17.7,984.3,17.5,982.8,17.4z"/>
	<path class="st39" d="M1004.6-57c0.8-3.4,2.9-2,4.4-2c33.7-0.1,67.3-0.1,101-0.1c1.4,0,3,0.6,4.3-0.9c18.9,0,37.8-0.1,56.7-0.1
		c0,1,0,2,0,3c-9.1,0.1-18.2-0.2-27.2,0.3c-13.6,0.7-27.2,0-40.9,0.4c-30.4,0.7-60.8,0.2-91.3,0.2
		C1009.3-56.3,1006.9-56.8,1004.6-57z"/>
	<path class="st35" d="M783.7,433.7c-0.2-1.6-0.6-3-2.1-2.5c-1.8,0.6-2.6-0.8-2.9-2.7c-0.4-2.4,1-2.4,2.2-2.9c2.9-1,2.5-4.4,2.8-7.3
		c0.2-1.7,0.4-3.8,2.1-3c2,1,5.4-2.4,6,3c0.2,1.9,0,4-1.8,4.2c-4.4,0.4-4.4,3.4-2.9,7.8c0.3,1,0.2,2.3,0.3,3.4
		C786.2,433.7,785,433.7,783.7,433.7z"/>
	<path class="st44" d="M623.2,163.7c1.5,0.7,3.8-1.4,4.6,2.1c-17.9,0-35.8,0-53.7-0.1c0-0.7,0-1.3,0-2
		C590.5,163.8,606.8,163.7,623.2,163.7z"/>
	<path class="st35" d="M767.3,433.7c0.1-0.3,0.2-0.6,0.3-0.9c0.8-1.5,0-5,2-4.5c2.5,0.6,0.1,3.6,0.7,5.4
		C769.3,433.7,768.3,433.7,767.3,433.7z"/>
	<path class="st45" d="M1159.7,210.1c-0.1,1.8-0.8,2.7-1.9,2.7c-1.4-0.1-2.4-0.9-2.5-2.9c-0.1-1.2,0.4-2.6,1.4-2.5
		C1158,207.4,1159.1,208.6,1159.7,210.1z"/>
	<path class="st44" d="M629.3,165.9c0-0.5-0.2-1.3-0.1-1.4c1.8-1.6,8.7-0.7,10.5,1.4C636.3,165.9,632.8,165.9,629.3,165.9z"/>
	<path class="st39" d="M985.1-56.2c-1.4-1.5-3.1-0.8-4.7-0.9c-7.7-0.1-15.3,0-23.1,0c0.4-2.7,1.6-1.9,2.4-1.9
		c13.7-0.1,27.3-0.1,41,0c0.9,0,2.9-1.2,2.3,2.1C997.1-55.3,991.1-56.7,985.1-56.2z"/>
	<path class="st41" d="M990.5,14.8c-2.8,0-5.6,0-8.4,0C984.9,13.5,987.7,13.5,990.5,14.8z"/>
	<path class="st43" d="M818.8,383.8c-0.3,2-1.5,1.9-2.6,1.9c-2.8,0-5.6,0-8.8,0c1.6-1.9,3.5,0,4.6-2
		C814.3,383.7,816.6,383.8,818.8,383.8z"/>
	<path class="st39" d="M950-59.2c1.8,0.1,3.6,0.2,5.5,0.3c-0.5,2-1.4,1.7-2.3,1.7c-5.2,0-10.4,0-15.6,0c-0.9,0-2.2,0.4-1.6-2
		C940.6-59.1,945.3-59.2,950-59.2z"/>
	<path class="st46" d="M1101.6-93.1c-0.1,1.2-0.4,1.9-1.1,1.6c-0.9-0.4-2-0.6-2.2-2.1c-0.1-0.8,0.6-1.3,1.3-1.3
		C1100.6-95,1101.3-94.3,1101.6-93.1z"/>
	<path class="st33" d="M888.7,142.2c-0.3,2.5,1,3.7,1.8,5.3c1.3,2.4,2.1,4.7,0.2,7.6c-1.7,2.6-3.1,2.6-5,0.6c-1-1-2.4-1.2-3.3-2.3
		c-1.8-2.3-3.3-1.4-4.9,0.4c-3.8,4.1-5.6,3.7-7.8-1.9c-1.1-2.8-1.9-3.6-4.5-2.6c-3.4,1.4-6.4,3-8.5,7.1c-1,2-2.5,2.4-4.3,2.4
		c-1.9,0-3.3-1.1-3.9-3.1c-0.7-2.6,1.6-3.9,2.5-4.1c4.1-0.6,5.9-7.2,10.4-6.7c0.7,0.1,1.2-1.5,1.5-2.6c1-3.3,5.4-5.7,7.7-4.1
		c1.6,1.1,2.8,2.9,1.9,5.7c-0.4,1.2-1.1,2.9-0.2,3.7c1.3,1.1,1.5,8.7,4.9,1.8c0.8-1.7,3.1-3,4.4-5c1.4-2.1,3.5-3.8,0.7-6.8
		c-1.1-1.2,0.2-2.4,0.8-3.2c0.9-1.1,2.1-3,3.1-1.3c1.6,2.7,3.1,0.9,4.7,0.4c0.5-0.2,0.9-0.5,1.4-0.8c1.9-1.1,4.8-1.9,5.5-0.2
		c0.9,2,0.2,5.6-0.3,8.4c-0.5,2.8-2.5,4.4-4.3,5.1C891.4,146.5,890.8,142.4,888.7,142.2z"/>
	<path class="st33" d="M920.5,98.8c-2.6,2.5-4.7,4.6-6.9,6.7c-0.4,0.4-0.5,1.1-0.7,1.7c-0.3,1.1,1.4,4-1.1,3.2
		c-1.4-0.4-3.1-2-2.2-4.8c0.8-2.4,0.3-3.4-1.5-4.5c-1.7-1-1.8-4-1.1-5.7c1-2.1,2,0.5,3,1.1c1.6,1,3.2,3.4,3.9-1.2
		c0.2-1.1,1.1-1.1,1.9-0.9c5.4,1.9,10.7,3.7,16.1,5.5c2,0.7,2,3.2,2.6,5.1c0.5,1.5-0.8,1.8-1.7,1.6c-1.6-0.4-3.3-0.7-4.6-1.4
		c-2.2-1.3-3.8-1.7-6.2-0.8C919.7,105.2,920.8,101.4,920.5,98.8z"/>
	<path class="st33" d="M918.8,161.9c-1-0.1-2-0.1-3-0.2c-4-2.9-5.7-7.7-4.5-13.1c1.2-5.7,5.1-9.6,9.3-9.4c4.4,0.2,6.7,2.6,7.6,8.5
		c-2.3-2.4-3.9-5.1-6.9-5.2c-3.5,0-6.6,1.4-7.5,5.1c-1.1,4.5,0.4,10.1,3.3,12.1C917.9,160.2,918.7,160.4,918.8,161.9z"/>
	<path class="st33" d="M969,95.9c-0.7,6.9,3.1,6.5,6.1,7.3c-0.4,1.7-0.8,3-1.1,4.4c-0.4,1.4-1.2,2.3-2.3,2c-3.4-0.9-3.7-5.7-5.6-8.5
		C964.7,99.2,967,97.3,969,95.9z"/>
	<path class="st33" d="M951,104.2c-0.1-7.4,2.3-8.8,5.9-8.4c2.1,0.2,4.2,0,6.3,0.2c0.8,0,1.5,0.6,1.5,1.8s-0.7,1.6-1.5,1.9
		c-0.1,0-0.2,0.1-0.4,0.1C958.8,100.2,954.5,98,951,104.2z"/>
	<path class="st33" d="M922.6,161.5c-0.3,0.1-0.6,0.2-0.8,0.2c0-2.5,2.1-3.6,2.3-6.1s0.8-5-1.2-6.6c-1.4-1.2-3-1.5-4.5,0.3
		c-2,2.5-0.7,4.7,0.2,7.2c-1.8-1.7-3.6-3.3-2.3-7c1.4-4.1,3.6-5.5,6.2-3.6C927.5,149.6,927.5,158.3,922.6,161.5z"/>
	<path class="st33" d="M989.3,98.5c3.4-3.2,10.6-2.2,11.8,1.4c0.5,1.3,0.7,2.6,0,3.7c-0.7,1.2-1.6,0.4-2.4,0.1
		c-0.8-0.3-1.8-0.7-2.3-1.5C994.7,99,992.1,98.7,989.3,98.5z"/>
	<path class="st33" d="M906.9,146.3c0.8,1.6,2.1,3.4,2.7,5.5c0.5,1.8-0.4,3.6-1.6,4.6c-1.8,1.4-3.6,0-3.5-2.9c0-1,0-1.9-0.3-2.8
		C903.1,148.2,904.3,146.1,906.9,146.3z"/>
	<path class="st33" d="M925.7,120.4c-1.3,0.5-2.3,1-3.4,1.4c-1,0.4-2,0.8-2.2,2.3c-0.3,1.8,1.2,1.8,1.9,2.5c0.6,0.6,2,0.4,1.4,2.1
		c-0.5,1.4-1.6,1.4-2.6,0.9c-1.6-0.8-2-2.7-2.4-4.7c-0.4-1.9,0.1-3.4,1.5-3.9C921.7,120.2,923.1,113.6,925.7,120.4z"/>
	<path class="st33" d="M944.7,95.8c0.9,0.5,3.1-0.9,2.6,1.8c-0.5,3-2.8,4.5-5,5c-1.3,0.3-1.9-1.3-1.9-2.9
		C940.5,95.7,942.8,96.1,944.7,95.8z"/>
	<path class="st33" d="M822.2,155.3c3.8-2.7,6.6-3.7,9.8-2.1c0.7,0.4,1.8,0.8,1.3,2.4c-0.4,1.3-1.2,2.4-2.3,1.8
		C828.5,156,825.8,156,822.2,155.3z"/>
	<path class="st33" d="M1117.1,100.3c0.4-3.9,1-7.5,4.8-6.4c0.9,0.2,1.8,0.5,1.7,2c0,1.2-0.7,1.8-1.5,1.8
		C1120.1,97.5,1118.8,99.3,1117.1,100.3z"/>
	<path class="st33" d="M932.5,127c-1.3,1.4-2.8,0.7-4.2,0.7c-0.9,0.1-2.4,0.7-2.6-0.6c-0.2-1.4,0.3-3.3,1-4.4c1-1.4,1.7,0.5,2.3,1.2
		C930,125.2,931.9,124.6,932.5,127z"/>
	<path class="st33" d="M960.5,113c-0.1,2-0.4,3.8-1.5,3.2c-1.7-0.8-3.3-2.2-4-4.7c-0.4-1.4,0.5-1.7,1.3-1.7
		C958.3,109.9,959.8,110.8,960.5,113z"/>
	<path class="st33" d="M893.3,160.5c0.4-3.9,1-7.1,4.5-5.8c0.9,0.3,2.4-0.2,2.4,1.4c-0.1,1.5-1.3,2.9-2.7,2.4
		C895.8,158.2,894.1,156.6,893.3,160.5z"/>
	<path class="st33" d="M1026.8,99.3c-0.1,1.2-0.5,2.1-1.3,2.1c-1.3-0.1-2.4-0.8-2.8-2.6c-0.2-1.2,0.4-1.8,1.3-1.8
		C1025.2,97,1026.4,97.5,1026.8,99.3z"/>
	<path class="st33" d="M936.1,113.3c0.3-1.6,1.4-1.8,2.3-1.7c1,0.1,1.9,1.1,1.6,2.7c-0.2,1.3-1.1,1.6-2,1.5
		C936.9,115.6,936.2,114.9,936.1,113.3z"/>
	<path class="st33" d="M941.8,128.2c-0.8-2.8-1.5-4.6-3-5.6c-0.6-0.4-1.4-1.2-0.8-2.2c0.6-1,1.6-0.7,2.2,0.3
		C941.5,122.5,942.3,124.6,941.8,128.2z"/>
	<path class="st33" d="M660.5,157.9c2.3-1.6,4.6-1.2,7.2,0.5C665,160.2,662.7,158.5,660.5,157.9z"/>
	<path class="st33" d="M1113.9,151.8c-0.4,1.2-1.2,1.8-2.1,1.6s-2.3-0.6-2.2-2.2c0.1-1.7,1.5-1.4,2.4-1.4
		C1113,149.9,1113.8,150.3,1113.9,151.8z"/>
	<path class="st33" d="M1085.8,100.7c0,1.2-0.4,1.9-1.3,1.9c-0.7,0-1.3-0.3-1.3-1.3c-0.1-1.4,0.5-2.2,1.5-2.3
		C1085.4,99.1,1085.8,99.7,1085.8,100.7z"/>
	<path class="st33" d="M927.9,157.1c-1.1-1.3,0.1-2.1,0.4-3c0.4-1.2-1.7-3.4,0.5-3.3c1.5,0.1,0.3,2.5,0.4,3.8
		C929.3,155.7,929.1,157,927.9,157.1z"/>
	<path class="st33" d="M1145.6,95.7c-0.8-0.1-1.4-0.5-1.3-1.8c0.1-1.1,0.6-1.8,1.5-1.7c0.6,0.1,1,0.8,1.1,1.6
		C1147,95.2,1146.4,95.6,1145.6,95.7z"/>
	<path class="st33" d="M1147.7,152.3c-1.4,0.2-2.9,1.4-4.1-0.7c-0.1-0.2,0-0.8,0.1-0.9C1145.3,149.9,1146.5,151,1147.7,152.3z"/>
	<path class="st33" d="M1129.6,131.5c-0.4-2.3-0.9-3.9,0.4-5.2c0.2-0.2,0.9,0,0.9,0.2C1131.2,128.3,1130.7,129.7,1129.6,131.5z"/>
	<path class="st33" d="M946.6,112.9c0.7,0.1,1.6-0.1,1.6,1.3c0,0.9-0.6,1.4-1.3,1.5c-0.8,0.1-1.5-0.4-1.6-1.5
		C945.2,113.1,945.9,112.9,946.6,112.9z"/>
	<path class="st33" d="M1091.7,103c0.6,0,1.3,0.1,1.4,1.2c0.1,1-0.4,1.5-1.1,1.5c-0.6,0.1-1.3-0.1-1.4-1.2
		C1090.5,103.5,1091,103.1,1091.7,103z"/>
	<path class="st33" d="M1135.6,107.5c0.7,0.3,1,1.1,0.9,1.9c-0.1,1-0.7,1.3-1.4,1.3c-0.6,0-1-0.3-0.8-1.2
		C1134.4,108.6,1134.7,107.7,1135.6,107.5z"/>
	<path class="st33" d="M1032.7,139.6c0,0.9-0.4,1.6-1,1.8c-0.7,0.2-1.2-0.3-1.4-1.2c-0.2-1,0.4-1.4,1-1.7
		C1032,138.2,1032.4,138.7,1032.7,139.6z"/>
	<path class="st33" d="M951.9,108c0.5,0.1,1,0.4,1,1.2c0,1-0.4,1.5-1.2,1.4c-0.5-0.1-1-0.4-1.1-1.1
		C950.7,108.5,951.2,108.1,951.9,108z"/>
	<path class="st33" d="M771.8,161.9c0.2-1.4-0.2-3,0.9-4.2C773.1,159.3,774,160.9,771.8,161.9C771.7,161.9,771.8,161.9,771.8,161.9z
		"/>
	<path class="st35" d="M801.5,419.7c-0.6,2-1.7,3.6-3.6,3.3c-1.3-0.2-2.6-1.6-2.4-3.3c0.3-3.1,2.7-2.1,4.2-2.7
		C800.8,416.6,801.5,417.9,801.5,419.7z"/>
	<path class="st35" d="M813.8,423.5c-2.3,2.3-3.9,3-5.6,3c-1,0-2.5-0.4-2.4-2.2c0.1-1.5,1.2-2.6,2.4-2.5
		C809.8,422.1,811.4,422.8,813.8,423.5z"/>
	<path class="st35" d="M775.7,411.3c1-0.2,1.3,0.6,1.2,1.5c-0.2,2.2-0.9,4.3-2.2,5.3c-0.8,0.7-1.9-1.1-1.9-2.4
		C772.7,413.1,774.8,412.7,775.7,411.3z"/>
</g>
</svg>
