<?xml version="1.0" encoding="utf-8"?>
<!-- Generator: Adobe Illustrator 25.2.1, SVG Export Plug-In . SVG Version: 6.00 Build 0)  -->
<svg version="1.1" id="Camada_1" xmlns="http://www.w3.org/2000/svg" xmlns:xlink="http://www.w3.org/1999/xlink" x="0px" y="0px"
	 viewBox="0 0 204.1 204.1" style="enable-background:new 0 0 204.1 204.1;" xml:space="preserve">
<style type="text/css">
	.st0{clip-path:url(#SVGID_2_);}
	.st1{clip-path:url(#SVGID_4_);}
	.st2{fill:#432918;stroke:#000000;stroke-width:0.5443;stroke-miterlimit:10;}
	.st3{clip-path:url(#SVGID_6_);fill:#FFFFFF;stroke:#000000;stroke-width:0.9181;stroke-linecap:round;stroke-miterlimit:10;}
	.st4{fill:#E3C7AB;stroke:#000000;stroke-width:0.9571;stroke-linecap:round;stroke-miterlimit:10;}
	.st5{clip-path:url(#SVGID_8_);fill:none;stroke:#E30613;stroke-width:0.8372;stroke-miterlimit:10;}
	.st6{clip-path:url(#SVGID_10_);fill:none;stroke:#E30613;stroke-width:0.8714;stroke-miterlimit:10;}
	.st7{clip-path:url(#SVGID_12_);fill:none;stroke:#E30613;stroke-width:0.7787;stroke-miterlimit:10;}
	.st8{clip-path:url(#SVGID_14_);fill:none;stroke:#E30613;stroke-width:0.9633;stroke-miterlimit:10;}
	.st9{clip-path:url(#SVGID_16_);fill:none;stroke:#E30613;stroke-width:0.9633;stroke-miterlimit:10;}
	.st10{display:none;}
	.st11{display:inline;fill:#13110C;}
	.st12{display:inline;}
	.st13{fill:none;stroke:#000000;stroke-width:0.9608;stroke-miterlimit:10;}
	.st14{display:inline;fill:none;stroke:#000000;stroke-width:0.9608;stroke-miterlimit:10;}
	.st15{fill:none;stroke:#000000;stroke-width:0.7607;stroke-miterlimit:10;}
	.st16{fill:none;stroke:#13110C;stroke-width:0.5443;stroke-miterlimit:10;}
	.st17{fill:#13110C;}
	.st18{fill:none;stroke:#13110C;stroke-width:0.677;stroke-miterlimit:10;}
	.st19{opacity:0.3;}
	
		.st20{fill:none;stroke:#000000;stroke-width:0.1573;stroke-linecap:round;stroke-linejoin:round;stroke-dasharray:8.6145,4.3073,8.6145,4.3073;}
	
		.st21{fill:none;stroke:#000000;stroke-width:0.1573;stroke-linecap:round;stroke-linejoin:round;stroke-miterlimit:3.9998;stroke-dasharray:8.6147,4.3074,8.6147,4.3074;}
	.st22{fill:none;}
	.st23{fill:#432918;stroke:#000000;stroke-width:0.5443;stroke-linecap:round;stroke-linejoin:round;stroke-miterlimit:10;}
	.st24{fill:#BE1622;}
	.st25{fill:#E3C7AB;stroke:#000000;stroke-width:0.5443;stroke-miterlimit:10;}
	.st26{display:inline;fill:#DADADA;}
	.st27{display:inline;fill:#D9D9D9;}
	.st28{display:inline;fill:#DEDEDE;}
	.st29{display:inline;fill:#D8D8D8;}
	.st30{display:inline;fill:#DDDDDD;}
	.st31{display:inline;fill:#E0E0E0;}
	.st32{display:inline;fill:#DCDCDC;}
	.st33{display:inline;fill:#DBDCDC;}
	.st34{display:inline;fill:#D7D8D7;}
	.st35{display:inline;fill:#9B9A9A;}
	.st36{display:inline;fill:#979797;}
	.st37{display:inline;fill:#959595;}
	.st38{display:inline;fill:#9D9D9D;}
	.st39{display:inline;fill:#A1A1A1;}
	.st40{display:inline;fill:#9F9F9F;}
	.st41{display:inline;fill:#A2A2A1;}
	.st42{display:inline;fill:#9A9A9A;}
	.st43{display:inline;fill:#999999;}
	.st44{display:inline;fill:#8F8F8F;}
	.st45{display:inline;fill:#A8A8A7;}
</style>
<g>
	<g>
		<g>
			<g>
				<g>
					<g>
						<g>
							<defs>
								
									<ellipse id="SVGID_1_" transform="matrix(0.987 -0.1606 0.1606 0.987 -14.8737 16.3974)" cx="94" cy="100.2" rx="101.9" ry="99.8"/>
							</defs>
							<clipPath id="SVGID_2_">
								<use xlink:href="#SVGID_1_"  style="overflow:visible;"/>
							</clipPath>
							<g class="st0">
								<g>
									<g>
										<g>
											<g>
												<defs>
													
														<ellipse id="SVGID_3_" transform="matrix(0.9946 -0.1036 0.1036 0.9946 -10.0455 10.6556)" cx="97.6" cy="102.1" rx="99.5" ry="99.9"/>
												</defs>
												<clipPath id="SVGID_4_">
													<use xlink:href="#SVGID_3_"  style="overflow:visible;"/>
												</clipPath>
												<g class="st1">
													<path class="st2" d="M205.1,111.4c-0.3,0-0.6,0.1-0.9,0.1c-6.9,3-20.5,0.9-26.5-6.7c-2.5-3.2-5.3-8.1-8.1-13.8
														c0.1,3.2,0,6.1-0.3,8.5c-0.9,8.4-8.4,17.6-18.5,21.4c-3.9,1.5-18.4,4.8-32.4,10.2c-9,3.5-19.9,5.2-30,5.5
														c-14.7,0.2-27.1,2.2-35.4,0.7C46.6,136,34.1,134,28,125.9c-0.4,1.5-0.9,2.9-1.2,4.2c-2.7,7.2-10.8,12.8-17.9,14.3
														c0.7,7,7.7,16,15.6,8.5c11.9-11.5,22.4,0.5,9.3,5.7c-21.9,8.6,23.7,13.6,34.4,14c10.2,0.4,7.8,3.4,23.4,3.4
														c15.6,0.1,63.9-4.7,83.6-18.4c19.6-13.5,21.1-12.9,12.2-20.8c-8.9-8.2-10.7-17.1,11.4-9.8
														C205.1,129,212.4,114.7,205.1,111.4z"/>
												</g>
											</g>
										</g>
									</g>
								</g>
							</g>
						</g>
					</g>
				</g>
			</g>
			<g>
				<g>
					<g>
						<g>
							<defs>
								
									<ellipse id="SVGID_5_" transform="matrix(0.987 -0.1606 0.1606 0.987 -14.8737 16.3974)" cx="94" cy="100.2" rx="101.9" ry="99.8"/>
							</defs>
							<clipPath id="SVGID_6_">
								<use xlink:href="#SVGID_5_"  style="overflow:visible;"/>
							</clipPath>
							<path class="st3" d="M160,157.8c-5.2-10.6-17.1-21.5-23.2-26.8c-2.9-1.5-8.6-3-8.6-3l-58.5,10.4l-6.8,5.7
								c0,0-18.2,23.1-15,33.4c0.3,0.3,1,0.5,1.6,0.6c0.2,0.1,0.4,0.2,0.6,0.2c4,0.7,11.4-0.1,15.8-0.7c0.2,0,0.5,0,0.7-0.2
								c0.2,0,0.5,0,0.8-0.2c1.3-0.2,2-6.6,2-6.6l3.8,30c0,0,26.8,2.2,36.3,0.6c9.6-1.7,37.2-13.4,37.2-13.4l-9.1-31.9
								c0,0,3.7,7.7,3.9,7.6c0.3-0.1,0.8-0.3,1.3-0.4c2.8-0.9,8.9-2.6,13-3.9c1.3-0.4,2.5-0.9,3.3-1.1
								C160.2,158,160.6,157.8,160,157.8z"/>
						</g>
					</g>
				</g>
			</g>
		</g>
	</g>
	<path class="st4" d="M141.7,28.7c-10.8-7.5-29.9-6.8-48.6-2.2c-4.5,1-7.5-0.2-9.6-2.7c-1.6,3.8-4.7,6.7-9.8,7.2
		C47.9,33.6,30.8,41.5,32.1,61c0.1,3.1,0.1,6.4,0.1,9.7c0.3,19.8-0.3,43.6-3.5,56.9c6,8,18.6,9.8,25,10.9c8.2,1.5,20.7,0,35.5-0.3
		c10.1-0.2,20.9-2.1,30-5.8c13.8-5.7,28.2-9.8,32.1-11.4c10-3.9,17.4-13.2,18.1-21.6c0.3-2.5,0.2-5.5,0.2-8.4
		c-7.3-14.8-14.9-35.7-20.1-51.4C148.3,35,145.4,31.4,141.7,28.7z"/>
	<g>
		<g>
			<g>
				<g>
					<g>
						<g>
							<defs>
								<path id="SVGID_7_" d="M62.8,144.8c0,0-18.3,22.4-15.1,32.3c3.4,2.5,21.8-0.5,21.8-0.5l4.2,21.6c-1.5,0.1,18.6,2.5,30.4,1
									c10.7-1.3,40.6-12.6,40.6-12.6l-3.5-23.4c0,0,22.3-6.3,18.9-6.1c-7.2-14.1-25.2-26.5-25.2-26.5l-65,8.4L62.8,144.8z"/>
							</defs>
							<clipPath id="SVGID_8_">
								<use xlink:href="#SVGID_7_"  style="overflow:visible;"/>
							</clipPath>
							<path class="st5" d="M52.7,159.3c0,0,60.5,0.8,97.6-14.9"/>
						</g>
					</g>
				</g>
			</g>
		</g>
		<g>
			<g>
				<g>
					<g>
						<g>
							<defs>
								<path id="SVGID_9_" d="M62.8,144.8c0,0-18.3,22.4-15.1,32.3c3.4,2.5,21.8-0.5,21.8-0.5l4.2,21.6c-1.5,0.1,18.6,2.5,30.4,1
									c10.7-1.3,40.6-12.6,40.6-12.6l-3.5-23.4c0,0,22.3-6.3,18.9-6.1c-7.2-14.1-25.2-26.5-25.2-26.5l-65,8.4L62.8,144.8z"/>
							</defs>
							<clipPath id="SVGID_10_">
								<use xlink:href="#SVGID_9_"  style="overflow:visible;"/>
							</clipPath>
							<path class="st6" d="M70.5,173.4c0,0,28.7,5.6,69.1-10.6"/>
						</g>
					</g>
				</g>
			</g>
		</g>
		<g>
			<g>
				<g>
					<g>
						<g>
							<defs>
								<path id="SVGID_11_" d="M62.8,144.8c0,0-18.3,22.4-15.1,32.3c3.4,2.5,21.8-0.5,21.8-0.5l4.2,21.6c-1.5,0.1,18.6,2.5,30.4,1
									c10.7-1.3,40.6-12.6,40.6-12.6l-3.5-23.4c0,0,22.3-6.3,18.9-6.1c-7.2-14.1-25.2-26.5-25.2-26.5l-65,8.4L62.8,144.8z"/>
							</defs>
							<clipPath id="SVGID_12_">
								<use xlink:href="#SVGID_11_"  style="overflow:visible;"/>
							</clipPath>
							<path class="st7" d="M71.6,187.9c0,0,48.7,4.1,71.3-12.3"/>
						</g>
					</g>
				</g>
			</g>
		</g>
		<g>
			<g>
				<g>
					<g>
						<g>
							<defs>
								<path id="SVGID_13_" d="M62.8,144.8c0,0-18.3,22.4-15.1,32.3c3.4,2.5,21.8-0.5,21.8-0.5l4.2,21.6c-1.5,0.1,18.6,2.5,30.4,1
									c10.7-1.3,40.6-12.6,40.6-12.6l-3.5-23.4c0,0,22.3-6.3,18.9-6.1c-7.2-14.1-25.2-26.5-25.2-26.5l-65,8.4L62.8,144.8z"/>
							</defs>
							<clipPath id="SVGID_14_">
								<use xlink:href="#SVGID_13_"  style="overflow:visible;"/>
							</clipPath>
							<path class="st8" d="M73.2,197.1c20.3,1.4,26.6,0.9,42.5-1.8c19.1-4.7,35.3-13.9,30.9-12"/>
						</g>
					</g>
				</g>
			</g>
		</g>
		<g>
			<g>
				<g>
					<g>
						<g>
							<defs>
								<path id="SVGID_15_" d="M62.8,144.8c0,0-18.3,22.4-15.1,32.3c3.4,2.5,21.8-0.5,21.8-0.5l4.2,21.6c-1.5,0.1,18.6,2.5,30.4,1
									c10.7-1.3,40.6-12.6,40.6-12.6l-3.5-23.4c0,0,22.3-6.3,18.9-6.1c-7.2-14.1-25.2-26.5-25.2-26.5l-65,8.4L62.8,144.8z"/>
							</defs>
							<clipPath id="SVGID_16_">
								<use xlink:href="#SVGID_15_"  style="overflow:visible;"/>
							</clipPath>
							<path class="st9" d="M137.1,190.2"/>
						</g>
					</g>
				</g>
			</g>
		</g>
	</g>
	<g>
		<g id="tata_olhos_abertos_3_" class="st10">
			<path class="st11" d="M127,75.1c-0.4-2.3,1.3-4.4,3.6-4.8c2.4-0.4,4.6,1.2,5,3.4c0.4,2.3-1.3,4.4-3.6,4.8
				C129.5,79,127.3,77.4,127,75.1z"/>
			<g class="st12">
				<path class="st13" d="M50.9,84.9c-0.9,0.4-1.8,0.2-2.4-0.6"/>
				<path class="st13" d="M50.4,87.1c-0.8,0.5-1.7,0.4-2.3-0.3"/>
			</g>
			<path class="st14" d="M134.1,72c1,0,1.7-0.4,2-1.3"/>
			<path class="st14" d="M135.3,74.1c1,0.2,1.8-0.2,2.1-1"/>
			<path class="st11" d="M50.2,87.7c-0.4-2.3,1.3-4.4,3.6-4.8c2.4-0.4,4.6,1.2,5,3.4c0.4,2.3-1.3,4.4-3.6,4.8
				C52.9,91.5,50.5,89.9,50.2,87.7z"/>
		</g>
		<g id="tata_olhos_fechados_3_">
			<path class="st13" d="M50,87.2c0.4-3.2,6.7-4.8,13.9-3.5"/>
			<g>
				<path class="st13" d="M140.6,72.3c-1.5-2.9-7.8-2.3-14.3,1"/>
				<g>
					<path class="st13" d="M137.7,71.1c0.5-0.9,0.5-1.7-0.1-2.5"/>
					<path class="st13" d="M140.1,71c0.7-0.8,0.7-1.6,0.3-2.4"/>
				</g>
			</g>
			<g>
				<path class="st15" d="M51.5,84.6c-0.3-0.9,0.1-1.8,0.8-2.4"/>
				<path class="st15" d="M49.9,86c-0.7-0.8-0.8-1.6-0.4-2.5"/>
			</g>
		</g>
		<path class="st16" d="M92.7,109.3c0,0,4.2-4.4,6.7-4.4c1.9,0,3.8,6.1,3.8,6.1"/>
		<path id="sobramc_d_6_" class="st17" d="M135.2,59.8c2.4,0.3,4.9,0.8,7.5,1.2c3.4,0.4-1.6-1.6-1.6-1.6c-4-1.5-4.4-1.5-5.4-1.6
			c-5.3,0-10.8,0.6-11.9,2.2c0,0.1,0.9,1.3,2.1,1C128.6,60.6,133.5,59.6,135.2,59.8z"/>
		<path id="sobramc_d_5_" class="st17" d="M53.4,73.2c-2.1,1.1-4.2,2.7-6.3,4C44.2,78.9,48,75,48,75c3.2-3.1,3.6-3.1,4.3-3.5
			c4.8-2,10.2-3.5,11.8-2.6c0,0.1-0.4,1.6-1.6,1.7C59.8,71.4,54.8,72.4,53.4,73.2z"/>
		<path class="st18" d="M90,121.3c2.5,4.4,12.6,4.6,15.8,0.2"/>
		<g>
			<g class="st19">
				<path class="st20" d="M151.3,98.3c0.7,4.4-2.5,8.6-7,9.3s-8.9-2.2-9.6-6.6c-0.7-4.3,2.5-8.6,7-9.3
					C146.3,91,150.6,93.9,151.3,98.3z"/>
			</g>
			<g class="st19">
				<ellipse transform="matrix(0.987 -0.1606 0.1606 0.987 -17.5401 8.9571)" class="st21" cx="46.6" cy="113" rx="8.4" ry="8"/>
			</g>
		</g>
	</g>
	<path class="st22" d="M113,205.6c-2,0.3-4.1,0.6-6.1,0.7c-57.6,6-109.1-36-115.2-93.4C-11.1,85.1-3,57.7,14.6,36S57.5,0.6,85.3-2.3
		c57.6-5.9,109.2,36,115.3,93.5C206.3,146.8,167.4,196.7,113,205.6z M80.4,6.5C57.1,10.4,36.1,22.5,21,41
		C4.7,61.2-2.8,86.3-0.1,112.1c5.4,53.1,53.2,91.8,106.3,86.3c1.9-0.2,3.8-0.4,5.6-0.7c50.2-8.2,86-54.3,80.7-105.6
		C186.9,39,139.2,0.3,86,5.7C84.3,6,82.4,6.2,80.4,6.5z"/>
	<g>
		<path class="st23" d="M193.5,101.5c-4.8-4.3-13-13.7-14.4-23.3c-1-7.4-3.1-14.6-6.4-21.4c-8.5-33-27.1-44.7-36.7-47
			c-27.8-6.6,16.4,8.1,18.5,17.3c3.1,13.9,7,58.2,11.3,67l0,0c2.7,5.8,5.4,10.7,8.1,13.8c6.1,7.7,19.6,9.9,26.5,6.7
			C205.6,112.4,202.2,109.5,193.5,101.5z"/>
		<path class="st23" d="M159,27.8c-2.5-11.3-22.8-22.8-45.5-22.8c-10.9,0.1-18.8-0.3-32.6,2.3c-0.3,4.6,0.1,13.7,3.9,18.6
			c2.1,2.5,5.1,3.9,9.6,2.7c18.7-4.4,37.7-4.8,48.4,2.8c3.8,2.7,6.5,6.4,7.9,11.3c5.2,15.9,13.6,45.5,17.9,51.8l2.1,2.1
			c16.2,14.5,5.3-3.2,4.1-5.3C166.8,74.1,161.9,40.4,159,27.8z"/>
		<path class="st23" d="M8.3,132.8c3.2-5.6,8-17.1,6.2-26.6c-1.4-7.4-1.7-14.8-0.7-22.3c3.8-26.7-1.6-37.4,20-56.3
			c24.1-15.1-13.1,12.8-12,22.3c1.5,14.2,4.5,47.4,10.5,67.1l0,0c-0.7,6.4-1.8,11.9-3.3,15.7c-3.4,9.3-15.4,15.6-22.9,14.8
			C0.2,147,2.4,143.1,8.3,132.8z"/>
		<path class="st23" d="M17.9,53C17,43.6,33.4,21.2,54.8,14.2C65.2,10.9,72.5,8,86.5,6c1.8,4.2,4.3,13,2.2,18.8
			c-1.2,3-3.5,5.3-8.3,5.6c-19.2,1.8-37.3,7.4-45,18c-2.7,3.8-4.2,8.2-3.9,13.2c0.2,16.7,2.7,38.8,0.7,55.2l-0.3,2.1
			c-8.7,18-7.4,0.5-7-3.5C28.6,96.2,19.1,65.8,17.9,53z"/>
		<path class="st24" d="M158.5,66.2l-3.7-11.3l-1.1,0.2c-1.5-3.3-4-5.2-6.6-4.7l-42.2,6.9c-2.2,0.4-3.7,2.2-4.4,5l-12.9,2.2
			c-1.6-3.4-4-5.4-6.8-4.9l-42.2,6.9c-2.8,0.5-4.6,3.5-4.8,7.8l-2,0.8l0.1,11.6l3.7,2l1.2,7.4c1,6.3,4.5,10.3,8.1,9.7l42.3-6.9
			c3.6-0.6,5.6-5.5,4.6-11.8l-2.8-17.6c2.8-1,7.8-2.6,11-2.3c0,0.6,0.1,1.5,0.2,2.2l2.9,17.7c1,6.3,4.5,10.3,8.1,9.7l42.3-6.9
			c3.6-0.6,5.6-5.5,4.6-11.8l-1.4-9.1L158.5,66.2z M87.3,87.4c0.7,4.2-0.5,6.5-0.9,6.7L44.1,101c-0.5-0.1-2.4-1.9-3-6l-2.9-17.7
			c0-0.5-0.1-1.1-0.2-1.8c-0.2-3,0.7-4.9,1.1-5l42.3-6.9c0.5,0.1,2.4,1.9,3,6L87.3,87.4L87.3,87.4z M153.7,78.4
			c0.7,4.2-0.5,6.5-0.9,6.7l-42.3,6.9c-0.5-0.1-2.4-1.9-3-6l-2.9-17.7c-0.7-4.2,0.5-6.5,0.9-6.7l42.3-6.9c0.5,0.1,2.4,1.9,3,6
			L153.7,78.4L153.7,78.4z"/>
	</g>
	<path class="st25" d="M47.5,195.1c0.7,1.6,1.8,1.4,1.9,0.8c0.1,0.9,1.5,3.7,2.9,1.4c-0.2,0.9,2,4.4,3.5,1.4
		c-0.1,1.4,2.1,4.6,3.8,1.3c1.6-3.3,0.7-10.3,3.3-9.6c2.7,0.7,1.8,3.6,4.6,3.7c2.7,0,1.5-4.6,0.7-5.7c-0.6-1.1-1.8-3.4-2.3-4.4
		c-0.4-0.8-0.7-1.5-0.8-3.2c0.1-1.5,0.4-1.1,0.7-3.1c-0.2,0-12.3,1.6-16.4,0.7C47.7,184.3,46.3,192.2,47.5,195.1z"/>
	<path class="st25" d="M158.9,158.4c-0.8,0.4-15.9,4.9-16.1,5c1,1.8,2.4,4.8,2.9,6.1c0.4,0.7,0.5,2.5,0.4,3.3c0,1.4-0.2,2.2-0.4,3.5
		c-0.2,1.3-0.4,6.2,2.1,5.3c2.6-1,2.9-4.4,5.2-5.9c2.3-1.5,2,6.3,4.6,8.9c2.6,2.6,3.6-1.3,3.1-2.5c2.3,2.6,3.3-1.7,2.8-2.3
		c2.1,1.8,2.7-1.3,2.4-2.3c0.5,0.5,1.5,0.5,1.7-1.4C167.6,172.7,162.5,163.7,158.9,158.4z"/>
</g>
<g class="st10">
	<path class="st26" d="M1170.9,162.8c0,24,0,48,0,72c-1.5,2.1-3.5,1.5-5.3,1.5c-41,0-82-0.7-123,0.2c-54.2,1.2-108.3-0.1-162.5,1
		c-33.4,0.7-66.7,0-100.1,0.9c-62.5,1.8-124.9,0.3-187.4,1c-5,0.1-10.1-0.6-15.1,0.7c-1.2,0.3-2.5,0-3.5-1.3c0-24.3,0-48.6,0-73
		c1.5-2,3.5-1.5,5.3-1.5c16,0,31.9,0,47.9,0c0.7,0,1.4,0,2.1,0c3.5,0,7,0,10.6,0c33.3,0,66.6,0,100,0c18.1,0,36.2,0.2,54.3-0.2
		c10-0.2,20,0.9,30-0.6c5.3-0.8,10.8-0.3,16.3-0.3c32.7,0,65.4-0.2,98.1,0.1c10.8,0.1,21.6-1.2,32.4-1.2c39.2,0.2,78.5,0.2,117.7,0
		c10.2-0.1,20.3-1.1,30.5-0.9c15.6,0.2,31.3,0,46.9,0C1167.7,161.3,1169.6,160.8,1170.9,162.8z"/>
	<path class="st27" d="M574.1,311.7c0-23.7,0-47.3,0-71c3.4-2.1,7.1-1.4,10.6-1.4c56.8-0.3,113.6,0.5,170.4-0.4
		c34.3-0.6,68.6,0.2,102.8-0.9c46.1-1.4,92.2,0,138.2-1c11.4-0.2,22.8-0.2,34.2-0.6c20.4-0.8,40.7-0.2,61.1-0.2
		c24.9,0,49.7,0,74.6,0c1.7,0,3.5-0.5,4.9,1.5c0,23.7,0,47.3,0,71c-1.8,2.2-4,1.5-6.1,1.5c-67.1,0.1-134.2-0.4-201.4,0.2
		c-37.4,0.4-74.7,0.1-112.1,1c-33.8,0.8-67.7,0.4-101.5,0.9c-6.5,0.1-13.1,0.7-19.6,0.7c-12.8,0-25.5,0.2-38.3,0.2
		c-19.3,0-38.5-0.1-57.8,0c-13.9,0.1-27.7,0-41.6,0c-4.9,0-9.8,1.8-14.8,0.2C576.5,313.1,575.1,313.1,574.1,311.7z"/>
	<path class="st28" d="M574.1,14.9c0-23.3,0-46.6,0-70c1.1-1.7,2.7-1.5,4.2-1.5c12.4,0.1,24.8-0.1,37.2-0.2
		c6.8-0.1,13.6-0.2,20.4-0.3c11-0.2,22-0.3,33,0c10,0.3,20.1-0.7,30.1-0.4c13.7,0.5,27.5,0.1,41.2,0.1c19.9-0.1,39.7-0.1,59.6-0.2
		c42.7-0.1,85.5,0,128.2,0c19,0,38,0,57,0c6-0.4,12,0.8,18-0.7c0.7-0.2,1.4-0.3,2.1-0.3c25.5,2.1,51.1,0.5,76.6,0.9
		c7,0.1,14.1,0.7,21-0.2c9.8-1.2,19.5-0.4,29.3-0.6c11.5-0.2,23-0.2,34.6-0.1c1.6,0,3.3-0.4,4.5,1.5c0,23.3,0,46.6,0,70
		c-1,1.5-2.4,1.5-3.8,1.5c-10.4,0.4-20.9,0.3-31.3,0.5c-37,0.8-74,0.3-111,0.5c-7.4,0-14.9,0.1-22.3-0.1c-3.9-0.1-7.6,1.5-11.5,1
		c-3-0.9-6-1.6-9-0.2c-0.7,0.1-1.4,0.2-2.1,0.2c-102.5,0-205,0-307.5,0.1c-12.4,0-24.8,0.1-37.2,0.2c-16.2,0.2-32.5,0.5-48.7,0.2
		c-1.9,0-3.7,0.2-5.6,0.4C578.5,17.6,576,17.8,574.1,14.9z"/>
	<path class="st29" d="M1170.9,310.7c0,23.7,0,47.3,0,71c-1.4,2-3.2,1.5-4.9,1.5c-28.2,0-56.4,0-84.6,0c-16.6,0-33.3-0.5-49.9,0.1
		c-49.6,1.7-99.2,0.4-148.8,1c-8.5,0.1-17.1-0.5-25.6,0.1c-12.6,0.9-25.3,0.5-37.9,0.8c-2.4,0-4.7,0-7.1,0c-4.3,0-8.5,0-12.8,0
		c-15.1-0.1-30.3-0.5-45.4,0.2c-39,1.7-77.9,0-116.8,1c-19.3,0.5-38.7,0.8-58,0.8c-1.7,0-3.5,0.5-4.9-1.5c0-23.3,0-46.6,0-70
		c1.3-1.9,3.1-2.7,4.8-2.2c3.6,1,7.1,0,10.7-0.2c8.7-0.5,17.4,0.1,26,0c5.6,0,11.2-0.1,16.7-0.1c27.1-0.1,54.2,0.4,81.3-0.1
		c36.6-0.7,73.2-0.8,109.8-1c5.6,0,11.3-0.5,17-0.7c15.7-0.5,31.5-0.1,47.2-0.2c13.3-0.1,26.6,0,39.9-0.3
		c64.6-1.3,129.2-0.3,193.8-0.7c10.3-0.1,20.5-0.3,30.8-0.2c5.1,0.1,10.2-0.7,15.2-0.2C1168.6,309.9,1169.9,309.5,1170.9,310.7z"/>
	<path class="st30" d="M574.1,88.8c0-23.3,0-46.6,0-70c4-2.9,8.5-1.8,12.7-1.9c12-0.4,24-0.5,36-0.4c9.8,0.1,19.6-0.7,29.4-0.1
		c5.1,0.3,10.2-0.1,15.2-0.1c105.1,0,210.3,0,315.4,0c38.7-1.7,77.5-0.8,116.2-1c18.2-0.1,36.4-0.6,54.6-0.5c4.3,0,8.7-0.8,13-0.5
		c1.5,0.1,3-0.2,4.2,1.5c0,23.3,0,46.6,0,70c-1.3,1.8-3.1,2.1-4.8,1.9c-9.3-0.9-18.6,0.6-27.9,0.6c-21.5,0-43-0.3-64.5,0.1
		c-12.8,0.2-25.5,0.2-38.3,0.3c-12.3,0-24.6-0.3-36.8-0.1c-17.1,0.2-34.2,0.7-51.3,0.7c-41.9,0-83.8,0-125.7,0
		c-11.4,0-22.7,0.9-34,0.9c-69.4,0.2-138.8,0.1-208.2,0.1C577.6,90.3,575.6,91,574.1,88.8z"/>
	<path class="st31" d="M574.1-58.1c0-13.7,0-27.3,0-41c197.8,0,395.7,0,593.5-0.1c2.8,0,3.5,0.8,3.4,4.6c-0.2,11.5-0.1,23-0.1,34.5
		c-1.4,2-3.2,1.5-4.9,1.5c-17.3,0-34.5,0.1-51.8,0c-52.8,0-105.6,0-158.4,0c-1.7,0-3.5-0.2-5.2,0.6c-5,1-10.1,0.4-15.1,0.4
		c-4.6-0.4-9.2,0.1-13.7,0.1c-33.4,0-66.8,0-100.2,0c-22.8,0-45.7-0.1-68.5,0c-16.1,0.1-32.2,0.4-48.3,0.3
		c-16.5-0.1-33,0.5-49.5,0.2c-9.5-0.2-19,0.6-28.4,0.3c-10.8-0.3-21.5,0.3-32.3,0c-5.4-0.1-10.9,0.2-16.4,0.2
		C576.8-56.6,575.2-56.4,574.1-58.1z"/>
	<path class="st26" d="M1170.9,89.8c0,1,0,2,0,3c-1.6,3.5-3.8,4.6-6.7,3.1c-1.2-0.6-2.4-0.6-3.6-1c-1.4-0.5-2.1-0.5-2.6,1.9
		c-1.1,5-3.4,5.4-6.1,1.4c-0.4-0.6-0.7-1.5-1.4-1.2c-0.7,0.3-0.8,1.2-0.9,2c-0.3,2,0.3,4.8-1.9,5.2c-2.2,0.4-3.3-1.8-4.2-4.1
		c-1.5-3.7-3.6-5.8-7-4.3c-1.6,0.7-3.2,0-5.1-0.5c1.2,1.6,3.1,2.4,2.2,4.9c-0.5,1.6-1.7,1.6-2.9,1.6c-4.4-0.2-4.4-0.2-3.1,6.3
		c0.4-3.5,1.8-5.4,4.3-5.4c1.4,0,2.1-0.7,2.7-2.6c1-2.9,3.2-3.3,4.8-1c3,4,3.5,9.5,3.9,14.7c0.3,3.9-6.4,8.5-9,6.3
		c-3.1-2.7-5.9,1.3-8.9,0.2c-0.3-0.1-0.7,0.9-0.5,1.6c0.2,0.8,0.8,1,1.2,0.7c3-2.5,5.5,0,8.1,1.4c3.9,2.1,8.1,1.7,12.1,2.5
		c1.7,0.3,3.5,0.4,5,1.5c1.3,0.9,2.2,2.4,1.9,4.4c-0.3,1.9-1.5,2.5-2.8,2.8c-2.1,0.4-4-0.1-5.6-2c-1.1-1.3-2.4-2.4-3.6-0.8
		c-1.5,1.9,0,3.3,0.8,4.6c1.5,2.6,1.4,5-1.1,5.7c-2.3,0.7-4.1,2.1-6.1,3.4c-1.2,0.9-2.7,1.1-3.9-0.3c-1.2-1.4-0.9-3-0.1-4.5
		c0.9-1.8-0.1-2.7-1-3.8c1,5.8-2.4,11.3-8.6,14.5c0.7-0.5,1.9-1.2,3.1-1.3c1.7-0.1,2.1-2,3.1-3.2c0.5-0.6,1.1-0.4,1.8-0.2
		c5.6,2,9.8-1.2,13.4-6.6c1-1.5,1.7-3.3,3.6-2.7c1.6,0.5,2.1,2.2,2.1,4.2c0,0.7,0,1.4,0.3,1.9c0.9,1.7,2.3,2.7,3.7,3.2
		c3.2,1.1,5.1,6.8,9.3,4.3c1.4-0.9,3.1-1.3,4.6-1.9c1.6-0.7,3.2-1,4.5,0.8c0,3,0,6,0,9c-1.3,1.9-2.9,1.5-4.5,1.5
		c-11.2,0-22.4,0-33.5,0c-9.4,0-18.8-0.2-28.2,0.2c-41,1.7-81.9,0.2-122.9,0.9c-7.8,0.1-15.6-1-23.3,0.1
		c-11.5,1.6-23.1,0.5-34.6,0.7c-2-0.9-1.7-1.9-0.5-3.8c2.6-3.9,2.6-9,0-11.3c-1.3-1.1-2.7-2.7-4.4-1.1c-1.7,1.5-2.8,3.4-2.2,6.3
		c-0.1-4.1,1.2-6.5,3.8-6.5s4.7,3.2,4.7,6.9c0,3.9-2.4,5.9-3.8,8.7c-0.9,0.7-1.7,0.7-2.7,0.3c-3.2-2.1-6-4.7-6.4-10.1
		c-0.7-7.5,3-12.5,8.7-11.5c1.4,0.3,3,0,3.6,0.8c-2.9-1.2-6.3-2.5-9.8,1.1c-2.8,2.9-2.9,6.7-2.6,10.8c0.2,2.5,1.4,4.3,2.6,5.8
		c1.2,1.5,1.1,2.4-0.3,3.3c-7.2,0.7-14.4,0.2-21.6,0.2c-20.3,0.1-40.5-0.1-60.8,0.1c-7.5,0.1-15,1.1-22.6,0.9
		c-11.5-0.3-23.1,0.3-34.6,0c-0.9,0-1.7-0.3-2.5-0.6c-0.6,0-1-2.6-1.8-0.2c-2,1.4-4.2,0.8-6.2,0.8c-39-0.1-78-0.1-117,0.1
		c-8,0-16.1-0.9-24.1,0.3c-15.4,0.1-30.8,0.2-46.2,0.1c-1.1,0-2.2,0.1-3.2-1c0-0.3,0-0.7,0-1c2.5-5.2,7-6,10.6-8.7
		c1.3-1,2.7,0.2,3.8,1.3c2.1,2,4,1.8,6.1-0.3c3.5-3.4,5.1-2.6,6.4,2.8c0.3,1.2,0.6,2.3,1.6,2.3c1.7-0.1,3-1.4,4.1-3.2
		c0.8-1.3-0.2-2.1-0.8-2.9c-0.2-0.2-0.4-0.4-0.6-0.7c-1.4-1.7-2.1-3.6-0.5-5.5c1.4-1.7,2.8-0.8,3.9,0.9c2.2,3.3,4.7,5.7,8.1,6.5
		c3.5,0.8,6.9,1.2,10.2-0.6c2.2-1.2,4.1-1.3,5.8,1.2c0.9,1.2,2,2.3,3.3,2.1c5.5-0.6,11.2,0.9,16.6-2.6c-3.7-2.6-7.4-4.8-11.5-5.9
		c-3.5-1-4.3-2.6-3.9-7.4c0.1-1.2,0.3-2.3,0.4-3.5c0.2-2.4,0.6-4.7,2.5-5.7c2.1-1,3.9-0.3,5.4,1.9c0.7,1,1.3,2.2,2.5,1.8
		c1.4-0.4,1-2.1,1-3.3c0-2.5,0.5-4.7,2.5-5.5c1.6-0.6,3.1-0.2,4,1.6c1.2,2.5,1.8,5.2,0.7,8c-0.5,1.4-1.5,2.2-2.3,3.2
		c-2.6,2.9-3.1,5.4-1.6,7.4c1.6,2.1,5.5,1.9,7.2-0.6c1.2-1.9,2.2-4,3.4-5.9c1.1-1.7,1.5-4.5,3.9-2.2c2.6,2.5,3.5,5.4,2.3,8.4
		c-0.4,0.9-1.5,1.3-1.1,3.4c1.8-2.6,3.9-3.5,6.4-3.4c4.1,0.2,4.4,0.6,2.7,5.7c0.7,1,1.6,0.8,2.4,0.6c3.2-0.9,6.4-2,8.4,3.1
		c0.3,0.8,1.5,1,2.1,0.6c3.6-2.5,7.6-1.3,11.3-1.5c2.6-0.2,4.7-1.6,6.8-3.4c1.9-1.6,4.3-4,5.2,1.7c0.2,1.4,8.2,3.2,9.2,2
		c2.6-3,5.1-3.8,8.1-1.1c1.1,1,2.6,0.8,4,0.3c0.5-1.9-1-2.5-1.3-3.9c-0.4-1.6-0.3-3,0.6-4.1c1.1-1.3,2.4-1.2,3.4,0.2
		c1.4,1.9,2.8,4,3.1,6.7c0.3,2.8,1.6,3.5,3.4,3.5c2.7,0.1,5.4,0.1,8-1.8c2.5-1.8,5.3-1.2,8.1-0.9c4.4,0.4,8.9,1.5,12.9-2.6
		c1.7-1.7,3.8-1.1,5.6,0.3c2.9,2.2,5.8,4,9,0.8c0.4-0.4,1.1-0.7,1.4-0.3c2.3,3.6,5.5,0.1,8.1,1.7c1.6,1,3-1.1,3.9-3
		c0.9-1.7,0.1-3.2-0.7-4.5c-1.9-3-3.3-6.6-6.5-7.8c-1.6-0.6-3.3-2.2-3.3-4.9c0-2.4,1.6-3.2,3.1-3.7c2-0.6,4.2-0.8,5.3,2
		c1,2.4,1.8,4.1,4.2,3.4c1.5-0.4,2.4,0.8,2.2,2.9c-0.6,5.4,2.2,10.2,1.7,15.7c-0.2,1.9,1.5,1.4,2.3,1.3c2.9-0.3,5.4-2.3,8.1-2.9
		c0.2-2.1-1-1.8-1.7-2.2c-2.8-1.7-3.1-3.9-0.8-6.7c0.5-0.7,1.2-1.2,1.8-1.7c2-1.9,4.7-3.5,0.9-7c-1.3-1.2-0.8-3.3-0.2-5.1
		c1.1-2.8,2-5.7,1.8-9c-0.1-1.9,0.7-3.2,2.1-3.5c1.4-0.4,2.6,0.5,2.8,2.4c0.4,3.5,3.1,4.1,4.2,6.7c1.5,3.6,5.4,4.9,5.5,10.1
		c0,1.1,1.8,0.8,2.6,1.4c2.3,1.8,5.8,0.1,7,5.7c0.8,3.9,6.8,3.7,8.9,0.1c1.1-2,3.3-3.2,0.8-7c-2.1-3,1.3-4.1,2.9-5
		c-1.9-2-3.8-4-5.9-5.8c-2-1.8-3.1-0.9-4.3,1.2c-1.1,1.9-1.9,3.9-2.6,6.1c-0.5,1.5-1,3-2.2,4c-0.8,0.6-1.6,1.1-2.5,0.4
		c-0.9-0.8-0.9-2-0.4-3.1c0.9-2.4,1-4.7,0.3-7.2c-0.2-0.6-0.3-1.4,0-2c2-4.3,4.4-8.2,6.3-12.8c0.7-1.8,2.3-0.5,3,1
		c1.6,3.3,4,3.8,6.7,4.4c4.1,0.9,8.3,2.2,10.2,8.5c0.7,2.3,2.1,2.8,3.9,1.1c5.9-5.5,12.5-5.3,19.2-3.2c0.9,0.3,1.2,0.2,2.1-0.7
		c2.3-2.6,4.9-4.5,8.1-3.2c1.8,0.7,2.7-0.5,3.6-2.4c0.9-2.1-0.2-2.5-1.1-3.3c-1.1-0.9-1.1-2.5-1-4c0.1-1.6-0.4-2.8-1.2-4
		c-3.2-4.6-2.8-6.4,1.7-8.9c-2.8,0-5.2,1.7-7.8,2.9c-1.8,0.9-3.9,2.1-4.1-2.8c-0.1-3.6-2-0.2-3-0.8c2.9,2.6,4.7,7.6,9,6.4
		c0.9-0.2,1.5,1,1.7,2.3c0.2,2.3-0.8,3.3-2.4,3.9c0.5,0.5,1.1,0.2,1.6,0.4c2.1,0.7,4.1,1.8,3.6,5.2c-0.5,3.2-2.5,3.9-4.7,3.1
		c-1.6-0.6-3.1-0.5-4.6,0.6c-2.2,1.5-3.3,0.4-3.5-3.2c-0.4-7.7-1.7-9.7-7.4-11c-3.3-0.8-6.3-3.2-9.2-4.9c-3.1-1.8-6-2.9-9.2-2.8
		c-6.1,0.2-12.4,0.4-18.1-1.3c-4.5-1.3-8.5-0.1-12.7-0.6c-0.8-0.1-1.6-0.1-2.2,0.3c-4.4,3-9.1,1.5-13.7,2.1
		c-0.6,0.1-1.3,0.1-1.8-0.2c-5.5-3.7-11.2-2-16.9-1.8c-6.9,0.2-13.9-0.2-20.8-1.9c-2.6-0.6-2.9-2-1.3-4.6c10-1.1,20-0.5,30-0.8
		c3.8-0.1,7.7-0.4,11.5-0.4c46.6,0,93.2-0.1,139.9,0c9.3,0,18.6-0.7,28-0.5c14.6,0.2,29.3,0.2,43.9-0.1c11.1-0.2,22.3-0.1,33.4-0.3
		c28-0.4,55.9,0,83.9-0.3c7.7-0.1,15.3-1,23-0.4C1167.6,88,1169.5,87.8,1170.9,89.8z"/>
	<path class="st32" d="M771.1,91.8c2.6,3.7,6.3,2.8,9.4,2.8c6.4-0.1,12.8,3.2,19.1-0.6c3.4,3.4,8.2-2.6,11.3,3.3
		c0.5,1,2.1,1,2.8,0.2c1.9-1.9,3.5-1,5.1,0.3c1.1,0.9,1.9,0.2,3-0.3c2.9-1.3,5.6-4.7,9-1.5c0.9,0.8,1.9-0.4,2.6-1.3
		c1.8-2.4,3.4-2.2,5.2,0.1c1.4,1.8,3,2.7,5,0.7c1.7-1.7,2.8,1.4,4.5,1.4c5.6,0,11.1,0.2,16.7,0.3c0.5,0,1.2-0.4,1.4-0.1
		c2,2.9,5,2.8,7.2,4.3c2.5,1.8,4.7,3.4,7.7,3.7c3.2,0.3,6.4,7,5.7,11.2c-0.2,1.3-0.7,2.8,0.3,3.7c1.2,1.1,1.4-0.8,1.9-1.5
		c1.6-2.4,3.4-0.8,4.8-0.1c1.3,0.7,2.2,0.9,3.3-0.4c0.6-0.8,1-1.6,0.6-2.6c-0.7-1.6-1.9-2.1-3.1-2.4c-0.5-0.1-1,0.1-1.5,0.3
		c-1,0.3-2.4,1.4-2.8-0.6c-0.3-2,1-2.8,2.4-2.8c1.2,0,2.5-0.3,2.1-2.4c-0.4-2.3-1.6-1.3-2.6-0.5c-0.1,0.1-0.2,0.2-0.3,0.3
		c-0.9,0.4-9.3-7.2-9.4-8.5c-0.1-1,0.3-1.4,1-1.8c1.9-1.1,4.8-0.9,7.1,0.7c0.3,2-1.8,1.6-1.8,4.3c4.9-2,9.5-5.5,14.8-4.1
		c-0.2,2.9-2,2.8-3.7,3.2c-1.2,0.3-2.7,0.7-2.9,2.5c-0.3,2.1,1.2,3.5,2.4,3.9c2,0.7,2.4,1.3,1.3,4c-0.8,2.1-1,5,2.1,3.8
		c0.6-0.2,1.3-0.3,1.6,0.6s0,1.6-0.6,2.1c-1.2,1-1.3,2.8-1.8,4.2c-0.5,1.2-1.1,3-2.1,2.2c-3.3-2.9-6.2,0.6-9.3,0.8
		c-0.7,1.4,1.7,1.8,0.7,3.2c-0.6,0.9-1.9,0.8-2.4,0.1c-3.5-4.9-8.3,0.4-12-3c-2.3,2.7-5.7,2.2-8,4.9c-0.8,0.9-0.9,3.5-2.3,2.6
		c-1.4-0.9-3.1-2.6-3.4-4.3c-1.2-6.8-5.7-6.8-9.1-7.5c-3.2-0.6-5.8-1-7.3-5.3c-0.8-2.3-1.9-1.6-2.2,0.3c-0.5,4.3-2.1,7.3-4.9,9.5
		c-0.5,0.4-0.9,1.5-0.5,2.2c1.9,3.6,1.6,7-1.6,10.5c2.9,0.1,3.7-1.5,4.2-3.4c0.5-1.7,0.9-3.5,1.6-5c1-2.1,2-4.3,3.4-5.8
		c2.5-2.7,2.5,2.5,4.2,2.9c3.4,0.8,4.8,5.9,8.4,6.6c-0.5,0.8-0.6,1.1-0.8,1.2c-1.9,0.5-4.7-1.1-5.4,1.9c-0.6,2.8,3,2,3.8,4.7
		c-1.7,1.6-3.4,3.1-4.4,6.1c-1.2,3.8-5.7,3.5-6.4,2.2c-2-3.9-3.9-2.1-5.8-0.9c-0.7-1.5-0.2-2,0.3-2.5c0.6-0.7,1.8-1,1.3-2.5
		c-0.3-1.1-1.3-0.6-2-0.9c-2.1-0.9-4.1-2.1-6.5-2c-1.7,0.1-2.4-1.5-1.9-3.8c0.6-2.5-0.1-3.9-2-4.1c-1.4-0.1-2-1-2.2-2.7
		s-0.9-2.9-2.3-3.6c-1.5-0.7-3.1-1.5-2.3-4.6c0.4-1.4-0.5-2.2-1.5-2c-1.1,0.2-2,0.7-1.4,2.6c1,3.5-0.4,6.4-1.7,9
		c-1.4,2.9-1.5,4.3,1.3,5.3c2.9,1.1,2.6,3.1,0.4,5.1c-1.6,1.5-3.3,2.9-4.9,4.4c-0.7,0.7-1.5,1.5-1.2,2.8s1.3,1.8,2.1,1.5
		c2.6-0.9,3,1.1,2.9,3.7c-0.1,3.8-2,1.4-3.2,1.8c-3,0.9-5.6,3.3-8.9,2.7c-2.3-0.4-3.4-0.3-1.5-3.8c1.7-3.2-0.8-6.4-1.2-9.7
		c-0.3-2.4-1.1-4.5,0.6-6.6c-1.7-0.9-2.7,0.1-3.7,0.5c-1.8,0.6-3,0.5-2.7-2.7c0.2-2.2-0.5-3.6-2.2-3.8c-1.8-0.2-3.5-0.1-4.9,1.7
		c-0.6,0.7-0.2,1.6,0.3,2.1c0.8,0.8,1.6,2.1,2.4,2.2c4.5,0.5,5.4,6.3,8,9.7c1.6,2.1,1.3,4.2-0.4,5.9c-1.6,1.6-2.9,5.1-5.5,2.5
		c-1.3-1.3-2.2-0.6-3.3,0.1c-1.9,1.3-3.8,1.6-4.3-2.3c-2.5,3.4-6.5,4.2-9.4,1c-3.1-3.5-5.3-2.4-8.1,0.6c-3,3.3-6.7,0.8-10,0.9
		c-3.5,0.1-6.8-1-10.3,1.7c-2.8,2.2-6.5,1.1-9.9,0.3c-0.8-0.2-2-1.1-1.5-2.3c1.4-3.7-2.1-4.7-2.2-7.7c0-1.4-1.5-1.8-2.4-0.9
		c-1.1,1.1-1,2.6,0,3.8c0.6,0.7,1.8,0.6,1.9,2.1c0.1,1.4,1.2,3.2-1.3,3.2c-2.4-0.1-4.8,1.3-6.9-1.8c-1.2-1.8-2.9-0.7-3.9,1
		c-2.1,3.7-4.4,3.6-7.1,1.3c-2.2-2-4.7-0.8-7-0.2c-0.2-1.9,0.6-1.8,1.1-2.2c0.8-0.6,1.5-1.5,0.7-2.8c-0.6-1-1.3-0.7-1.9,0
		c-0.8,1-2.2,1.4-2.8,2.3c-2.6,4.2-6,2.6-9.2,2.8c-2.2,0.1-4.4-0.9-6.7,1.2c-1.6,1.5-4.6,2.2-5.6-2.5c-0.4-2.1-1.5-3.2-3-1.7
		c-1.1,1.1-2.4,0.9-3.6,0.8c-1.6-0.1-3.8,1.1-4.6-0.7c-1-2.5,2.1-3.1,2.9-6.9c-2.9,3.4-6.8-2.2-8.5,4.8c-0.5,2-2.1,0-3-1.1
		c-0.8-0.9-1.6-2.6-0.3-3.3c5.3-2.8,2.6-5.3,0-7.9c-0.3-0.3-0.4-0.8-0.9-2c0.2,4.9-3.2,5.8-4.3,9.5c-1,3.6-4.2,3.8-7.2,2.8
		c-1.7-0.6-3.2-1.2-3.4-3.8c-0.3-2.7-0.3-5.2,1.9-6.9c2.4-1.7,4.7-3.6,3.3-8.5c-0.7-2.4-1.6-3.2-3.3-2.9c-1.8,0.3-2.1,2.1-2,4.1
		s1.6,4.5-0.8,5.5c-2,0.9-3.9,0.6-4.7-2.9c-0.5-2.2-2.2-1.8-3.5-1.7c-1.5,0.2-2,1.5-2.2,3.4c-0.9,8.8-1,9,5.3,11.3
		c3.6,1.3,6.6,4.7,10.4,5.3c0.5,0.1,1,0.3,1,1.2s-0.6,1.4-1.2,1.6c-2.5,0.9-5,2.3-7.5,2.6c-3.9,0.5-8.2,1.7-11.6-0.1
		c-3.9-2.1-6.9-4.3-11.4-1.7c-3.3,1.9-7.3-0.4-10.8-1.5c-1.9-0.6-4-3.3-5.2-6.3c-0.4-1.1-1-2.1-2-1.6c-0.4,0.2-0.8,0.8-1,1.3
		c-0.4,1.4,0.3,2,1.1,2.7c1.5,1.4,4.3,2.3,2.3,5.8c-2.2,3.9-5.9,5-7.9,3c-0.7-0.7-1.7-1-0.8-2.6c0.7-1.2,0.7-2.5-0.3-3.5
		c-1.2-1.1-2.8-0.6-3.4,0.5c-2.9,4.8-5.7,4.5-8.7,0.5c-0.9-1.2-1.9-1-3-0.2c-3.3,2.5-6.7,4.7-10.1,7c0-23.7,0-47.3,0-71
		c1.5-2.1,3.5-1.5,5.3-1.5c49.7,0,99.3,0,149,0c11.4,0,22.8,0,34.2,0C765.5,90.4,768.6,88.1,771.1,91.8z"/>
	<path class="st33" d="M1170.9,384.7c0,15-0.1,30,0.1,44.9c0,3.3-0.4,4.1-3,4.1c-83.5-0.1-167-0.1-250.5-0.1c-43.4,0-86.7,0-130.1,0
		c-3-5.5-2.9-9.8,0.4-12.2c1-0.7,2.7-0.6,2.3-3c-0.3-1.4-1.3-1.3-2.2-1.4c-1.4-0.1-2.7,0.1-3.1,2.5c-0.2,1.5-0.5,2.9-1,4.3
		c-0.6,2-2.2,2.6-3.3,4.1c0.4,2.5,4.6,1.5,3.1,5.7c-4.5,0-9,0-13.4,0c-1-3.4-2-0.9-3,0c-0.5,0-1,0-1.5,0c-2.8-1.4-5-3.3-3.7-8.1
		c0.4-1.4-0.6-2-1-3c-1.4-3.7-0.8-6.1,2.2-8.1c-1.8-1.9-3.6-4-1.9-7.3c1.2-2.3,5.1-2.8,7.2-1c0.5,0.4,0.9,1.2,1.3,1.8
		c0.4,0.6,0.8,0.8,1.2,0.2c0.4-0.7,0.1-1.3-0.4-1.5c-0.8-0.4-1.7-0.7-2.5-1c-2.6-0.9-5.3-5.9-5.1-9.4c0.1-1.7,0.8-2.3,1.9-2.4
		c1.4-0.1,2.7,0.2,4,0.8c1.2,0.5,2,0.8,2.2-1.6c0.2-3.3,2.1-3.8,4.2-3.2c1.5,0.4,2.9,1.2,4.2,2.1c1.6,1.2,3.1,2.8,2.6,5.4
		c-0.5,2.8-2.5,2.9-4.3,2.5c2.2,2.2,3.8,0.2,5.3-1.5c1.3-1.4,0.6-2.9-0.4-4.2c-0.7-0.9-1.4-2.1-0.7-3.5c0.7-1.2,1.8-1.4,2.7-1.1
		c3.7,1.3,7.6,1.8,11.1,4.2c1.8,1.2,3.4,1.8,3.9-1.8c0.3-2.1,0.4-5,2.5-4.6c2.2,0.4,4.9,0.3,6,4c0.4,1.4,0.6,2.9,1,4.3
		c-0.3-3.5,0.1-6.4,3.1-7.2c2.6-0.7,4.5,1.6,5.8,6.7c2.1-5.2,8.4-8.6,12.3-6.1c3.3,2.1,6.2,2.3,9.8,0.9c8.6-3.2,17.4-2.8,26,0.7
		c1.1,0.4,2.2,1.4,3.2,0.5c5.8-4.7,12.1-1.6,18.2-2c2-0.1,3.9,0.2,5.9-0.7c3-1.3,6-1.1,9.2-0.4c4.9,1.1,9.9-0.7,14.8-0.4
		c7.8,0.4,15.6-1,23.4,0c2.6,0.3,5.2,0.2,7.8-0.1c1-0.1,2.3-0.8,2.9,0c3.3,3.8,6.3,1.3,9.5,0c2.2-0.9,4.5-1,6.7-0.4
		c8.8,2.4,17.6,0.9,26.4,0.1c6.4-0.6,12.8-0.1,19-1.1c5.8-0.9,11.4,3.3,17.1,0.2c6.2,3.8,12.4-0.9,18.6,0.3
		c6.8,1.3,13.6-1.7,20.3,0.3c0.8,0.2,1.8-0.1,2.6,0.5c4.7,3.5,8.8,1.5,12.8-2.3c0.9-0.8,1.9-0.6,2.9-0.1c4.5,2.5,9.3,3.1,14.2,2.9
		c1.5-0.1,3-0.3,4.4-1.2c2.4-1.5,4.6-0.6,7.1,0c4.3,1,9,2.3,13.3-0.8c0.5-0.3,0.9-0.7,1.4-0.4c4.4,2.3,8.2,0,12.1-2.3
		c9-0.1,17.9,0,26.8-0.1C1168.3,383.2,1169.8,383,1170.9,384.7z"/>
	<path class="st34" d="M1138.9,384.8c-2.5,2.4-5,4.5-8.4,3.2c-1.3-0.5-3.4-2.6-4.2,1.3c0,0.1-0.2,0.3-0.3,0.2
		c-4.6-1.5-9.5,1.7-14-1.5c-1.3-0.9-2.4-1.6-3.8-0.7c-7.2,4.4-14.2,2.9-21.2-1c-3.8-2.1-1.8,3.4-3.3,4.8c-1.4-2.5-3-3.7-4.7-0.1
		c-1,2.1-2.1,1.3-3.5,0.4c-6-3.8-12.2-4.7-18.6-2.3c-0.9,0.3-1.7,0.5-2.5,0.3c-5.9-1.5-11.7-2-17.4,0.9c-0.9,0.5-2.2,0.8-2.9-0.2
		c-2.2-3.2-4.7-2.2-7.2-1.5c-2.6,0.8-4.9,0.4-7.5-0.7c-3.9-1.7-8,0.3-12.1-0.1c-1.2-0.1-2.5,0.6-3.9,0.1c-4-1.7-7.6,1.8-11.6,1.5
		c-7.8-0.6-15.7,1.8-23.6-0.5c-3.7-1.1-8.1-1.5-11,3.9c-0.8,1.5-1.9,0.7-2.6-1c-1.1-2.8-2.7-3-5-2.6c-3.8,0.7-7.7,1-11.5-0.2
		c-4.1-1.4-7.9,1.1-12,0.7c-7-0.8-14-0.3-21,0.9c-3.2,0.5-6.2-3.2-9.6-0.7c-4.4,3.3-9.5,1.3-14,1c-4.6-0.4-8.2,0.2-12.2,2.8
		c-2.1,1.3-4.5-1.5-6.3-2.6c-3.7-2.2-7.3-0.4-10.9-1c-3.8-0.6-8-1-11.8,1.6c-0.2,0.1-0.6-0.1-0.7,0.1c-3.8,5.3-6.5,0-9.5-1.7
		c-0.7-0.4-1.4-1.3-2.1-0.7c-3.4,3.1-10,1.2-9,11c-1.9-1.3-1.3-3-1.4-4.3c-0.2-2.3-0.8-4.2-2.2-5.6c-1.2-1.2-2.6-1.1-3.8-0.1
		s-1,2.5-0.6,4c0.2,0.6,0.4,1.2,0.5,1.9c0.2,1.3,0.5,2.9-0.6,3.5s-1.3-1.1-1.8-2s-1.1-2.1-1-3.1c0.6-5.9-3.3-4.9-5.4-6
		c-1.4-0.7-1.5,1.8-1.2,3.1c0.4,2,0.7,3.9-1.1,4.4c-1.5,0.4-3,2.3-4.8-0.8c-1.9-3.2-5.8-1.6-8.6-3.5c-1.1-0.7-2.5-1.7-3.8-0.6
		c-0.3,3.2,4.7,1.8,2.8,6.5c-1.7,4.1-4.9,4.9-7.5,6c-1.2,0.5-1.8-5.2-2.5-8.5c1.8,0.2,2.1,2.2,3,3.2c1,1,1.5,0.3,2.3-0.3
		c1.2-1,0.5-1.9,0-2.8c-1.8-3.2-4.7-3.3-7.2-4.3c-1.3-0.5-2.2,1.3-1.1,3.3c0.6,1.2,0.9,2.5,0,3.6c-1.1,1.2-1.8-0.1-2.5-1
		c-1.8-2.1-4.1-0.4-6.5-2.8c1.7,6.4,2.5,11.9,8,10.7c1-0.2,2.4,0.6,2,2.1c-0.5,1.9-1.6,3.8-2.9,5c-0.9,0.8-1.6-0.7-2-2.1
		c-0.7-2.8-4.6-4.2-6.3-2.4c-0.6,0.6-1,1.5-0.9,2.6s0.4,2.5,1.5,2.4c1.9-0.1,3.1,0.9,2.4,3.5c-0.8,3.4-2.4,0.1-4,0.5
		c0.7,2.5-1.4,6.3,2.6,6.8c0.9,0.1,1,1.6,0.2,2.3c-3.7,2.9-1.4,4.8,0.5,6.9c0.4,0.4,0.6,1,0.9,1.5c-62.8,0-125.6,0-188.4,0.1
		c-2.9,0-3.4-1.1-3.4-4.7c0.2-13.5,0.1-26.9,0.1-40.4c1.1-1.7,2.7-1.5,4.2-1.5c13.4,0,26.8,0.5,40.2-0.1c40.3-1.8,80.7,0,121-1.1
		c20.4-0.6,40.9-0.4,61.3-0.8c13.5,0,27.1,0.4,40.6-0.1c50.2-1.8,100.4-0.5,150.6-0.9c8.3-0.1,16.5-1.1,24.8-0.9
		c15.1,0.3,30.2-0.3,45.3-0.2c24,0.2,47.9,0,71.9,0.1C1135.7,383.3,1137.6,382.5,1138.9,384.8z"/>
	<path class="st32" d="M1170.9,150.8c-3.5-0.6-6.4,2.5-9.6,2.8c-2.2,0.2-5,2.6-6.5-2.6c-0.6-2.1-3.7-1.8-5.4-3.5
		c-1.5-1.5-3.5-2.3-2.1-5.6c0.5-1.1-0.1-1.8-0.8-2.3c-1.1-0.8-2.1-0.2-2.5,1.1c-1.8,6-5.9,7.2-9.8,9.1c-2.4,1.1-4.2,1.5-5.5-1
		c-2.8,5.5-7.7,2.2-10.7,5.7c0.4-2.1,1.6-2.3,2.5-2.4c4.6-0.8,6.2-6.1,8.5-10.2c2-3.6-1.7-3.3-2.5-5.3c2.8-2.8,4.4,0.8,6.1,2.2
		c1.8,1.6-0.2,3-1.1,4.1c-0.4,0.5-0.7,1-0.5,1.7c0.2,0.9,0.8,1.4,1.5,1.2c1-0.2,2.3-0.3,2.8-1.2c1.4-2.5,2.9-3.5,5.2-2.7
		c0.7,0.3,1.5-0.4,1.7-1.5c0.2-1.2-0.4-1.8-1.1-2.4c-2-1.7-3.4-4-1.2-6.8c1.9-2.4,4-2.6,5.7,0.8c1.5,3.1,3.8,1.8,5.8,1.8
		c0.6,0,1.2-0.6,1.1-1.6c-0.2-1.6-0.8-2.8-2.1-3.1c-3.2-0.6-6.4-1.4-9.7-1.7c-2.4-0.2-4.6-0.4-6.8-1.7c-2.6-1.5-5.2-4.9-8.2-0.5
		c-0.5,0.8-1.4,0.5-1.9-0.6c-0.7-1.5-0.9-3.1-0.4-4.8c0.4-1.5,1.5-2.2,2.4-1.7c2.3,1.3,4.1,0.8,6-1.3c1.1-1.2,1.9-0.2,2.6,1.4
		c1.2,2.8,2.7,2.1,4.2,0.2c0.2-0.2,0.3-0.6,0.3-0.9c0.5-2.6,4.3-0.7,3.5-3.8c-1.1-4.2-1.1-8.9-3.2-12.7c-0.7-1.4-1.5-2.2-2.7-1.9
		c-1.7,0.4-0.8,1.9-0.8,3.1c-0.1,2.2-1,2.7-2.5,2.5c-4.2-0.6-4.4-0.3-3.8,5.1c0.1,0.6,0.4,1.3-0.1,1.8c-0.6,0.5-1.3,0.3-1.7-0.4
		c-1.8-3-2.8-6.4-1.9-10.2c0.7-2.8,2.3-1.4,3.8-1c1.2,0.3,3,2.3,3.5-0.3c0.4-2.2-1.5-2.5-2.9-2.7c-0.8-0.1-2,0.3-1.9-1.5
		c0.1-1.1,1-1.4,1.8-1.4c3.1,0,6.1,0.7,9.4-0.5c2.2-0.8,4.6,3,5.4,6.5c0.5,2.1,1.5,3.4,2.9,3.1c1.8-0.5,1-2.8,0.7-4.1
		c-0.6-2.7,0.2-3.6,1.9-4.3c1.8-0.8,2.6,0.2,2.7,2.5c0.1,2.1,0.8,3.2,2.4,2.5c1.2-0.6,2.3-1.6,1.7-3.8c-1.4-5.3,0.8-3.6,2.9-2.9
		c3.6,1.2,7.3,3.9,11-0.1C1170.9,112.2,1170.9,131.5,1170.9,150.8z"/>
	<path class="st35" d="M771.1,91.8c-11.6,0-23.3-0.1-34.9-0.1c-30.5,0-61.1,0-91.6,0.1c-23.5,0-46.9,0-70.4,0.1c0-1,0-2,0-3
		c29.3,0,58.7-0.1,88-0.1c22,0,44-0.1,66-0.1c15,0,30,0.2,45,0c63.1-1.1,126.1-0.3,189.2-1c42.3-0.5,84.7-0.3,127-0.9
		c16.7-0.2,33.3,0,50-0.1c10.6-0.1,21.1-0.5,31.7-0.8c0,1.3,0,2.7,0,4c-25.2-0.8-50.4,0.6-75.6,0.1c-12.2-0.2-24.3,0.3-36.5,0.4
		c-17.2,0.1-34.4,0.4-51.7,0.4C951.1,90.9,895,91,838.8,91.1c-15.3,0-30.6-0.3-45.9,0.3C785.6,91.4,778.3,90.5,771.1,91.8z"/>
	<path class="st36" d="M1170.9,237.8c-26.8,0-53.7,0-80.5,0c-16.7,0-33.3-0.2-50,0.3c-11.3,0.3-22.5-0.4-33.8-0.1
		c-44.1,1.2-88.2,0.2-132.3,1c-30.8,0.6-61.6,0.3-92.4,1c-64.6,1.3-129.2,0.7-193.8,1c-4.7,0-9.4,0.3-14.1-0.2c0-0.7,0-1.3,0-2
		c33.5-1.8,67.1-0.5,100.6-0.9c25.6-0.3,51.2,0.3,76.8-0.3c36.9-0.8,73.7-0.3,110.6-1c50.8-1,101.6-0.1,152.4-1
		c52.2-1,104.4-0.3,156.5-0.7C1170.9,235.8,1170.9,236.8,1170.9,237.8z"/>
	<path class="st37" d="M1170.9,310.7c-9,0.3-18,0.5-27.1,0.3c-15.6-0.3-31.2,0.5-46.8,0.5c-46.9,0.1-93.7,0.1-140.6,0.3
		c-23.4,0.1-46.9,0.6-70.3,1c-12.9,0.2-25.8,0.3-38.7,0.5c-33.9,0.6-67.8,0-101.7,0.7c-43.8,0.9-87.7,0.5-131.5,0.9
		c-13.4,0.1-26.8,0.5-40.1,0.8c0-1.3,0-2.7,0-4c12,1,24.1,0,36.1,0c34.7,0.1,69.3-0.1,104-0.3c37.7-0.2,75.4-0.3,113.2-1.1
		c36.3-0.7,72.5-0.1,108.8-1c34.5-0.8,69.1-0.5,103.6-0.8c34.9-0.3,69.9-0.1,104.8-0.1c8.8,0,17.6,0.1,26.4,0.1
		C1170.9,309.4,1170.9,310.1,1170.9,310.7z"/>
	<path class="st38" d="M922.6,161.5c11.8,0.2,23.6,0.4,35.4-0.3c6.3-0.4,12.7,0.2,18.9,0.1c8.1-0.1,16.1-0.3,24.2-0.3
		c29.2-0.2,58.4,0.2,87.6-0.4c27.4-0.6,54.8-0.3,82.2-0.7c0,1,0,2,0,3c-12.8,0-25.6-0.1-38.4,0.1c-46.8,0.8-93.7,1-140.5,1
		c-10.2,0-20.3-0.3-30.5,0.1c-40.9,1.5-81.8,0.4-122.6,1c-10.2,0.2-20.5,1.2-30.7,0.8c-12-0.4-24-0.1-35.9-0.3
		c-15.3-0.2-30.7,0.1-46.1,0.2c-28.8,0.2-57.7,0.1-86.5,0.1c-3.5-1.7-7-1.8-10.5,0c-0.5,0-1,0-1.5,0c-1.2-2.1-3.4,0-4.6-2.1
		c4.4-1.7,8.9-0.6,13.3-0.7c8-0.2,16,0,24.1-0.1c34.9-0.1,69.7-0.1,104.6-0.2c2.2,0,4.5,0.7,6.6-0.8l0,0c1.4,1.6,3.1,0.8,4.7,0.8
		c14.8,0.1,29.5,0.5,44.3-0.1c24.4-1.1,48.9-0.3,73.3-0.8c7.3-0.1,14.5-0.1,21.8-0.1c1-1,2-0.9,3,0.2c1,0,2-0.1,3-0.1
		C922,161.3,922.3,161.2,922.6,161.5z"/>
	<path class="st39" d="M574.1-58.1c12.1-0.3,24.2-0.7,36.4-0.8c9.2,0,18.5,1,27.7,0.5c25.2-1.4,50.4-0.5,75.5-0.6
		c48.6-0.3,97.1-0.2,145.7-0.2c23.1,0,46.1,0,69.2-0.1c2.5,0,4.9-0.7,7.4,0.3c2.5,1.7,5.2,1.2,7.9,1.1c2.8-0.1,5.7,0,8.4-0.1
		c-0.7-0.1-1.6,0.1-2.2-1.1c1-0.9,2.1-0.7,3.2-0.7c53.7,0,107.3,0,161-0.1c-0.1,2-1.3,1.8-2.2,1.9c-7.6,0.1-15.1,1-22.7,0.2
		c-2-0.2-3.9,0.4-5.9,0.4c-23.5-0.1-47-0.1-70.5,0c-2.8,0-5.7-1.9-8.4,0.5c-0.5,0-1,0-1.5,0.1c-1-0.7-2.2-0.6-3.3-0.6
		c-12.2,0.2-24.3-1-34.3-0.5c4,0,10.2-0.1,16.4,0.1c1.2,0,2.9-1,3.3,1.8c-42.5,0-85,0.1-127.5,0.1c-14.5,0-29.1-0.1-43.6,0.1
		c-18.2,0.3-36.5-0.1-54.7,0.2c-8,0.1-16.1,0.3-24.1,0c-10-0.4-20,0.9-30,0.3c-7.1-0.6-14.1-0.4-21.1-0.4c-8.7,0.1-17.4,0.3-26,0.4
		c-28,0.2-56,0.1-84,0.2C574.1-56.1,574.1-57.1,574.1-58.1z"/>
	<path class="st40" d="M982.8,17.4c-6.6,1-13.2,0.4-19.7,0.4c-81.2,0.1-162.3,0.1-243.5,0.2c-19.7,0-39.5,0.5-59.2,0.1
		c-11.6-0.2-23.2,0.1-34.8,0.2c-17.1,0.2-34.3,0.1-51.4,0.5c0-1.3,0-2.7,0-4c18.6,0,37.2,0.1,55.8,0.1c59,0,118.1,0,177.1-0.1
		c56.7,0,113.3-0.1,170-0.1c1.2,0,2.5,0,3.7,0.1C981.1,16,982.7,15.5,982.8,17.4z"/>
	<path class="st41" d="M1138.9,384.8c-26.7,0.1-53.4-0.2-80.2,0.2c-10.4,0.2-20.8-0.2-31.2-0.1c-46.8,0.8-93.6,0.6-140.4,0.9
		c-28.7,0.2-57.5,1.1-86.2,0.8c0.7-3,2.5-0.3,3.2-1.3c1-0.1,0.4-1.1,0.5-0.5c0,0,0,0.1-0.1,0.1c-1.7-0.2-3.7,2-5-1.1
		c4.2,0,8.4-0.1,12.7-0.1c-0.6,3.2-2.7,0.5-3.8,1.7c-0.5,0.1,0,0.5,0,0.5c3.3-2.1,7.1-0.1,10.4-2.1c7-0.1,13.9-0.1,20.9-0.2
		c55.1-1.6,110.2-0.1,165.3-1.1c54.8-1,109.7-0.5,164.5-0.9c0.5,0,1,0.1,1.5,0.1c0,1,0,2,0,3
		C1160.2,384.8,1149.6,384.8,1138.9,384.8z"/>
	<path class="st42" d="M799.4,383.8c1.7,1.9,3.9,0.2,5.9,1.3c-1.4,1.4-3.2-0.2-4.4,1.6c-75.6,0.7-151.2,1.4-226.8,2.1c0-1,0-2,0-3
		c11.4-0.1,22.9,0.1,34.3-0.2c43.1-1.2,86.2-0.2,129.2-1.1C758.2,384,778.8,383.8,799.4,383.8z"/>
	<path class="st36" d="M982.8,17.4c-0.8-0.7-2.1-0.7-2.1-2.6c0.5,0,0.9,0,1.4,0c2.8-0.7,5.6-0.7,8.4,0c34-1.7,68.1-0.6,102.1-1
		c11-0.2,22-0.6,32.9-0.7c15.1-0.2,30.3-0.1,45.4-0.2c0,1,0,2,0,3c-26.4,1.5-52.8,0.8-79.3,1c-22.3,0.2-44.7,0-67,0.2
		c-12.5,0.1-25,0.5-37.4,0.7C985.7,17.7,984.3,17.5,982.8,17.4z"/>
	<path class="st38" d="M1004.6-57c0.8-3.4,2.9-2,4.4-2c33.7-0.1,67.3-0.1,101-0.1c1.4,0,3,0.6,4.3-0.9c18.9,0,37.8-0.1,56.7-0.1
		c0,1,0,2,0,3c-9.1,0.1-18.2-0.2-27.2,0.3c-13.6,0.7-27.2,0-40.9,0.4c-30.4,0.7-60.8,0.2-91.3,0.2
		C1009.3-56.3,1006.9-56.8,1004.6-57z"/>
	<path class="st34" d="M783.7,433.7c-0.2-1.6-0.6-3-2.1-2.5c-1.8,0.6-2.6-0.8-2.9-2.7c-0.4-2.4,1-2.4,2.2-2.9c2.9-1,2.5-4.4,2.8-7.3
		c0.2-1.7,0.4-3.8,2.1-3c2,1,5.4-2.4,6,3c0.2,1.9,0,4-1.8,4.2c-4.4,0.4-4.4,3.4-2.9,7.8c0.3,1,0.2,2.3,0.3,3.4
		C786.2,433.7,785,433.7,783.7,433.7z"/>
	<path class="st43" d="M623.2,163.7c1.5,0.7,3.8-1.4,4.6,2.1c-17.9,0-35.8,0-53.7-0.1c0-0.7,0-1.3,0-2
		C590.5,163.8,606.8,163.7,623.2,163.7z"/>
	<path class="st34" d="M767.3,433.7c0.1-0.3,0.2-0.6,0.3-0.9c0.8-1.5,0-5,2-4.5c2.5,0.6,0.1,3.6,0.7,5.4
		C769.3,433.7,768.3,433.7,767.3,433.7z"/>
	<path class="st44" d="M1159.7,210.1c-0.1,1.8-0.8,2.7-1.9,2.7c-1.4-0.1-2.4-0.9-2.5-2.9c-0.1-1.2,0.4-2.6,1.4-2.5
		C1158,207.4,1159.1,208.6,1159.7,210.1z"/>
	<path class="st43" d="M629.3,165.9c0-0.5-0.2-1.3-0.1-1.4c1.8-1.6,8.7-0.7,10.5,1.4C636.3,165.9,632.8,165.9,629.3,165.9z"/>
	<path class="st38" d="M985.1-56.2c-1.4-1.5-3.1-0.8-4.7-0.9c-7.7-0.1-15.3,0-23.1,0c0.4-2.7,1.6-1.9,2.4-1.9
		c13.7-0.1,27.3-0.1,41,0c0.9,0,2.9-1.2,2.3,2.1C997.1-55.3,991.1-56.7,985.1-56.2z"/>
	<path class="st40" d="M990.5,14.8c-2.8,0-5.6,0-8.4,0C984.9,13.5,987.7,13.5,990.5,14.8z"/>
	<path class="st42" d="M818.8,383.8c-0.3,2-1.5,1.9-2.6,1.9c-2.8,0-5.6,0-8.8,0c1.6-1.9,3.5,0,4.6-2
		C814.3,383.7,816.6,383.8,818.8,383.8z"/>
	<path class="st38" d="M950-59.2c1.8,0.1,3.6,0.2,5.5,0.3c-0.5,2-1.4,1.7-2.3,1.7c-5.2,0-10.4,0-15.6,0c-0.9,0-2.2,0.4-1.6-2
		C940.6-59.1,945.3-59.2,950-59.2z"/>
	<path class="st45" d="M1101.6-93.1c-0.1,1.2-0.4,1.9-1.1,1.6c-0.9-0.4-2-0.6-2.2-2.1c-0.1-0.8,0.6-1.3,1.3-1.3
		C1100.6-95,1101.3-94.3,1101.6-93.1z"/>
	<path class="st32" d="M888.7,142.2c-0.3,2.5,1,3.7,1.8,5.3c1.3,2.4,2.1,4.7,0.2,7.6c-1.7,2.6-3.1,2.6-5,0.6c-1-1-2.4-1.2-3.3-2.3
		c-1.8-2.3-3.3-1.4-4.9,0.4c-3.8,4.1-5.6,3.7-7.8-1.9c-1.1-2.8-1.9-3.6-4.5-2.6c-3.4,1.4-6.4,3-8.5,7.1c-1,2-2.5,2.4-4.3,2.4
		c-1.9,0-3.3-1.1-3.9-3.1c-0.7-2.6,1.6-3.9,2.5-4.1c4.1-0.6,5.9-7.2,10.4-6.7c0.7,0.1,1.2-1.5,1.5-2.6c1-3.3,5.4-5.7,7.7-4.1
		c1.6,1.1,2.8,2.9,1.9,5.7c-0.4,1.2-1.1,2.9-0.2,3.7c1.3,1.1,1.5,8.7,4.9,1.8c0.8-1.7,3.1-3,4.4-5c1.4-2.1,3.5-3.8,0.7-6.8
		c-1.1-1.2,0.2-2.4,0.8-3.2c0.9-1.1,2.1-3,3.1-1.3c1.6,2.7,3.1,0.9,4.7,0.4c0.5-0.2,0.9-0.5,1.4-0.8c1.9-1.1,4.8-1.9,5.5-0.2
		c0.9,2,0.2,5.6-0.3,8.4c-0.5,2.8-2.5,4.4-4.3,5.1C891.4,146.5,890.8,142.4,888.7,142.2z"/>
	<path class="st32" d="M920.5,98.8c-2.6,2.5-4.7,4.6-6.9,6.7c-0.4,0.4-0.5,1.1-0.7,1.7c-0.3,1.1,1.4,4-1.1,3.2
		c-1.4-0.4-3.1-2-2.2-4.8c0.8-2.4,0.3-3.4-1.5-4.5c-1.7-1-1.8-4-1.1-5.7c1-2.1,2,0.5,3,1.1c1.6,1,3.2,3.4,3.9-1.2
		c0.2-1.1,1.1-1.1,1.9-0.9c5.4,1.9,10.7,3.7,16.1,5.5c2,0.7,2,3.2,2.6,5.1c0.5,1.5-0.8,1.8-1.7,1.6c-1.6-0.4-3.3-0.7-4.6-1.4
		c-2.2-1.3-3.8-1.7-6.2-0.8C919.7,105.2,920.8,101.4,920.5,98.8z"/>
	<path class="st32" d="M918.8,161.9c-1-0.1-2-0.1-3-0.2c-4-2.9-5.7-7.7-4.5-13.1c1.2-5.7,5.1-9.6,9.3-9.4c4.4,0.2,6.7,2.6,7.6,8.5
		c-2.3-2.4-3.9-5.1-6.9-5.2c-3.5,0-6.6,1.4-7.5,5.1c-1.1,4.5,0.4,10.1,3.3,12.1C917.9,160.2,918.7,160.4,918.8,161.9z"/>
	<path class="st32" d="M969,95.9c-0.7,6.9,3.1,6.5,6.1,7.3c-0.4,1.7-0.8,3-1.1,4.4c-0.4,1.4-1.2,2.3-2.3,2c-3.4-0.9-3.7-5.7-5.6-8.5
		C964.7,99.2,967,97.3,969,95.9z"/>
	<path class="st32" d="M951,104.2c-0.1-7.4,2.3-8.8,5.9-8.4c2.1,0.2,4.2,0,6.3,0.2c0.8,0,1.5,0.6,1.5,1.8s-0.7,1.6-1.5,1.9
		c-0.1,0-0.2,0.1-0.4,0.1C958.8,100.2,954.5,98,951,104.2z"/>
	<path class="st32" d="M922.6,161.5c-0.3,0.1-0.6,0.2-0.8,0.2c0-2.5,2.1-3.6,2.3-6.1s0.8-5-1.2-6.6c-1.4-1.2-3-1.5-4.5,0.3
		c-2,2.5-0.7,4.7,0.2,7.2c-1.8-1.7-3.6-3.3-2.3-7c1.4-4.1,3.6-5.5,6.2-3.6C927.5,149.6,927.5,158.3,922.6,161.5z"/>
	<path class="st32" d="M989.3,98.5c3.4-3.2,10.6-2.2,11.8,1.4c0.5,1.3,0.7,2.6,0,3.7c-0.7,1.2-1.6,0.4-2.4,0.1
		c-0.8-0.3-1.8-0.7-2.3-1.5C994.7,99,992.1,98.7,989.3,98.5z"/>
	<path class="st32" d="M906.9,146.3c0.8,1.6,2.1,3.4,2.7,5.5c0.5,1.8-0.4,3.6-1.6,4.6c-1.8,1.4-3.6,0-3.5-2.9c0-1,0-1.9-0.3-2.8
		C903.1,148.2,904.3,146.1,906.9,146.3z"/>
	<path class="st32" d="M925.7,120.4c-1.3,0.5-2.3,1-3.4,1.4c-1,0.4-2,0.8-2.2,2.3c-0.3,1.8,1.2,1.8,1.9,2.5c0.6,0.6,2,0.4,1.4,2.1
		c-0.5,1.4-1.6,1.4-2.6,0.9c-1.6-0.8-2-2.7-2.4-4.7c-0.4-1.9,0.1-3.4,1.5-3.9C921.7,120.2,923.1,113.6,925.7,120.4z"/>
	<path class="st32" d="M944.7,95.8c0.9,0.5,3.1-0.9,2.6,1.8c-0.5,3-2.8,4.5-5,5c-1.3,0.3-1.9-1.3-1.9-2.9
		C940.5,95.7,942.8,96.1,944.7,95.8z"/>
	<path class="st32" d="M822.2,155.3c3.8-2.7,6.6-3.7,9.8-2.1c0.7,0.4,1.8,0.8,1.3,2.4c-0.4,1.3-1.2,2.4-2.3,1.8
		C828.5,156,825.8,156,822.2,155.3z"/>
	<path class="st32" d="M1117.1,100.3c0.4-3.9,1-7.5,4.8-6.4c0.9,0.2,1.8,0.5,1.7,2c0,1.2-0.7,1.8-1.5,1.8
		C1120.1,97.5,1118.8,99.3,1117.1,100.3z"/>
	<path class="st32" d="M932.5,127c-1.3,1.4-2.8,0.7-4.2,0.7c-0.9,0.1-2.4,0.7-2.6-0.6c-0.2-1.4,0.3-3.3,1-4.4c1-1.4,1.7,0.5,2.3,1.2
		C930,125.2,931.9,124.6,932.5,127z"/>
	<path class="st32" d="M960.5,113c-0.1,2-0.4,3.8-1.5,3.2c-1.7-0.8-3.3-2.2-4-4.7c-0.4-1.4,0.5-1.7,1.3-1.7
		C958.3,109.9,959.8,110.8,960.5,113z"/>
	<path class="st32" d="M893.3,160.5c0.4-3.9,1-7.1,4.5-5.8c0.9,0.3,2.4-0.2,2.4,1.4c-0.1,1.5-1.3,2.9-2.7,2.4
		C895.8,158.2,894.1,156.6,893.3,160.5z"/>
	<path class="st32" d="M1026.8,99.3c-0.1,1.2-0.5,2.1-1.3,2.1c-1.3-0.1-2.4-0.8-2.8-2.6c-0.2-1.2,0.4-1.8,1.3-1.8
		C1025.2,97,1026.4,97.5,1026.8,99.3z"/>
	<path class="st32" d="M936.1,113.3c0.3-1.6,1.4-1.8,2.3-1.7c1,0.1,1.9,1.1,1.6,2.7c-0.2,1.3-1.1,1.6-2,1.5
		C936.9,115.6,936.2,114.9,936.1,113.3z"/>
	<path class="st32" d="M941.8,128.2c-0.8-2.8-1.5-4.6-3-5.6c-0.6-0.4-1.4-1.2-0.8-2.2c0.6-1,1.6-0.7,2.2,0.3
		C941.5,122.5,942.3,124.6,941.8,128.2z"/>
	<path class="st32" d="M660.5,157.9c2.3-1.6,4.6-1.2,7.2,0.5C665,160.2,662.7,158.5,660.5,157.9z"/>
	<path class="st32" d="M1113.9,151.8c-0.4,1.2-1.2,1.8-2.1,1.6s-2.3-0.6-2.2-2.2c0.1-1.7,1.5-1.4,2.4-1.4
		C1113,149.9,1113.8,150.3,1113.9,151.8z"/>
	<path class="st32" d="M1085.8,100.7c0,1.2-0.4,1.9-1.3,1.9c-0.7,0-1.3-0.3-1.3-1.3c-0.1-1.4,0.5-2.2,1.5-2.3
		C1085.4,99.1,1085.8,99.7,1085.8,100.7z"/>
	<path class="st32" d="M927.9,157.1c-1.1-1.3,0.1-2.1,0.4-3c0.4-1.2-1.7-3.4,0.5-3.3c1.5,0.1,0.3,2.5,0.4,3.8
		C929.3,155.7,929.1,157,927.9,157.1z"/>
	<path class="st32" d="M1145.6,95.7c-0.8-0.1-1.4-0.5-1.3-1.8c0.1-1.1,0.6-1.8,1.5-1.7c0.6,0.1,1,0.8,1.1,1.6
		C1147,95.2,1146.4,95.6,1145.6,95.7z"/>
	<path class="st32" d="M1147.7,152.3c-1.4,0.2-2.9,1.4-4.1-0.7c-0.1-0.2,0-0.8,0.1-0.9C1145.3,149.9,1146.5,151,1147.7,152.3z"/>
	<path class="st32" d="M1129.6,131.5c-0.4-2.3-0.9-3.9,0.4-5.2c0.2-0.2,0.9,0,0.9,0.2C1131.2,128.3,1130.7,129.7,1129.6,131.5z"/>
	<path class="st32" d="M946.6,112.9c0.7,0.1,1.6-0.1,1.6,1.3c0,0.9-0.6,1.4-1.3,1.5c-0.8,0.1-1.5-0.4-1.6-1.5
		C945.2,113.1,945.9,112.9,946.6,112.9z"/>
	<path class="st32" d="M1091.7,103c0.6,0,1.3,0.1,1.4,1.2c0.1,1-0.4,1.5-1.1,1.5c-0.6,0.1-1.3-0.1-1.4-1.2
		C1090.5,103.5,1091,103.1,1091.7,103z"/>
	<path class="st32" d="M1135.6,107.5c0.7,0.3,1,1.1,0.9,1.9c-0.1,1-0.7,1.3-1.4,1.3c-0.6,0-1-0.3-0.8-1.2
		C1134.4,108.6,1134.7,107.7,1135.6,107.5z"/>
	<path class="st32" d="M1032.7,139.6c0,0.9-0.4,1.6-1,1.8c-0.7,0.2-1.2-0.3-1.4-1.2c-0.2-1,0.4-1.4,1-1.7
		C1032,138.2,1032.4,138.7,1032.7,139.6z"/>
	<path class="st32" d="M951.9,108c0.5,0.1,1,0.4,1,1.2c0,1-0.4,1.5-1.2,1.4c-0.5-0.1-1-0.4-1.1-1.1
		C950.7,108.5,951.2,108.1,951.9,108z"/>
	<path class="st32" d="M771.8,161.9c0.2-1.4-0.2-3,0.9-4.2C773.1,159.3,774,160.9,771.8,161.9C771.7,161.9,771.8,161.9,771.8,161.9z
		"/>
	<path class="st34" d="M801.5,419.7c-0.6,2-1.7,3.6-3.6,3.3c-1.3-0.2-2.6-1.6-2.4-3.3c0.3-3.1,2.7-2.1,4.2-2.7
		C800.8,416.6,801.5,417.9,801.5,419.7z"/>
	<path class="st34" d="M813.8,423.5c-2.3,2.3-3.9,3-5.6,3c-1,0-2.5-0.4-2.4-2.2c0.1-1.5,1.2-2.6,2.4-2.5
		C809.8,422.1,811.4,422.8,813.8,423.5z"/>
	<path class="st34" d="M775.7,411.3c1-0.2,1.3,0.6,1.2,1.5c-0.2,2.2-0.9,4.3-2.2,5.3c-0.8,0.7-1.9-1.1-1.9-2.4
		C772.7,413.1,774.8,412.7,775.7,411.3z"/>
</g>
</svg>
