<?xml version="1.0" encoding="utf-8"?>
<!-- Generator: Adobe Illustrator 25.1.0, SVG Export Plug-In . SVG Version: 6.00 Build 0)  -->
<svg version="1.1" id="Camada_1" xmlns="http://www.w3.org/2000/svg" xmlns:xlink="http://www.w3.org/1999/xlink" x="0px" y="0px"
	 viewBox="0 0 850.4 708.7" style="enable-background:new 0 0 850.4 708.7;" xml:space="preserve">
<style type="text/css">
	.st0{opacity:0.8;}
	.st1{fill:url(#SVGID_1_);}
	.st2{clip-path:url(#SVGID_3_);}
	.st3{clip-path:url(#SVGID_5_);}
	.st4{fill:#432918;stroke:#000000;stroke-width:1.3091;stroke-miterlimit:10;}
	.st5{clip-path:url(#SVGID_7_);fill:#FFFFFF;stroke:#000000;stroke-width:2.2079;stroke-linecap:round;stroke-miterlimit:10;}
	.st6{fill:#E3C7AB;stroke:#000000;stroke-width:2.3016;stroke-linecap:round;stroke-miterlimit:10;}
	.st7{clip-path:url(#SVGID_9_);fill:none;stroke:#E30613;stroke-width:2.0134;stroke-miterlimit:10;}
	.st8{clip-path:url(#SVGID_11_);fill:none;stroke:#E30613;stroke-width:2.0953;stroke-miterlimit:10;}
	.st9{clip-path:url(#SVGID_13_);fill:none;stroke:#E30613;stroke-width:1.8728;stroke-miterlimit:10;}
	.st10{clip-path:url(#SVGID_15_);fill:none;stroke:#E30613;stroke-width:2.3165;stroke-miterlimit:10;}
	.st11{clip-path:url(#SVGID_17_);fill:none;stroke:#E30613;stroke-width:2.3165;stroke-miterlimit:10;}
	.st12{display:none;}
	.st13{display:inline;fill:#13110C;}
	.st14{display:inline;}
	.st15{fill:none;stroke:#000000;stroke-width:2.3105;stroke-miterlimit:10;}
	.st16{display:inline;fill:none;stroke:#000000;stroke-width:2.3105;stroke-miterlimit:10;}
	.st17{fill:none;stroke:#000000;stroke-width:1.8293;stroke-miterlimit:10;}
	.st18{fill:none;stroke:#13110C;stroke-width:1.3091;stroke-miterlimit:10;}
	.st19{fill:#13110C;}
	.st20{fill:none;stroke:#13110C;stroke-width:1.6282;stroke-miterlimit:10;}
	.st21{opacity:0.3;}
	
		.st22{fill:none;stroke:#000000;stroke-width:0.3781;stroke-linecap:round;stroke-linejoin:round;stroke-dasharray:20.7159,10.358,20.7159,10.358;}
	
		.st23{fill:none;stroke:#000000;stroke-width:0.3781;stroke-linecap:round;stroke-linejoin:round;stroke-dasharray:20.7175,10.3587,20.7175,10.3587;}
	.st24{fill:#BE1622;}
	.st25{fill:#432918;stroke:#000000;stroke-width:1.3091;stroke-linecap:round;stroke-linejoin:round;stroke-miterlimit:10;}
	.st26{fill:#E3C7AB;stroke:#000000;stroke-width:1.3091;stroke-miterlimit:10;}
	.st27{display:inline;fill:#DADADA;}
	.st28{display:inline;fill:#D9D9D9;}
	.st29{display:inline;fill:#DEDEDE;}
	.st30{display:inline;fill:#D8D8D8;}
	.st31{display:inline;fill:#DDDDDD;}
	.st32{display:inline;fill:#E0E0E0;}
	.st33{display:inline;fill:#DCDCDC;}
	.st34{display:inline;fill:#DBDCDC;}
	.st35{display:inline;fill:#D7D8D7;}
	.st36{display:inline;fill:#9B9A9A;}
	.st37{display:inline;fill:#979797;}
	.st38{display:inline;fill:#959595;}
	.st39{display:inline;fill:#9D9D9D;}
	.st40{display:inline;fill:#A1A1A1;}
	.st41{display:inline;fill:#9F9F9F;}
	.st42{display:inline;fill:#A2A2A1;}
	.st43{display:inline;fill:#9A9A9A;}
	.st44{display:inline;fill:#999999;}
	.st45{display:inline;fill:#8F8F8F;}
	.st46{display:inline;fill:#A8A8A7;}
	.st47{font-family:'LobsterTwo-Bold';}
	.st48{font-size:90.583px;}
	.st49{fill:#1D1D1B;}
	.st50{font-family:'Montserrat-Light';}
	.st51{font-size:49.4089px;}
</style>
<g>
	<g class="st0">
		<g>
			
				<linearGradient id="SVGID_1_" gradientUnits="userSpaceOnUse" x1="311.4739" y1="486.0263" x2="510.701" y2="909.4943" gradientTransform="matrix(1 0 0 1 0 -391.3858)">
				<stop  offset="0" style="stop-color:#BE2F43"/>
				<stop  offset="1" style="stop-color:#6C167F"/>
			</linearGradient>
			<path class="st1" d="M175.3,287.3c7.6-129.3,118.1-228,246.6-220.7c128.6,7.3,227,118.3,219.7,247.7
				c-7.3,129.3-117.8,228-246.6,220.7C266.2,527.6,168,416.6,175.3,287.3z"/>
		</g>
	</g>
	<g>
		<g>
			<g>
				<g>
					<g>
						<defs>
							<ellipse id="SVGID_2_" cx="403.4" cy="295.1" rx="245.1" ry="240.1"/>
						</defs>
						<clipPath id="SVGID_3_">
							<use xlink:href="#SVGID_2_"  style="overflow:visible;"/>
						</clipPath>
						<g class="st2">
							<g>
								<g>
									<g>
										<defs>
											
												<ellipse id="SVGID_4_" transform="matrix(5.755895e-02 -0.9983 0.9983 5.755895e-02 87.2337 694.3279)" cx="411.4" cy="301" rx="240.3" ry="239.3"/>
										</defs>
										<clipPath id="SVGID_5_">
											<use xlink:href="#SVGID_4_"  style="overflow:visible;"/>
										</clipPath>
										<g class="st3">
											<path class="st4" d="M662.8,364.8c-0.8,0-1.6,0-2.4-0.3c-17.5,4.5-49-5.8-60.2-26.2c-4.7-8.6-9.4-21.2-13.9-35.9
												c-1,7.6-2.4,14.4-3.9,20.2c-5.5,19.6-26.7,38.5-52.1,43.7c-9.9,2.1-45.6,4.2-80.9,11.8c-22.8,5-49.2,4.7-73.3,1.3
												c-35.1-5.2-65.2-5.2-84.3-12c-14.7-5.5-43.5-14.9-54.7-36.7c-1.6,3.4-3.1,6.5-4.5,9.4c-9.2,16.2-30.6,26.2-47.9,27.2
												c-1,17,12,41.1,33.8,26.2c32.7-22.8,52.9,9.9,19.9,17c-55.2,12,51.1,41.4,76.2,46.3c24.1,4.7,17.3,11,54.2,17
												c36.9,6.3,153.7,13.4,205.5-11.3c51.8-24.6,55-22.5,36.9-44.8c-17.8-22.8-18.9-44.8,30.6-18.9
												C656,406.4,679.1,375.2,662.8,364.8z"/>
										</g>
									</g>
								</g>
							</g>
						</g>
					</g>
				</g>
			</g>
			<g>
				<g>
					<g>
						<defs>
							<ellipse id="SVGID_6_" cx="403.4" cy="295.1" rx="245.1" ry="240.1"/>
						</defs>
						<clipPath id="SVGID_7_">
							<use xlink:href="#SVGID_6_"  style="overflow:visible;"/>
						</clipPath>
						<path class="st5" d="M537.9,457.4c-8.4-27.2-32.2-57.6-44.8-72.5c-6.3-4.7-19.4-10.5-19.4-10.5l-143,2.1l-18.3,11
							c0,0-52.1,47.9-48.4,73.6c0.8,0.8,2.1,1.6,3.7,2.1c0.5,0.3,1,0.5,1.6,0.5c9.4,3.1,27,4.2,37.7,4.5c0.5,0,1.3,0,1.8,0
							s1.3,0,2.1,0c3.1,0,7.3-14.7,7.3-14.7l-2.6,72.5c0,0,62.8,15.7,85.9,15.4c23.3-0.3,93.5-17.5,93.5-17.5l-9.2-79.3
							c0,0,5.8,19.6,6.3,19.6c0.8-0.3,2.1-0.3,3.4-0.5c7.1-1,22-2.6,32.5-4.2c3.4-0.5,6.3-1,8.4-1.3
							C538.5,458,539.5,457.7,537.9,457.4z"/>
					</g>
				</g>
			</g>
		</g>
	</g>
	<path class="st6" d="M544.2,143.8c-22.8-22-68.3-27.5-114.4-23.8c-11,0.8-17.8-3.4-21.7-10.2c-5.5,8.4-13.9,14.1-26.2,13.4
		c-62.1-3.7-105.8,8.4-110.2,55c-1,7.3-2.1,15.2-3.4,23c-7.1,47.1-17.5,103.4-30.4,133.8c11.3,21.5,40.3,30.6,55.2,35.6
		c18.9,6.5,49.2,8.1,84.3,12.8c24.1,3.4,50.5,3.1,73.3-2.1c35.1-8.1,70.7-12.3,80.6-14.7c25.1-5.5,46.3-24.6,51.3-44.2
		c1.6-6,2.6-12.8,3.7-19.9c-11.5-38-21.5-90.3-28-129.9C557.6,161.3,552.3,151.6,544.2,143.8z"/>
	<g>
		<g>
			<g>
				<g>
					<g>
						<defs>
							<path id="SVGID_8_" d="M312.2,388.8c0,0-52.1,46.1-48.4,70.7c7.1,7.3,51.8,7.3,51.8,7.3l1.6,52.9
								c-3.4-0.3,43.2,13.1,71.7,14.1c25.7,1,101.1-14.1,101.1-14.1l0.5-56.8c0,0,55.5-6.3,47.1-7.1c-11.8-36.1-49.7-72.5-49.7-72.5
								l-157.4-5.2L312.2,388.8z"/>
						</defs>
						<clipPath id="SVGID_9_">
							<use xlink:href="#SVGID_8_"  style="overflow:visible;"/>
						</clipPath>
						<path class="st7" d="M282.7,419.7c0,0,143.2,25.1,237.5,2.4"/>
					</g>
				</g>
			</g>
		</g>
		<g>
			<g>
				<g>
					<g>
						<defs>
							<path id="SVGID_10_" d="M312.2,388.8c0,0-52.1,46.1-48.4,70.7c7.1,7.3,51.8,7.3,51.8,7.3l1.6,52.9
								c-3.4-0.3,43.2,13.1,71.7,14.1c25.7,1,101.1-14.1,101.1-14.1l0.5-56.8c0,0,55.5-6.3,47.1-7.1c-11.8-36.1-49.7-72.5-49.7-72.5
								l-157.4-5.2L312.2,388.8z"/>
						</defs>
						<clipPath id="SVGID_11_">
							<use xlink:href="#SVGID_10_"  style="overflow:visible;"/>
						</clipPath>
						<path class="st8" d="M319.3,460.1c0,0,66,24.3,168.1,1.6"/>
					</g>
				</g>
			</g>
		</g>
		<g>
			<g>
				<g>
					<g>
						<defs>
							<path id="SVGID_12_" d="M312.2,388.8c0,0-52.1,46.1-48.4,70.7c7.1,7.3,51.8,7.3,51.8,7.3l1.6,52.9
								c-3.4-0.3,43.2,13.1,71.7,14.1c25.7,1,101.1-14.1,101.1-14.1l0.5-56.8c0,0,55.5-6.3,47.1-7.1c-11.8-36.1-49.7-72.5-49.7-72.5
								l-157.4-5.2L312.2,388.8z"/>
						</defs>
						<clipPath id="SVGID_13_">
							<use xlink:href="#SVGID_12_"  style="overflow:visible;"/>
						</clipPath>
						<path class="st9" d="M316.4,494.6c0,0,114.2,28.5,174.1-1.6"/>
					</g>
				</g>
			</g>
		</g>
		<g>
			<g>
				<g>
					<g>
						<defs>
							<path id="SVGID_14_" d="M312.2,388.8c0,0-52.1,46.1-48.4,70.7c7.1,7.3,51.8,7.3,51.8,7.3l1.6,52.9
								c-3.4-0.3,43.2,13.1,71.7,14.1c25.7,1,101.1-14.1,101.1-14.1l0.5-56.8c0,0,55.5-6.3,47.1-7.1c-11.8-36.1-49.7-72.5-49.7-72.5
								l-157.4-5.2L312.2,388.8z"/>
						</defs>
						<clipPath id="SVGID_15_">
							<use xlink:href="#SVGID_14_"  style="overflow:visible;"/>
						</clipPath>
						<path class="st10" d="M316.7,517.1c47.7,11.3,62.8,12.3,101.6,12.3c47.1-3.9,89.3-19.4,78-16.8"/>
					</g>
				</g>
			</g>
		</g>
		<g>
			<g>
				<g>
					<g>
						<defs>
							<path id="SVGID_16_" d="M312.2,388.8c0,0-52.1,46.1-48.4,70.7c7.1,7.3,51.8,7.3,51.8,7.3l1.6,52.9
								c-3.4-0.3,43.2,13.1,71.7,14.1c25.7,1,101.1-14.1,101.1-14.1l0.5-56.8c0,0,55.5-6.3,47.1-7.1c-11.8-36.1-49.7-72.5-49.7-72.5
								l-157.4-5.2L312.2,388.8z"/>
						</defs>
						<clipPath id="SVGID_17_">
							<use xlink:href="#SVGID_16_"  style="overflow:visible;"/>
						</clipPath>
						<path class="st11" d="M470.9,525.5"/>
					</g>
				</g>
			</g>
		</g>
	</g>
	<g>
		<g id="tata_olhos_abertos_3_" class="st12">
			<path class="st13" d="M491.3,248.5c0-5.5,4.7-9.9,10.5-9.9s10.5,4.5,10.5,9.9s-4.7,9.9-10.5,9.9S491.3,254,491.3,248.5z"/>
			<g class="st14">
				<path class="st15" d="M307.3,242.2c-2.4,0.5-4.2-0.3-5.2-2.4"/>
				<path class="st15" d="M305.2,247.5c-2.1,0.8-4.2,0.3-5.5-1.6"/>
			</g>
			<path class="st16" d="M509.7,243.8c2.4,0.5,4.2-0.3,5.2-2.4"/>
			<path class="st16" d="M511.8,249c2.1,0.8,4.2,0.3,5.5-1.6"/>
			<path class="st13" d="M304.4,248.5c0-5.5,4.7-9.9,10.5-9.9s10.5,4.5,10.5,9.9s-4.7,9.9-10.5,9.9S304.4,254,304.4,248.5z"/>
		</g>
		<g id="tata_olhos_fechados_3_">
			<path class="st15" d="M304.1,247.2c2.4-7.3,17.8-8.6,34.3-3.1"/>
			<g>
				<path class="st15" d="M524.8,247.2c-2.4-7.3-17.8-8.6-34.3-3.1"/>
				<g>
					<path class="st15" d="M518.6,243c1.6-1.8,1.8-3.9,0.8-6"/>
					<path class="st15" d="M524.1,243.8c1.8-1.6,2.4-3.7,1.6-5.8"/>
				</g>
			</g>
			<g>
				<path class="st17" d="M308.8,242c-0.3-2.4,0.8-4.2,2.9-5.2"/>
				<path class="st17" d="M304.4,244.6c-1.3-2.1-1.3-4.2,0-6"/>
			</g>
		</g>
		<path class="st18" d="M396.8,316.3c0,0,11.8-8.9,17.5-7.9c4.5,0.8,6.5,16,6.5,16"/>
		<path id="sobramc_d_6_" class="st19" d="M517,215.3c5.8,1.6,11.3,3.9,17.3,5.8c7.9,2.4-3.1-4.5-3.1-4.5c-8.9-5.2-9.9-5.2-12-6
			c-12.6-2.1-25.9-2.6-29.1,0.5c0,0.3,1.8,3.4,4.5,3.1C501,214.5,513.1,214.2,517,215.3z"/>
		<path id="sobramc_d_5_" class="st19" d="M317.7,215.5c-5.5,1.8-11,4.7-16.5,7.1c-7.6,2.9,2.9-4.7,2.9-4.7c8.6-6,9.7-6,11.5-6.8
			c12.3-2.9,25.7-4.5,29.1-1.6c0,0.3-1.6,3.7-4.5,3.4C333.5,213.4,321.4,214.2,317.7,215.5z"/>
		<path class="st20" d="M385.8,343.8c4.2,11.3,28.3,16,37.4,6.5"/>
		<g>
			<g class="st21">
				<path class="st22" d="M540.3,312.9c0,10.7-9.2,19.4-20.2,19.4c-11,0-20.2-8.6-20.2-19.4c0-10.7,9.2-19.4,20.2-19.4
					C531.4,293.5,540.3,302.2,540.3,312.9z"/>
			</g>
			<g class="st21">
				<ellipse class="st23" cx="286.1" cy="307.2" rx="20.2" ry="19.4"/>
			</g>
		</g>
	</g>
	<g>
		<path class="st24" d="M408.1,552.7c-4.7,0-9.9-0.3-14.7-0.5c-139-7.9-245.3-127.5-237.5-266.3c3.9-67.3,33.8-129.1,84-173.8
			s115.2-67.3,182.5-63.4c139,8.1,245.3,127.5,237.5,266.5C652.1,449.1,540.6,552.7,408.1,552.7z M407.5,67.6
			c-57.1,0-111.5,20.7-154.5,58.9c-46.3,41.6-73.8,98.4-77.5,160.5c-7.6,128.3,90.9,238.5,218.9,245.8c4.5,0.3,9.2,0.5,13.6,0.5
			c122.3,0,225.2-95.8,232.2-219.4c7.3-128.3-90.9-238.5-219.1-246.1C416.7,67.9,412.3,67.6,407.5,67.6z"/>
	</g>
	<g>
		<path class="st25" d="M639,336.7c-9.7-12-25.7-37.4-25.1-60.7c0.5-18.1-1.6-35.9-6.8-53.1c-7.3-81.7-46.9-116.8-68.9-125.9
			c-63.4-26.4,35.9,25.4,37.2,48.2c2.1,34.3-5.8,140.9,0.8,163.4l0,0c4.2,14.9,8.9,27.5,13.9,35.9c11.5,20.7,42.7,30.9,60.2,26.2
			C663.6,367.4,656.8,359,639,336.7z"/>
		<path class="st25" d="M585.8,148.5c-1.6-27.8-45.3-63.1-99.2-71.7c-25.9-3.9-44.5-8.1-78.3-7.3c-2.6,10.7-5.2,32.5,2.1,45.6
			c3.9,6.8,10.5,11.3,21.7,10.2c46.1-3.1,91.4,3.1,113.9,25.4c7.9,7.9,13.1,17.8,14.4,29.8c6,39.8,14.9,113.4,22.5,129.9l4.2,5.8
			c33,40.8,13.6-5.5,11.8-11C586.4,261.3,587.9,179.4,585.8,148.5z"/>
		<path class="st25" d="M187.4,339.4c9.7-12,25.7-37.4,25.1-60.7c-0.5-18.1,1.6-35.9,6.8-53.1c19.4-61.8,10.5-89.3,69.1-125.9
			c63.1-26.4-35.9,25.4-37.2,48.2c-2.1,34.3-7.6,114.2-0.8,163.4l0,0c-4.2,14.9-8.9,27.5-13.9,35.9c-11.5,20.7-42.7,30.9-60.2,26.2
			C162.8,370,169.6,361.6,187.4,339.4z"/>
		<path class="st25" d="M241,153.7c1.3-22.8,49-69.4,102.6-77.8c25.9-3.9,44.5-8.1,78.3-7.3c2.6,10.7,5.2,32.5-2.1,45.6
			c-3.9,6.8-10.5,11.3-21.7,10.2c-46.1-3.1-91.4,3.1-113.9,25.4c-7.9,7.9-13.1,17.8-14.4,29.8c-6,39.8-8.6,93.2-19.6,131.4l-1.6,5
			c-27.8,39.3-17.8-1.6-15.2-11C249.9,260.3,239.2,184.6,241,153.7z"/>
		<path class="st24" d="M569.6,239.3l-4.5-28.3h-2.9c-2.4-8.4-7.6-13.9-13.9-13.9H445.5c-5.2,0-9.7,3.9-12.3,10.2l-31.4,0.3
			c-2.4-8.6-7.6-14.4-14.1-14.4H284.8c-6.8,0-12.3,6.5-14.4,16.8l-5,1l-4.2,27.5l8.1,6v18.1c0,15.2,6.5,26.2,15.4,26.2h103.2
			c8.9,0,15.4-11,15.4-26.2v-42.9c7.1-1.3,19.6-3.1,27-1.3c-0.3,1.6-0.3,3.4-0.3,5.2v43.2c0,15.2,6.5,26.2,15.4,26.2h103.2
			c8.9,0,15.4-11,15.4-26.2v-22L569.6,239.3z M392.6,262.4c0,10.2-3.7,15.2-4.7,15.4H284.8c-1.3-0.3-5-5.5-5-15.4v-43.2
			c0-1.3,0.3-2.6,0.3-4.2c0.8-7.3,3.7-11.3,4.7-11.5h103.2c1.3,0.3,5,5.5,5,15.4L392.6,262.4L392.6,262.4z M553.6,266.6
			c0,10.2-3.7,15.2-4.7,15.4H445.8c-1.3-0.3-5-5.5-5-15.4v-43.2c0-10.2,3.7-15.2,4.7-15.4h103.2c1.3,0.3,5,5.5,5,15.4L553.6,266.6
			L553.6,266.6z"/>
	</g>
	<path class="st26" d="M256.5,502.5c1,4.2,3.7,3.9,4.5,2.6c-0.3,2.4,2.1,9.4,6.5,4.5c-0.8,1.8,2.9,11.3,7.6,4.5
		c-0.8,3.1,3.1,11.8,8.4,4.7c5-7.1,5.5-24.1,11.5-21.5c6,2.6,2.9,9.2,9.4,10.5c6.5,1,5.2-10.5,3.9-13.4c-1-2.9-2.9-8.6-3.7-11.3
		c-0.5-2.1-1-3.9-0.8-7.9c0.8-3.4,1.3-2.4,2.9-7.1c-0.5,0-29.8-1-39.3-4.7C261.2,477.1,254.9,495.1,256.5,502.5z"/>
	<path class="st26" d="M535.1,458.5C533,459,495.5,464,495,464c1.6,4.7,3.9,12.3,4.7,15.7c0.5,1.8,0.3,6-0.3,8.1
		c-0.5,3.1-1.3,5.2-2.4,8.1c-1,2.9-3.4,14.7,3.1,13.6c6.5-1.3,8.6-9.4,14.7-12c6-2.6,2.4,15.7,7.3,22.8c5.2,7.1,9.2-1.6,8.4-4.7
		c4.5,7.1,8.4-2.6,7.6-4.5c4.5,5,6.8-2.1,6.5-4.5c0.8,1.3,3.4,1.8,4.5-2.6C550.2,495.7,541.6,472.4,535.1,458.5z"/>
</g>
<g class="st12">
	<path class="st27" d="M1412.6,369.5c0,24,0,48,0,72c-1.5,2.1-3.5,1.5-5.3,1.5c-41,0-82-0.7-123,0.2c-54.2,1.2-108.3-0.1-162.5,1
		c-33.4,0.7-66.7,0-100.1,0.9c-62.5,1.8-124.9,0.3-187.4,1c-5,0.1-10.1-0.6-15.1,0.7c-1.2,0.3-2.5,0-3.5-1.3c0-24.3,0-48.6,0-73
		c1.5-2,3.5-1.5,5.3-1.5c16,0,31.9,0,47.9,0c0.7,0,1.4,0,2.1,0c3.5,0,7,0,10.6,0c33.3,0,66.6,0,100,0c18.1,0,36.2,0.2,54.3-0.2
		c10-0.2,20,0.9,30-0.6c5.3-0.8,10.8-0.3,16.3-0.3c32.7,0,65.4-0.2,98.1,0.1c10.8,0.1,21.6-1.2,32.4-1.2c39.2,0.2,78.5,0.2,117.7,0
		c10.2-0.1,20.3-1.1,30.5-0.9c15.6,0.2,31.3,0,46.9,0C1409.4,368,1411.3,367.5,1412.6,369.5z"/>
	<path class="st28" d="M815.8,518.4c0-23.7,0-47.3,0-71c3.4-2.1,7.1-1.4,10.6-1.4c56.8-0.3,113.6,0.5,170.4-0.4
		c34.3-0.6,68.6,0.2,102.8-0.9c46.1-1.4,92.2,0,138.2-1c11.4-0.2,22.8-0.2,34.2-0.6c20.4-0.8,40.7-0.2,61.1-0.2
		c24.9,0,49.7,0,74.6,0c1.7,0,3.5-0.5,4.9,1.5c0,23.7,0,47.3,0,71c-1.8,2.2-4,1.5-6.1,1.5c-67.1,0.1-134.2-0.4-201.4,0.2
		c-37.4,0.4-74.7,0.1-112.1,1c-33.8,0.8-67.7,0.4-101.5,0.9c-6.5,0.1-13.1,0.7-19.6,0.7c-12.8,0-25.5,0.2-38.3,0.2
		c-19.3,0-38.5-0.1-57.8,0c-13.9,0.1-27.7,0-41.6,0c-4.9,0-9.8,1.8-14.8,0.2C818.2,519.8,816.8,519.8,815.8,518.4z"/>
	<path class="st29" d="M815.8,221.6c0-23.3,0-46.6,0-70c1.1-1.7,2.7-1.5,4.2-1.5c12.4,0.1,24.8-0.1,37.2-0.2
		c6.8-0.1,13.6-0.2,20.4-0.3c11-0.2,22-0.3,33,0c10,0.3,20.1-0.7,30.1-0.4c13.7,0.5,27.5,0.1,41.2,0.1c19.9-0.1,39.7-0.1,59.6-0.2
		c42.7-0.1,85.5,0,128.2,0c19,0,38,0,57,0c6-0.4,12,0.8,18-0.7c0.7-0.2,1.4-0.3,2.1-0.3c25.5,2.1,51.1,0.5,76.6,0.9
		c7,0.1,14.1,0.7,21-0.2c9.8-1.2,19.5-0.4,29.3-0.6c11.5-0.2,23-0.2,34.6-0.1c1.6,0,3.3-0.4,4.5,1.5c0,23.3,0,46.6,0,70
		c-1,1.5-2.4,1.5-3.8,1.5c-10.4,0.4-20.9,0.3-31.3,0.5c-37,0.8-74,0.3-111,0.5c-7.4,0-14.9,0.1-22.3-0.1c-3.9-0.1-7.6,1.5-11.5,1
		c-3-0.9-6-1.6-9-0.2c-0.7,0.1-1.4,0.2-2.1,0.2c-102.5,0-205,0-307.5,0.1c-12.4,0-24.8,0.1-37.2,0.2c-16.2,0.2-32.5,0.5-48.7,0.2
		c-1.9,0-3.7,0.2-5.6,0.4C820.2,224.3,817.7,224.5,815.8,221.6z"/>
	<path class="st30" d="M1412.6,517.4c0,23.7,0,47.3,0,71c-1.4,2-3.2,1.5-4.9,1.5c-28.2,0-56.4,0-84.6,0c-16.6,0-33.3-0.5-49.9,0.1
		c-49.6,1.7-99.2,0.4-148.8,1c-8.5,0.1-17.1-0.5-25.6,0.1c-12.6,0.9-25.3,0.5-37.9,0.8c-2.4,0-4.7,0-7.1,0c-4.3,0-8.5,0-12.8,0
		c-15.1-0.1-30.3-0.5-45.4,0.2c-39,1.7-77.9,0-116.8,1c-19.3,0.5-38.7,0.8-58,0.8c-1.7,0-3.5,0.5-4.9-1.5c0-23.3,0-46.6,0-70
		c1.3-1.9,3.1-2.7,4.8-2.2c3.6,1,7.1,0,10.7-0.2c8.7-0.5,17.4,0.1,26,0c5.6,0,11.2-0.1,16.7-0.1c27.1-0.1,54.2,0.4,81.3-0.1
		c36.6-0.7,73.2-0.8,109.8-1c5.6,0,11.3-0.5,17-0.7c15.7-0.5,31.5-0.1,47.2-0.2c13.3-0.1,26.6,0,39.9-0.3
		c64.6-1.3,129.2-0.3,193.8-0.7c10.3-0.1,20.5-0.3,30.8-0.2c5.1,0.1,10.2-0.7,15.2-0.2C1410.3,516.6,1411.6,516.2,1412.6,517.4z"/>
	<path class="st31" d="M815.8,295.5c0-23.3,0-46.6,0-70c4-2.9,8.5-1.8,12.7-1.9c12-0.4,24-0.5,36-0.4c9.8,0.1,19.6-0.7,29.4-0.1
		c5.1,0.3,10.2-0.1,15.2-0.1c105.1,0,210.3,0,315.4,0c38.7-1.7,77.5-0.8,116.2-1c18.2-0.1,36.4-0.6,54.6-0.5c4.3,0,8.7-0.8,13-0.5
		c1.5,0.1,3-0.2,4.2,1.5c0,23.3,0,46.6,0,70c-1.3,1.8-3.1,2.1-4.8,1.9c-9.3-0.9-18.6,0.6-27.9,0.6c-21.5,0-43-0.3-64.5,0.1
		c-12.8,0.2-25.5,0.2-38.3,0.3c-12.3,0-24.6-0.3-36.8-0.1c-17.1,0.2-34.2,0.7-51.3,0.7c-41.9,0-83.8,0-125.7,0
		c-11.4,0-22.7,0.9-34,0.9c-69.4,0.2-138.8,0.1-208.2,0.1C819.3,297,817.3,297.7,815.8,295.5z"/>
	<path class="st32" d="M815.8,148.6c0-13.7,0-27.3,0-41c197.8,0,395.7,0,593.5-0.1c2.8,0,3.5,0.8,3.4,4.6c-0.2,11.5-0.1,23-0.1,34.5
		c-1.4,2-3.2,1.5-4.9,1.5c-17.3,0-34.5,0.1-51.8,0c-52.8,0-105.6,0-158.4,0c-1.7,0-3.5-0.2-5.2,0.6c-5,1-10.1,0.4-15.1,0.4
		c-4.6-0.4-9.2,0.1-13.7,0.1c-33.4,0-66.8,0-100.2,0c-22.8,0-45.7-0.1-68.5,0c-16.1,0.1-32.2,0.4-48.3,0.3
		c-16.5-0.1-33,0.5-49.5,0.2c-9.5-0.2-19,0.6-28.4,0.3c-10.8-0.3-21.5,0.3-32.3,0c-5.4-0.1-10.9,0.2-16.4,0.2
		C818.5,150.1,816.9,150.3,815.8,148.6z"/>
	<path class="st27" d="M1412.6,296.5c0,1,0,2,0,3c-1.6,3.5-3.8,4.6-6.7,3.1c-1.2-0.6-2.4-0.6-3.6-1c-1.4-0.5-2.1-0.5-2.6,1.9
		c-1.1,5-3.4,5.4-6.1,1.4c-0.4-0.6-0.7-1.5-1.4-1.2c-0.7,0.3-0.8,1.2-0.9,2c-0.3,2,0.3,4.8-1.9,5.2c-2.2,0.4-3.3-1.8-4.2-4.1
		c-1.5-3.7-3.6-5.8-7-4.3c-1.6,0.7-3.2,0-5.1-0.5c1.2,1.6,3.1,2.4,2.2,4.9c-0.5,1.6-1.7,1.6-2.9,1.6c-4.4-0.2-4.4-0.2-3.1,6.3
		c0.4-3.5,1.8-5.4,4.3-5.4c1.4,0,2.1-0.7,2.7-2.6c1-2.9,3.2-3.3,4.8-1c3,4,3.5,9.5,3.9,14.7c0.3,3.9-6.4,8.5-9,6.3
		c-3.1-2.7-5.9,1.3-8.9,0.2c-0.3-0.1-0.7,0.9-0.5,1.6c0.2,0.8,0.8,1,1.2,0.7c3-2.5,5.5,0,8.1,1.4c3.9,2.1,8.1,1.7,12.1,2.5
		c1.7,0.3,3.5,0.4,5,1.5c1.3,0.9,2.2,2.4,1.9,4.4c-0.3,1.9-1.5,2.5-2.8,2.8c-2.1,0.4-4-0.1-5.6-2c-1.1-1.3-2.4-2.4-3.6-0.8
		c-1.5,1.9,0,3.3,0.8,4.6c1.5,2.6,1.4,5-1.1,5.7c-2.3,0.7-4.1,2.1-6.1,3.4c-1.2,0.9-2.7,1.1-3.9-0.3c-1.2-1.4-0.9-3-0.1-4.5
		c0.9-1.8-0.1-2.7-1-3.8c1,5.8-2.4,11.3-8.6,14.5c0.7-0.5,1.9-1.2,3.1-1.3c1.7-0.1,2.1-2,3.1-3.2c0.5-0.6,1.1-0.4,1.8-0.2
		c5.6,2,9.8-1.2,13.4-6.6c1-1.5,1.7-3.3,3.6-2.7c1.6,0.5,2.1,2.2,2.1,4.2c0,0.7,0,1.4,0.3,1.9c0.9,1.7,2.3,2.7,3.7,3.2
		c3.2,1.1,5.1,6.8,9.3,4.3c1.4-0.9,3.1-1.3,4.6-1.9c1.6-0.7,3.2-1,4.5,0.8c0,3,0,6,0,9c-1.3,1.9-2.9,1.5-4.5,1.5
		c-11.2,0-22.4,0-33.5,0c-9.4,0-18.8-0.2-28.2,0.2c-41,1.7-81.9,0.2-122.9,0.9c-7.8,0.1-15.6-1-23.3,0.1
		c-11.5,1.6-23.1,0.5-34.6,0.7c-2-0.9-1.7-1.9-0.5-3.8c2.6-3.9,2.6-9,0-11.3c-1.3-1.1-2.7-2.7-4.4-1.1c-1.7,1.5-2.8,3.4-2.2,6.3
		c-0.1-4.1,1.2-6.5,3.8-6.5s4.7,3.2,4.7,6.9c0,3.9-2.4,5.9-3.8,8.7c-0.9,0.7-1.7,0.7-2.7,0.3c-3.2-2.1-6-4.7-6.4-10.1
		c-0.7-7.5,3-12.5,8.7-11.5c1.4,0.3,3,0,3.6,0.8c-2.9-1.2-6.3-2.5-9.8,1.1c-2.8,2.9-2.9,6.7-2.6,10.8c0.2,2.5,1.4,4.3,2.6,5.8
		s1.1,2.4-0.3,3.3c-7.2,0.7-14.4,0.2-21.6,0.2c-20.3,0.1-40.5-0.1-60.8,0.1c-7.5,0.1-15,1.1-22.6,0.9c-11.5-0.3-23.1,0.3-34.6,0
		c-0.9,0-1.7-0.3-2.5-0.6c-0.6,0-1-2.6-1.8-0.2c-2,1.4-4.2,0.8-6.2,0.8c-39-0.1-78-0.1-117,0.1c-8,0-16.1-0.9-24.1,0.3
		c-15.4,0.1-30.8,0.2-46.2,0.1c-1.1,0-2.2,0.1-3.2-1c0-0.3,0-0.7,0-1c2.5-5.2,7-6,10.6-8.7c1.3-1,2.7,0.2,3.8,1.3
		c2.1,2,4,1.8,6.1-0.3c3.5-3.4,5.1-2.6,6.4,2.8c0.3,1.2,0.6,2.3,1.6,2.3c1.7-0.1,3-1.4,4.1-3.2c0.8-1.3-0.2-2.1-0.8-2.9
		c-0.2-0.2-0.4-0.4-0.6-0.7c-1.4-1.7-2.1-3.6-0.5-5.5c1.4-1.7,2.8-0.8,3.9,0.9c2.2,3.3,4.7,5.7,8.1,6.5c3.5,0.8,6.9,1.2,10.2-0.6
		c2.2-1.2,4.1-1.3,5.8,1.2c0.9,1.2,2,2.3,3.3,2.1c5.5-0.6,11.2,0.9,16.6-2.6c-3.7-2.6-7.4-4.8-11.5-5.9c-3.5-1-4.3-2.6-3.9-7.4
		c0.1-1.2,0.3-2.3,0.4-3.5c0.2-2.4,0.6-4.7,2.5-5.7c2.1-1,3.9-0.3,5.4,1.9c0.7,1,1.3,2.2,2.5,1.8c1.4-0.4,1-2.1,1-3.3
		c0-2.5,0.5-4.7,2.5-5.5c1.6-0.6,3.1-0.2,4,1.6c1.2,2.5,1.8,5.2,0.7,8c-0.5,1.4-1.5,2.2-2.3,3.2c-2.6,2.9-3.1,5.4-1.6,7.4
		c1.6,2.1,5.5,1.9,7.2-0.6c1.2-1.9,2.2-4,3.4-5.9c1.1-1.7,1.5-4.5,3.9-2.2c2.6,2.5,3.5,5.4,2.3,8.4c-0.4,0.9-1.5,1.3-1.1,3.4
		c1.8-2.6,3.9-3.5,6.4-3.4c4.1,0.2,4.4,0.6,2.7,5.7c0.7,1,1.6,0.8,2.4,0.6c3.2-0.9,6.4-2,8.4,3.1c0.3,0.8,1.5,1,2.1,0.6
		c3.6-2.5,7.6-1.3,11.3-1.5c2.6-0.2,4.7-1.6,6.8-3.4c1.9-1.6,4.3-4,5.2,1.7c0.2,1.4,8.2,3.2,9.2,2c2.6-3,5.1-3.8,8.1-1.1
		c1.1,1,2.6,0.8,4,0.3c0.5-1.9-1-2.5-1.3-3.9c-0.4-1.6-0.3-3,0.6-4.1c1.1-1.3,2.4-1.2,3.4,0.2c1.4,1.9,2.8,4,3.1,6.7
		c0.3,2.8,1.6,3.5,3.4,3.5c2.7,0.1,5.4,0.1,8-1.8c2.5-1.8,5.3-1.2,8.1-0.9c4.4,0.4,8.9,1.5,12.9-2.6c1.7-1.7,3.8-1.1,5.6,0.3
		c2.9,2.2,5.8,4,9,0.8c0.4-0.4,1.1-0.7,1.4-0.3c2.3,3.6,5.5,0.1,8.1,1.7c1.6,1,3-1.1,3.9-3c0.9-1.7,0.1-3.2-0.7-4.5
		c-1.9-3-3.3-6.6-6.5-7.8c-1.6-0.6-3.3-2.2-3.3-4.9c0-2.4,1.6-3.2,3.1-3.7c2-0.6,4.2-0.8,5.3,2c1,2.4,1.8,4.1,4.2,3.4
		c1.5-0.4,2.4,0.8,2.2,2.9c-0.6,5.4,2.2,10.2,1.7,15.7c-0.2,1.9,1.5,1.4,2.3,1.3c2.9-0.3,5.4-2.3,8.1-2.9c0.2-2.1-1-1.8-1.7-2.2
		c-2.8-1.7-3.1-3.9-0.8-6.7c0.5-0.7,1.2-1.2,1.8-1.7c2-1.9,4.7-3.5,0.9-7c-1.3-1.2-0.8-3.3-0.2-5.1c1.1-2.8,2-5.7,1.8-9
		c-0.1-1.9,0.7-3.2,2.1-3.5c1.4-0.4,2.6,0.5,2.8,2.4c0.4,3.5,3.1,4.1,4.2,6.7c1.5,3.6,5.4,4.9,5.5,10.1c0,1.1,1.8,0.8,2.6,1.4
		c2.3,1.8,5.8,0.1,7,5.7c0.8,3.9,6.8,3.7,8.9,0.1c1.1-2,3.3-3.2,0.8-7c-2.1-3,1.3-4.1,2.9-5c-1.9-2-3.8-4-5.9-5.8
		c-2-1.8-3.1-0.9-4.3,1.2c-1.1,1.9-1.9,3.9-2.6,6.1c-0.5,1.5-1,3-2.2,4c-0.8,0.6-1.6,1.1-2.5,0.4c-0.9-0.8-0.9-2-0.4-3.1
		c0.9-2.4,1-4.7,0.3-7.2c-0.2-0.6-0.3-1.4,0-2c2-4.3,4.4-8.2,6.3-12.8c0.7-1.8,2.3-0.5,3,1c1.6,3.3,4,3.8,6.7,4.4
		c4.1,0.9,8.3,2.2,10.2,8.5c0.7,2.3,2.1,2.8,3.9,1.1c5.9-5.5,12.5-5.3,19.2-3.2c0.9,0.3,1.2,0.2,2.1-0.7c2.3-2.6,4.9-4.5,8.1-3.2
		c1.8,0.7,2.7-0.5,3.6-2.4c0.9-2.1-0.2-2.5-1.1-3.3c-1.1-0.9-1.1-2.5-1-4c0.1-1.6-0.4-2.8-1.2-4c-3.2-4.6-2.8-6.4,1.7-8.9
		c-2.8,0-5.2,1.7-7.8,2.9c-1.8,0.9-3.9,2.1-4.1-2.8c-0.1-3.6-2-0.2-3-0.8c2.9,2.6,4.7,7.6,9,6.4c0.9-0.2,1.5,1,1.7,2.3
		c0.2,2.3-0.8,3.3-2.4,3.9c0.5,0.5,1.1,0.2,1.6,0.4c2.1,0.7,4.1,1.8,3.6,5.2c-0.5,3.2-2.5,3.9-4.7,3.1c-1.6-0.6-3.1-0.5-4.6,0.6
		c-2.2,1.5-3.3,0.4-3.5-3.2c-0.4-7.7-1.7-9.7-7.4-11c-3.3-0.8-6.3-3.2-9.2-4.9c-3.1-1.8-6-2.9-9.2-2.8c-6.1,0.2-12.4,0.4-18.1-1.3
		c-4.5-1.3-8.5-0.1-12.7-0.6c-0.8-0.1-1.6-0.1-2.2,0.3c-4.4,3-9.1,1.5-13.7,2.1c-0.6,0.1-1.3,0.1-1.8-0.2c-5.5-3.7-11.2-2-16.9-1.8
		c-6.9,0.2-13.9-0.2-20.8-1.9c-2.6-0.6-2.9-2-1.3-4.6c10-1.1,20-0.5,30-0.8c3.8-0.1,7.7-0.4,11.5-0.4c46.6,0,93.2-0.1,139.9,0
		c9.3,0,18.6-0.7,28-0.5c14.6,0.2,29.3,0.2,43.9-0.1c11.1-0.2,22.3-0.1,33.4-0.3c28-0.4,55.9,0,83.9-0.3c7.7-0.1,15.3-1,23-0.4
		C1409.3,294.7,1411.2,294.5,1412.6,296.5z"/>
	<path class="st33" d="M1012.8,298.5c2.6,3.7,6.3,2.8,9.4,2.8c6.4-0.1,12.8,3.2,19.1-0.6c3.4,3.4,8.2-2.6,11.3,3.3
		c0.5,1,2.1,1,2.8,0.2c1.9-1.9,3.5-1,5.1,0.3c1.1,0.9,1.9,0.2,3-0.3c2.9-1.3,5.6-4.7,9-1.5c0.9,0.8,1.9-0.4,2.6-1.3
		c1.8-2.4,3.4-2.2,5.2,0.1c1.4,1.8,3,2.7,5,0.7c1.7-1.7,2.8,1.4,4.5,1.4c5.6,0,11.1,0.2,16.7,0.3c0.5,0,1.2-0.4,1.4-0.1
		c2,2.9,5,2.8,7.2,4.3c2.5,1.8,4.7,3.4,7.7,3.7c3.2,0.3,6.4,7,5.7,11.2c-0.2,1.3-0.7,2.8,0.3,3.7c1.2,1.1,1.4-0.8,1.9-1.5
		c1.6-2.4,3.4-0.8,4.8-0.1c1.3,0.7,2.2,0.9,3.3-0.4c0.6-0.8,1-1.6,0.6-2.6c-0.7-1.6-1.9-2.1-3.1-2.4c-0.5-0.1-1,0.1-1.5,0.3
		c-1,0.3-2.4,1.4-2.8-0.6c-0.3-2,1-2.8,2.4-2.8c1.2,0,2.5-0.3,2.1-2.4c-0.4-2.3-1.6-1.3-2.6-0.5c-0.1,0.1-0.2,0.2-0.3,0.3
		c-0.9,0.4-9.3-7.2-9.4-8.5c-0.1-1,0.3-1.4,1-1.8c1.9-1.1,4.8-0.9,7.1,0.7c0.3,2-1.8,1.6-1.8,4.3c4.9-2,9.5-5.5,14.8-4.1
		c-0.2,2.9-2,2.8-3.7,3.2c-1.2,0.3-2.7,0.7-2.9,2.5c-0.3,2.1,1.2,3.5,2.4,3.9c2,0.7,2.4,1.3,1.3,4c-0.8,2.1-1,5,2.1,3.8
		c0.6-0.2,1.3-0.3,1.6,0.6c0.3,0.9,0,1.6-0.6,2.1c-1.2,1-1.3,2.8-1.8,4.2c-0.5,1.2-1.1,3-2.1,2.2c-3.3-2.9-6.2,0.6-9.3,0.8
		c-0.7,1.4,1.7,1.8,0.7,3.2c-0.6,0.9-1.9,0.8-2.4,0.1c-3.5-4.9-8.3,0.4-12-3c-2.3,2.7-5.7,2.2-8,4.9c-0.8,0.9-0.9,3.5-2.3,2.6
		c-1.4-0.9-3.1-2.6-3.4-4.3c-1.2-6.8-5.7-6.8-9.1-7.5c-3.2-0.6-5.8-1-7.3-5.3c-0.8-2.3-1.9-1.6-2.2,0.3c-0.5,4.3-2.1,7.3-4.9,9.5
		c-0.5,0.4-0.9,1.5-0.5,2.2c1.9,3.6,1.6,7-1.6,10.5c2.9,0.1,3.7-1.5,4.2-3.4c0.5-1.7,0.9-3.5,1.6-5c1-2.1,2-4.3,3.4-5.8
		c2.5-2.7,2.5,2.5,4.2,2.9c3.4,0.8,4.8,5.9,8.4,6.6c-0.5,0.8-0.6,1.1-0.8,1.2c-1.9,0.5-4.7-1.1-5.4,1.9c-0.6,2.8,3,2,3.8,4.7
		c-1.7,1.6-3.4,3.1-4.4,6.1c-1.2,3.8-5.7,3.5-6.4,2.2c-2-3.9-3.9-2.1-5.8-0.9c-0.7-1.5-0.2-2,0.3-2.5c0.6-0.7,1.8-1,1.3-2.5
		c-0.3-1.1-1.3-0.6-2-0.9c-2.1-0.9-4.1-2.1-6.5-2c-1.7,0.1-2.4-1.5-1.9-3.8c0.6-2.5-0.1-3.9-2-4.1c-1.4-0.1-2-1-2.2-2.7
		c-0.2-1.7-0.9-2.9-2.3-3.6c-1.5-0.7-3.1-1.5-2.3-4.6c0.4-1.4-0.5-2.2-1.5-2c-1.1,0.2-2,0.7-1.4,2.6c1,3.5-0.4,6.4-1.7,9
		c-1.4,2.9-1.5,4.3,1.3,5.3c2.9,1.1,2.6,3.1,0.4,5.1c-1.6,1.5-3.3,2.9-4.9,4.4c-0.7,0.7-1.5,1.5-1.2,2.8c0.3,1.3,1.3,1.8,2.1,1.5
		c2.6-0.9,3,1.1,2.9,3.7c-0.1,3.8-2,1.4-3.2,1.8c-3,0.9-5.6,3.3-8.9,2.7c-2.3-0.4-3.4-0.3-1.5-3.8c1.7-3.2-0.8-6.4-1.2-9.7
		c-0.3-2.4-1.1-4.5,0.6-6.6c-1.7-0.9-2.7,0.1-3.7,0.5c-1.8,0.6-3,0.5-2.7-2.7c0.2-2.2-0.5-3.6-2.2-3.8c-1.8-0.2-3.5-0.1-4.9,1.7
		c-0.6,0.7-0.2,1.6,0.3,2.1c0.8,0.8,1.6,2.1,2.4,2.2c4.5,0.5,5.4,6.3,8,9.7c1.6,2.1,1.3,4.2-0.4,5.9c-1.6,1.6-2.9,5.1-5.5,2.5
		c-1.3-1.3-2.2-0.6-3.3,0.1c-1.9,1.3-3.8,1.6-4.3-2.3c-2.5,3.4-6.5,4.2-9.4,1c-3.1-3.5-5.3-2.4-8.1,0.6c-3,3.3-6.7,0.8-10,0.9
		c-3.5,0.1-6.8-1-10.3,1.7c-2.8,2.2-6.5,1.1-9.9,0.3c-0.8-0.2-2-1.1-1.5-2.3c1.4-3.7-2.1-4.7-2.2-7.7c0-1.4-1.5-1.8-2.4-0.9
		c-1.1,1.1-1,2.6,0,3.8c0.6,0.7,1.8,0.6,1.9,2.1c0.1,1.4,1.2,3.2-1.3,3.2c-2.4-0.1-4.8,1.3-6.9-1.8c-1.2-1.8-2.9-0.7-3.9,1
		c-2.1,3.7-4.4,3.6-7.1,1.3c-2.2-2-4.7-0.8-7-0.2c-0.2-1.9,0.6-1.8,1.1-2.2c0.8-0.6,1.5-1.5,0.7-2.8c-0.6-1-1.3-0.7-1.9,0
		c-0.8,1-2.2,1.4-2.8,2.3c-2.6,4.2-6,2.6-9.2,2.8c-2.2,0.1-4.4-0.9-6.7,1.2c-1.6,1.5-4.6,2.2-5.6-2.5c-0.4-2.1-1.5-3.2-3-1.7
		c-1.1,1.1-2.4,0.9-3.6,0.8c-1.6-0.1-3.8,1.1-4.6-0.7c-1-2.5,2.1-3.1,2.9-6.9c-2.9,3.4-6.8-2.2-8.5,4.8c-0.5,2-2.1,0-3-1.1
		c-0.8-0.9-1.6-2.6-0.3-3.3c5.3-2.8,2.6-5.3,0-7.9c-0.3-0.3-0.4-0.8-0.9-2c0.2,4.9-3.2,5.8-4.3,9.5c-1,3.6-4.2,3.8-7.2,2.8
		c-1.7-0.6-3.2-1.2-3.4-3.8c-0.3-2.7-0.3-5.2,1.9-6.9c2.4-1.7,4.7-3.6,3.3-8.5c-0.7-2.4-1.6-3.2-3.3-2.9c-1.8,0.3-2.1,2.1-2,4.1
		s1.6,4.5-0.8,5.5c-2,0.9-3.9,0.6-4.7-2.9c-0.5-2.2-2.2-1.8-3.5-1.7c-1.5,0.2-2,1.5-2.2,3.4c-0.9,8.8-1,9,5.3,11.3
		c3.6,1.3,6.6,4.7,10.4,5.3c0.5,0.1,1,0.3,1,1.2s-0.6,1.4-1.2,1.6c-2.5,0.9-5,2.3-7.5,2.6c-3.9,0.5-8.2,1.7-11.6-0.1
		c-3.9-2.1-6.9-4.3-11.4-1.7c-3.3,1.9-7.3-0.4-10.8-1.5c-1.9-0.6-4-3.3-5.2-6.3c-0.4-1.1-1-2.1-2-1.6c-0.4,0.2-0.8,0.8-1,1.3
		c-0.4,1.4,0.3,2,1.1,2.7c1.5,1.4,4.3,2.3,2.3,5.8c-2.2,3.9-5.9,5-7.9,3c-0.7-0.7-1.7-1-0.8-2.6c0.7-1.2,0.7-2.5-0.3-3.5
		c-1.2-1.1-2.8-0.6-3.4,0.5c-2.9,4.8-5.7,4.5-8.7,0.5c-0.9-1.2-1.9-1-3-0.2c-3.3,2.5-6.7,4.7-10.1,7c0-23.7,0-47.3,0-71
		c1.5-2.1,3.5-1.5,5.3-1.5c49.7,0,99.3,0,149,0c11.4,0,22.8,0,34.2,0C1007.2,297.1,1010.3,294.8,1012.8,298.5z"/>
	<path class="st34" d="M1412.6,591.4c0,15-0.1,30,0.1,44.9c0,3.3-0.4,4.1-3,4.1c-83.5-0.1-167-0.1-250.5-0.1c-43.4,0-86.7,0-130.1,0
		c-3-5.5-2.9-9.8,0.4-12.2c1-0.7,2.7-0.6,2.3-3c-0.3-1.4-1.3-1.3-2.2-1.4c-1.4-0.1-2.7,0.1-3.1,2.5c-0.2,1.5-0.5,2.9-1,4.3
		c-0.6,2-2.2,2.6-3.3,4.1c0.4,2.5,4.6,1.5,3.1,5.7c-4.5,0-9,0-13.4,0c-1-3.4-2-0.9-3,0c-0.5,0-1,0-1.5,0c-2.8-1.4-5-3.3-3.7-8.1
		c0.4-1.4-0.6-2-1-3c-1.4-3.7-0.8-6.1,2.2-8.1c-1.8-1.9-3.6-4-1.9-7.3c1.2-2.3,5.1-2.8,7.2-1c0.5,0.4,0.9,1.2,1.3,1.8
		c0.4,0.6,0.8,0.8,1.2,0.2c0.4-0.7,0.1-1.3-0.4-1.5c-0.8-0.4-1.7-0.7-2.5-1c-2.6-0.9-5.3-5.9-5.1-9.4c0.1-1.7,0.8-2.3,1.9-2.4
		c1.4-0.1,2.7,0.2,4,0.8c1.2,0.5,2,0.8,2.2-1.6c0.2-3.3,2.1-3.8,4.2-3.2c1.5,0.4,2.9,1.2,4.2,2.1c1.6,1.2,3.1,2.8,2.6,5.4
		c-0.5,2.8-2.5,2.9-4.3,2.5c2.2,2.2,3.8,0.2,5.3-1.5c1.3-1.4,0.6-2.9-0.4-4.2c-0.7-0.9-1.4-2.1-0.7-3.5c0.7-1.2,1.8-1.4,2.7-1.1
		c3.7,1.3,7.6,1.8,11.1,4.2c1.8,1.2,3.4,1.8,3.9-1.8c0.3-2.1,0.4-5,2.5-4.6c2.2,0.4,4.9,0.3,6,4c0.4,1.4,0.6,2.9,1,4.3
		c-0.3-3.5,0.1-6.4,3.1-7.2c2.6-0.7,4.5,1.6,5.8,6.7c2.1-5.2,8.4-8.6,12.3-6.1c3.3,2.1,6.2,2.3,9.8,0.9c8.6-3.2,17.4-2.8,26,0.7
		c1.1,0.4,2.2,1.4,3.2,0.5c5.8-4.7,12.1-1.6,18.2-2c2-0.1,3.9,0.2,5.9-0.7c3-1.3,6-1.1,9.2-0.4c4.9,1.1,9.9-0.7,14.8-0.4
		c7.8,0.4,15.6-1,23.4,0c2.6,0.3,5.2,0.2,7.8-0.1c1-0.1,2.3-0.8,2.9,0c3.3,3.8,6.3,1.3,9.5,0c2.2-0.9,4.5-1,6.7-0.4
		c8.8,2.4,17.6,0.9,26.4,0.1c6.4-0.6,12.8-0.1,19-1.1c5.8-0.9,11.4,3.3,17.1,0.2c6.2,3.8,12.4-0.9,18.6,0.3
		c6.8,1.3,13.6-1.7,20.3,0.3c0.8,0.2,1.8-0.1,2.6,0.5c4.7,3.5,8.8,1.5,12.8-2.3c0.9-0.8,1.9-0.6,2.9-0.1c4.5,2.5,9.3,3.1,14.2,2.9
		c1.5-0.1,3-0.3,4.4-1.2c2.4-1.5,4.6-0.6,7.1,0c4.3,1,9,2.3,13.3-0.8c0.5-0.3,0.9-0.7,1.4-0.4c4.4,2.3,8.2,0,12.1-2.3
		c9-0.1,17.9,0,26.8-0.1C1410,589.9,1411.5,589.7,1412.6,591.4z"/>
	<path class="st35" d="M1380.6,591.5c-2.5,2.4-5,4.5-8.4,3.2c-1.3-0.5-3.4-2.6-4.2,1.3c0,0.1-0.2,0.3-0.3,0.2
		c-4.6-1.5-9.5,1.7-14-1.5c-1.3-0.9-2.4-1.6-3.8-0.7c-7.2,4.4-14.2,2.9-21.2-1c-3.8-2.1-1.8,3.4-3.3,4.8c-1.4-2.5-3-3.7-4.7-0.1
		c-1,2.1-2.1,1.3-3.5,0.4c-6-3.8-12.2-4.7-18.6-2.3c-0.9,0.3-1.7,0.5-2.5,0.3c-5.9-1.5-11.7-2-17.4,0.9c-0.9,0.5-2.2,0.8-2.9-0.2
		c-2.2-3.2-4.7-2.2-7.2-1.5c-2.6,0.8-4.9,0.4-7.5-0.7c-3.9-1.7-8,0.3-12.1-0.1c-1.2-0.1-2.5,0.6-3.9,0.1c-4-1.7-7.6,1.8-11.6,1.5
		c-7.8-0.6-15.7,1.8-23.6-0.5c-3.7-1.1-8.1-1.5-11,3.9c-0.8,1.5-1.9,0.7-2.6-1c-1.1-2.8-2.7-3-5-2.6c-3.8,0.7-7.7,1-11.5-0.2
		c-4.1-1.4-7.9,1.1-12,0.7c-7-0.8-14-0.3-21,0.9c-3.2,0.5-6.2-3.2-9.6-0.7c-4.4,3.3-9.5,1.3-14,1c-4.6-0.4-8.2,0.2-12.2,2.8
		c-2.1,1.3-4.5-1.5-6.3-2.6c-3.7-2.2-7.3-0.4-10.9-1c-3.8-0.6-8-1-11.8,1.6c-0.2,0.1-0.6-0.1-0.7,0.1c-3.8,5.3-6.5,0-9.5-1.7
		c-0.7-0.4-1.4-1.3-2.1-0.7c-3.4,3.1-10,1.2-9,11c-1.9-1.3-1.3-3-1.4-4.3c-0.2-2.3-0.8-4.2-2.2-5.6c-1.2-1.2-2.6-1.1-3.8-0.1
		c-1.2,1-1,2.5-0.6,4c0.2,0.6,0.4,1.2,0.5,1.9c0.2,1.3,0.5,2.9-0.6,3.5c-1.1,0.6-1.3-1.1-1.8-2c-0.5-0.9-1.1-2.1-1-3.1
		c0.6-5.9-3.3-4.9-5.4-6c-1.4-0.7-1.5,1.8-1.2,3.1c0.4,2,0.7,3.9-1.1,4.4c-1.5,0.4-3,2.3-4.8-0.8c-1.9-3.2-5.8-1.6-8.6-3.5
		c-1.1-0.7-2.5-1.7-3.8-0.6c-0.3,3.2,4.7,1.8,2.8,6.5c-1.7,4.1-4.9,4.9-7.5,6c-1.2,0.5-1.8-5.2-2.5-8.5c1.8,0.2,2.1,2.2,3,3.2
		c1,1,1.5,0.3,2.3-0.3c1.2-1,0.5-1.9,0-2.8c-1.8-3.2-4.7-3.3-7.2-4.3c-1.3-0.5-2.2,1.3-1.1,3.3c0.6,1.2,0.9,2.5,0,3.6
		c-1.1,1.2-1.8-0.1-2.5-1c-1.8-2.1-4.1-0.4-6.5-2.8c1.7,6.4,2.5,11.9,8,10.7c1-0.2,2.4,0.6,2,2.1c-0.5,1.9-1.6,3.8-2.9,5
		c-0.9,0.8-1.6-0.7-2-2.1c-0.7-2.8-4.6-4.2-6.3-2.4c-0.6,0.6-1,1.5-0.9,2.6c0.1,1.1,0.4,2.5,1.5,2.4c1.9-0.1,3.1,0.9,2.4,3.5
		c-0.8,3.4-2.4,0.1-4,0.5c0.7,2.5-1.4,6.3,2.6,6.8c0.9,0.1,1,1.6,0.2,2.3c-3.7,2.9-1.4,4.8,0.5,6.9c0.4,0.4,0.6,1,0.9,1.5
		c-62.8,0-125.6,0-188.4,0.1c-2.9,0-3.4-1.1-3.4-4.7c0.2-13.5,0.1-26.9,0.1-40.4c1.1-1.7,2.7-1.5,4.2-1.5c13.4,0,26.8,0.5,40.2-0.1
		c40.3-1.8,80.7,0,121-1.1c20.4-0.6,40.9-0.4,61.3-0.8c13.5,0,27.1,0.4,40.6-0.1c50.2-1.8,100.4-0.5,150.6-0.9
		c8.3-0.1,16.5-1.1,24.8-0.9c15.1,0.3,30.2-0.3,45.3-0.2c24,0.2,47.9,0,71.9,0.1C1377.4,590,1379.3,589.2,1380.6,591.5z"/>
	<path class="st33" d="M1412.6,357.5c-3.5-0.6-6.4,2.5-9.6,2.8c-2.2,0.2-5,2.6-6.5-2.6c-0.6-2.1-3.7-1.8-5.4-3.5
		c-1.5-1.5-3.5-2.3-2.1-5.6c0.5-1.1-0.1-1.8-0.8-2.3c-1.1-0.8-2.1-0.2-2.5,1.1c-1.8,6-5.9,7.2-9.8,9.1c-2.4,1.1-4.2,1.5-5.5-1
		c-2.8,5.5-7.7,2.2-10.7,5.7c0.4-2.1,1.6-2.3,2.5-2.4c4.6-0.8,6.2-6.1,8.5-10.2c2-3.6-1.7-3.3-2.5-5.3c2.8-2.8,4.4,0.8,6.1,2.2
		c1.8,1.6-0.2,3-1.1,4.1c-0.4,0.5-0.7,1-0.5,1.7c0.2,0.9,0.8,1.4,1.5,1.2c1-0.2,2.3-0.3,2.8-1.2c1.4-2.5,2.9-3.5,5.2-2.7
		c0.7,0.3,1.5-0.4,1.7-1.5c0.2-1.2-0.4-1.8-1.1-2.4c-2-1.7-3.4-4-1.2-6.8c1.9-2.4,4-2.6,5.7,0.8c1.5,3.1,3.8,1.8,5.8,1.8
		c0.6,0,1.2-0.6,1.1-1.6c-0.2-1.6-0.8-2.8-2.1-3.1c-3.2-0.6-6.4-1.4-9.7-1.7c-2.4-0.2-4.6-0.4-6.8-1.7c-2.6-1.5-5.2-4.9-8.2-0.5
		c-0.5,0.8-1.4,0.5-1.9-0.6c-0.7-1.5-0.9-3.1-0.4-4.8c0.4-1.5,1.5-2.2,2.4-1.7c2.3,1.3,4.1,0.8,6-1.3c1.1-1.2,1.9-0.2,2.6,1.4
		c1.2,2.8,2.7,2.1,4.2,0.2c0.2-0.2,0.3-0.6,0.3-0.9c0.5-2.6,4.3-0.7,3.5-3.8c-1.1-4.2-1.1-8.9-3.2-12.7c-0.7-1.4-1.5-2.2-2.7-1.9
		c-1.7,0.4-0.8,1.9-0.8,3.1c-0.1,2.2-1,2.7-2.5,2.5c-4.2-0.6-4.4-0.3-3.8,5.1c0.1,0.6,0.4,1.3-0.1,1.8c-0.6,0.5-1.3,0.3-1.7-0.4
		c-1.8-3-2.8-6.4-1.9-10.2c0.7-2.8,2.3-1.4,3.8-1c1.2,0.3,3,2.3,3.5-0.3c0.4-2.2-1.5-2.5-2.9-2.7c-0.8-0.1-2,0.3-1.9-1.5
		c0.1-1.1,1-1.4,1.8-1.4c3.1,0,6.1,0.7,9.4-0.5c2.2-0.8,4.6,3,5.4,6.5c0.5,2.1,1.5,3.4,2.9,3.1c1.8-0.5,1-2.8,0.7-4.1
		c-0.6-2.7,0.2-3.6,1.9-4.3c1.8-0.8,2.6,0.2,2.7,2.5c0.1,2.1,0.8,3.2,2.4,2.5c1.2-0.6,2.3-1.6,1.7-3.8c-1.4-5.3,0.8-3.6,2.9-2.9
		c3.6,1.2,7.3,3.9,11-0.1C1412.6,318.9,1412.6,338.2,1412.6,357.5z"/>
	<path class="st36" d="M1012.8,298.5c-11.6,0-23.3-0.1-34.9-0.1c-30.5,0-61.1,0-91.6,0.1c-23.5,0-46.9,0-70.4,0.1c0-1,0-2,0-3
		c29.3,0,58.7-0.1,88-0.1c22,0,44-0.1,66-0.1c15,0,30,0.2,45,0c63.1-1.1,126.1-0.3,189.2-1c42.3-0.5,84.7-0.3,127-0.9
		c16.7-0.2,33.3,0,50-0.1c10.6-0.1,21.1-0.5,31.7-0.8c0,1.3,0,2.7,0,4c-25.2-0.8-50.4,0.6-75.6,0.1c-12.2-0.2-24.3,0.3-36.5,0.4
		c-17.2,0.1-34.4,0.4-51.7,0.4c-56.2,0.1-112.3,0.2-168.5,0.3c-15.3,0-30.6-0.3-45.9,0.3C1027.3,298.1,1020,297.2,1012.8,298.5z"/>
	<path class="st37" d="M1412.6,444.5c-26.8,0-53.7,0-80.5,0c-16.7,0-33.3-0.2-50,0.3c-11.3,0.3-22.5-0.4-33.8-0.1
		c-44.1,1.2-88.2,0.2-132.3,1c-30.8,0.6-61.6,0.3-92.4,1c-64.6,1.3-129.2,0.7-193.8,1c-4.7,0-9.4,0.3-14.1-0.2c0-0.7,0-1.3,0-2
		c33.5-1.8,67.1-0.5,100.6-0.9c25.6-0.3,51.2,0.3,76.8-0.3c36.9-0.8,73.7-0.3,110.6-1c50.8-1,101.6-0.1,152.4-1
		c52.2-1,104.4-0.3,156.5-0.7C1412.6,442.5,1412.6,443.5,1412.6,444.5z"/>
	<path class="st38" d="M1412.6,517.4c-9,0.3-18,0.5-27.1,0.3c-15.6-0.3-31.2,0.5-46.8,0.5c-46.9,0.1-93.7,0.1-140.6,0.3
		c-23.4,0.1-46.9,0.6-70.3,1c-12.9,0.2-25.8,0.3-38.7,0.5c-33.9,0.6-67.8,0-101.7,0.7c-43.8,0.9-87.7,0.5-131.5,0.9
		c-13.4,0.1-26.8,0.5-40.1,0.8c0-1.3,0-2.7,0-4c12,1,24.1,0,36.1,0c34.7,0.1,69.3-0.1,104-0.3c37.7-0.2,75.4-0.3,113.2-1.1
		c36.3-0.7,72.5-0.1,108.8-1c34.5-0.8,69.1-0.5,103.6-0.8c34.9-0.3,69.9-0.1,104.8-0.1c8.8,0,17.6,0.1,26.4,0.1
		C1412.6,516.1,1412.6,516.8,1412.6,517.4z"/>
	<path class="st39" d="M1164.3,368.2c11.8,0.2,23.6,0.4,35.4-0.3c6.3-0.4,12.7,0.2,18.9,0.1c8.1-0.1,16.1-0.3,24.2-0.3
		c29.2-0.2,58.4,0.2,87.6-0.4c27.4-0.6,54.8-0.3,82.2-0.7c0,1,0,2,0,3c-12.8,0-25.6-0.1-38.4,0.1c-46.8,0.8-93.7,1-140.5,1
		c-10.2,0-20.3-0.3-30.5,0.1c-40.9,1.5-81.8,0.4-122.6,1c-10.2,0.2-20.5,1.2-30.7,0.8c-12-0.4-24-0.1-35.9-0.3
		c-15.3-0.2-30.7,0.1-46.1,0.2c-28.8,0.2-57.7,0.1-86.5,0.1c-3.5-1.7-7-1.8-10.5,0c-0.5,0-1,0-1.5,0c-1.2-2.1-3.4,0-4.6-2.1
		c4.4-1.7,8.9-0.6,13.3-0.7c8-0.2,16,0,24.1-0.1c34.9-0.1,69.7-0.1,104.6-0.2c2.2,0,4.5,0.7,6.6-0.8l0,0c1.4,1.6,3.1,0.8,4.7,0.8
		c14.8,0.1,29.5,0.5,44.3-0.1c24.4-1.1,48.9-0.3,73.3-0.8c7.3-0.1,14.5-0.1,21.8-0.1c1-1,2-0.9,3,0.2c1,0,2-0.1,3-0.1
		C1163.7,368,1164,367.9,1164.3,368.2z"/>
	<path class="st40" d="M815.8,148.6c12.1-0.3,24.2-0.7,36.4-0.8c9.2,0,18.5,1,27.7,0.5c25.2-1.4,50.4-0.5,75.5-0.6
		c48.6-0.3,97.1-0.2,145.7-0.2c23.1,0,46.1,0,69.2-0.1c2.5,0,4.9-0.7,7.4,0.3c2.5,1.7,5.2,1.2,7.9,1.1c2.8-0.1,5.7,0,8.4-0.1
		c-0.7-0.1-1.6,0.1-2.2-1.1c1-0.9,2.1-0.7,3.2-0.7c53.7,0,107.3,0,161-0.1c-0.1,2-1.3,1.8-2.2,1.9c-7.6,0.1-15.1,1-22.7,0.2
		c-2-0.2-3.9,0.4-5.9,0.4c-23.5-0.1-47-0.1-70.5,0c-2.8,0-5.7-1.9-8.4,0.5c-0.5,0-1,0-1.5,0.1c-1-0.7-2.2-0.6-3.3-0.6
		c-12.2,0.2-24.3-1-34.3-0.5c4,0,10.2-0.1,16.4,0.1c1.2,0,2.9-1,3.3,1.8c-42.5,0-85,0.1-127.5,0.1c-14.5,0-29.1-0.1-43.6,0.1
		c-18.2,0.3-36.5-0.1-54.7,0.2c-8,0.1-16.1,0.3-24.1,0c-10-0.4-20,0.9-30,0.3c-7.1-0.6-14.1-0.4-21.1-0.4c-8.7,0.1-17.4,0.3-26,0.4
		c-28,0.2-56,0.1-84,0.2C815.8,150.6,815.8,149.6,815.8,148.6z"/>
	<path class="st41" d="M1224.5,224.1c-6.6,1-13.2,0.4-19.7,0.4c-81.2,0.1-162.3,0.1-243.5,0.2c-19.7,0-39.5,0.5-59.2,0.1
		c-11.6-0.2-23.2,0.1-34.8,0.2c-17.1,0.2-34.3,0.1-51.4,0.5c0-1.3,0-2.7,0-4c18.6,0,37.2,0.1,55.8,0.1c59,0,118.1,0,177.1-0.1
		c56.7,0,113.3-0.1,170-0.1c1.2,0,2.5,0,3.7,0.1C1222.8,222.7,1224.4,222.2,1224.5,224.1z"/>
	<path class="st42" d="M1380.6,591.5c-26.7,0.1-53.4-0.2-80.2,0.2c-10.4,0.2-20.8-0.2-31.2-0.1c-46.8,0.8-93.6,0.6-140.4,0.9
		c-28.7,0.2-57.5,1.1-86.2,0.8c0.7-3,2.5-0.3,3.2-1.3c1-0.1,0.4-1.1,0.5-0.5c0,0,0,0.1-0.1,0.1c-1.7-0.2-3.7,2-5-1.1
		c4.2,0,8.4-0.1,12.7-0.1c-0.6,3.2-2.7,0.5-3.8,1.7c-0.5,0.1,0,0.5,0,0.5c3.3-2.1,7.1-0.1,10.4-2.1c7-0.1,13.9-0.1,20.9-0.2
		c55.1-1.6,110.2-0.1,165.3-1.1c54.8-1,109.7-0.5,164.5-0.9c0.5,0,1,0.1,1.5,0.1c0,1,0,2,0,3
		C1401.9,591.5,1391.3,591.5,1380.6,591.5z"/>
	<path class="st43" d="M1041.1,590.5c1.7,1.9,3.9,0.2,5.9,1.3c-1.4,1.4-3.2-0.2-4.4,1.6c-75.6,0.7-151.2,1.4-226.8,2.1c0-1,0-2,0-3
		c11.4-0.1,22.9,0.1,34.3-0.2c43.1-1.2,86.2-0.2,129.2-1.1C999.9,590.7,1020.5,590.5,1041.1,590.5z"/>
	<path class="st37" d="M1224.5,224.1c-0.8-0.7-2.1-0.7-2.1-2.6c0.5,0,0.9,0,1.4,0c2.8-0.7,5.6-0.7,8.4,0c34-1.7,68.1-0.6,102.1-1
		c11-0.2,22-0.6,32.9-0.7c15.1-0.2,30.3-0.1,45.4-0.2c0,1,0,2,0,3c-26.4,1.5-52.8,0.8-79.3,1c-22.3,0.2-44.7,0-67,0.2
		c-12.5,0.1-25,0.5-37.4,0.7C1227.4,224.4,1226,224.2,1224.5,224.1z"/>
	<path class="st39" d="M1246.3,149.7c0.8-3.4,2.9-2,4.4-2c33.7-0.1,67.3-0.1,101-0.1c1.4,0,3,0.6,4.3-0.9c18.9,0,37.8-0.1,56.7-0.1
		c0,1,0,2,0,3c-9.1,0.1-18.2-0.2-27.2,0.3c-13.6,0.7-27.2,0-40.9,0.4c-30.4,0.7-60.8,0.2-91.3,0.2
		C1251,150.4,1248.6,149.9,1246.3,149.7z"/>
	<path class="st35" d="M1025.4,640.4c-0.2-1.6-0.6-3-2.1-2.5c-1.8,0.6-2.6-0.8-2.9-2.7c-0.4-2.4,1-2.4,2.2-2.9
		c2.9-1,2.5-4.4,2.8-7.3c0.2-1.7,0.4-3.8,2.1-3c2,1,5.4-2.4,6,3c0.2,1.9,0,4-1.8,4.2c-4.4,0.4-4.4,3.4-2.9,7.8
		c0.3,1,0.2,2.3,0.3,3.4C1027.9,640.4,1026.7,640.4,1025.4,640.4z"/>
	<path class="st44" d="M864.9,370.4c1.5,0.7,3.8-1.4,4.6,2.1c-17.9,0-35.8,0-53.7-0.1c0-0.7,0-1.3,0-2
		C832.2,370.5,848.5,370.4,864.9,370.4z"/>
	<path class="st35" d="M1009,640.4c0.1-0.3,0.2-0.6,0.3-0.9c0.8-1.5,0-5,2-4.5c2.5,0.6,0.1,3.6,0.7,5.4
		C1011,640.4,1010,640.4,1009,640.4z"/>
	<path class="st45" d="M1401.4,416.8c-0.1,1.8-0.8,2.7-1.9,2.7c-1.4-0.1-2.4-0.9-2.5-2.9c-0.1-1.2,0.4-2.6,1.4-2.5
		C1399.7,414.1,1400.8,415.3,1401.4,416.8z"/>
	<path class="st44" d="M871,372.6c0-0.5-0.2-1.3-0.1-1.4c1.8-1.6,8.7-0.7,10.5,1.4C878,372.6,874.5,372.6,871,372.6z"/>
	<path class="st39" d="M1226.8,150.5c-1.4-1.5-3.1-0.8-4.7-0.9c-7.7-0.1-15.3,0-23.1,0c0.4-2.7,1.6-1.9,2.4-1.9
		c13.7-0.1,27.3-0.1,41,0c0.9,0,2.9-1.2,2.3,2.1C1238.8,151.4,1232.8,150,1226.8,150.5z"/>
	<path class="st41" d="M1232.2,221.5c-2.8,0-5.6,0-8.4,0C1226.6,220.2,1229.4,220.2,1232.2,221.5z"/>
	<path class="st43" d="M1060.5,590.5c-0.3,2-1.5,1.9-2.6,1.9c-2.8,0-5.6,0-8.8,0c1.6-1.9,3.5,0,4.6-2
		C1056,590.4,1058.3,590.5,1060.5,590.5z"/>
	<path class="st39" d="M1191.7,147.5c1.8,0.1,3.6,0.2,5.5,0.3c-0.5,2-1.4,1.7-2.3,1.7c-5.2,0-10.4,0-15.6,0c-0.9,0-2.2,0.4-1.6-2
		C1182.3,147.6,1187,147.5,1191.7,147.5z"/>
	<path class="st46" d="M1343.3,113.6c-0.1,1.2-0.4,1.9-1.1,1.6c-0.9-0.4-2-0.6-2.2-2.1c-0.1-0.8,0.6-1.3,1.3-1.3
		C1342.3,111.7,1343,112.4,1343.3,113.6z"/>
	<path class="st33" d="M1130.4,348.9c-0.3,2.5,1,3.7,1.8,5.3c1.3,2.4,2.1,4.7,0.2,7.6c-1.7,2.6-3.1,2.6-5,0.6c-1-1-2.4-1.2-3.3-2.3
		c-1.8-2.3-3.3-1.4-4.9,0.4c-3.8,4.1-5.6,3.7-7.8-1.9c-1.1-2.8-1.9-3.6-4.5-2.6c-3.4,1.4-6.4,3-8.5,7.1c-1,2-2.5,2.4-4.3,2.4
		c-1.9,0-3.3-1.1-3.9-3.1c-0.7-2.6,1.6-3.9,2.5-4.1c4.1-0.6,5.9-7.2,10.4-6.7c0.7,0.1,1.2-1.5,1.5-2.6c1-3.3,5.4-5.7,7.7-4.1
		c1.6,1.1,2.8,2.9,1.9,5.7c-0.4,1.2-1.1,2.9-0.2,3.7c1.3,1.1,1.5,8.7,4.9,1.8c0.8-1.7,3.1-3,4.4-5c1.4-2.1,3.5-3.8,0.7-6.8
		c-1.1-1.2,0.2-2.4,0.8-3.2c0.9-1.1,2.1-3,3.1-1.3c1.6,2.7,3.1,0.9,4.7,0.4c0.5-0.2,0.9-0.5,1.4-0.8c1.9-1.1,4.8-1.9,5.5-0.2
		c0.9,2,0.2,5.6-0.3,8.4s-2.5,4.4-4.3,5.1C1133.1,353.2,1132.5,349.1,1130.4,348.9z"/>
	<path class="st33" d="M1162.2,305.5c-2.6,2.5-4.7,4.6-6.9,6.7c-0.4,0.4-0.5,1.1-0.7,1.7c-0.3,1.1,1.4,4-1.1,3.2
		c-1.4-0.4-3.1-2-2.2-4.8c0.8-2.4,0.3-3.4-1.5-4.5c-1.7-1-1.8-4-1.1-5.7c1-2.1,2,0.5,3,1.1c1.6,1,3.2,3.4,3.9-1.2
		c0.2-1.1,1.1-1.1,1.9-0.9c5.4,1.9,10.7,3.7,16.1,5.5c2,0.7,2,3.2,2.6,5.1c0.5,1.5-0.8,1.8-1.7,1.6c-1.6-0.4-3.3-0.7-4.6-1.4
		c-2.2-1.3-3.8-1.7-6.2-0.8C1161.4,311.9,1162.5,308.1,1162.2,305.5z"/>
	<path class="st33" d="M1160.5,368.6c-1-0.1-2-0.1-3-0.2c-4-2.9-5.7-7.7-4.5-13.1c1.2-5.7,5.1-9.6,9.3-9.4c4.4,0.2,6.7,2.6,7.6,8.5
		c-2.3-2.4-3.9-5.1-6.9-5.2c-3.5,0-6.6,1.4-7.5,5.1c-1.1,4.5,0.4,10.1,3.3,12.1C1159.6,366.9,1160.4,367.1,1160.5,368.6z"/>
	<path class="st33" d="M1210.7,302.6c-0.7,6.9,3.1,6.5,6.1,7.3c-0.4,1.7-0.8,3-1.1,4.4c-0.4,1.4-1.2,2.3-2.3,2
		c-3.4-0.9-3.7-5.7-5.6-8.5C1206.4,305.9,1208.7,304,1210.7,302.6z"/>
	<path class="st33" d="M1192.7,310.9c-0.1-7.4,2.3-8.8,5.9-8.4c2.1,0.2,4.2,0,6.3,0.2c0.8,0,1.5,0.6,1.5,1.8s-0.7,1.6-1.5,1.9
		c-0.1,0-0.2,0.1-0.4,0.1C1200.5,306.9,1196.2,304.7,1192.7,310.9z"/>
	<path class="st33" d="M1164.3,368.2c-0.3,0.1-0.6,0.2-0.8,0.2c0-2.5,2.1-3.6,2.3-6.1c0.2-2.5,0.8-5-1.2-6.6c-1.4-1.2-3-1.5-4.5,0.3
		c-2,2.5-0.7,4.7,0.2,7.2c-1.8-1.7-3.6-3.3-2.3-7c1.4-4.1,3.6-5.5,6.2-3.6C1169.2,356.3,1169.2,365,1164.3,368.2z"/>
	<path class="st33" d="M1231,305.2c3.4-3.2,10.6-2.2,11.8,1.4c0.5,1.3,0.7,2.6,0,3.7c-0.7,1.2-1.6,0.4-2.4,0.1
		c-0.8-0.3-1.8-0.7-2.3-1.5C1236.4,305.7,1233.8,305.4,1231,305.2z"/>
	<path class="st33" d="M1148.6,353c0.8,1.6,2.1,3.4,2.7,5.5c0.5,1.8-0.4,3.6-1.6,4.6c-1.8,1.4-3.6,0-3.5-2.9c0-1,0-1.9-0.3-2.8
		C1144.8,354.9,1146,352.8,1148.6,353z"/>
	<path class="st33" d="M1167.4,327.1c-1.3,0.5-2.3,1-3.4,1.4c-1,0.4-2,0.8-2.2,2.3c-0.3,1.8,1.2,1.8,1.9,2.5c0.6,0.6,2,0.4,1.4,2.1
		c-0.5,1.4-1.6,1.4-2.6,0.9c-1.6-0.8-2-2.7-2.4-4.7c-0.4-1.9,0.1-3.4,1.5-3.9C1163.4,326.9,1164.8,320.3,1167.4,327.1z"/>
	<path class="st33" d="M1186.4,302.5c0.9,0.5,3.1-0.9,2.6,1.8c-0.5,3-2.8,4.5-5,5c-1.3,0.3-1.9-1.3-1.9-2.9
		C1182.2,302.4,1184.5,302.8,1186.4,302.5z"/>
	<path class="st33" d="M1063.9,362c3.8-2.7,6.6-3.7,9.8-2.1c0.7,0.4,1.8,0.8,1.3,2.4c-0.4,1.3-1.2,2.4-2.3,1.8
		C1070.2,362.7,1067.5,362.7,1063.9,362z"/>
	<path class="st33" d="M1358.8,307c0.4-3.9,1-7.5,4.8-6.4c0.9,0.2,1.8,0.5,1.7,2c0,1.2-0.7,1.8-1.5,1.8
		C1361.8,304.2,1360.5,306,1358.8,307z"/>
	<path class="st33" d="M1174.2,333.7c-1.3,1.4-2.8,0.7-4.2,0.7c-0.9,0.1-2.4,0.7-2.6-0.6c-0.2-1.4,0.3-3.3,1-4.4
		c1-1.4,1.7,0.5,2.3,1.2C1171.7,331.9,1173.6,331.3,1174.2,333.7z"/>
	<path class="st33" d="M1202.2,319.7c-0.1,2-0.4,3.8-1.5,3.2c-1.7-0.8-3.3-2.2-4-4.7c-0.4-1.4,0.5-1.7,1.3-1.7
		C1200,316.6,1201.5,317.5,1202.2,319.7z"/>
	<path class="st33" d="M1135,367.2c0.4-3.9,1-7.1,4.5-5.8c0.9,0.3,2.4-0.2,2.4,1.4c-0.1,1.5-1.3,2.9-2.7,2.4
		C1137.5,364.9,1135.8,363.3,1135,367.2z"/>
	<path class="st33" d="M1268.5,306c-0.1,1.2-0.5,2.1-1.3,2.1c-1.3-0.1-2.4-0.8-2.8-2.6c-0.2-1.2,0.4-1.8,1.3-1.8
		C1266.9,303.7,1268.1,304.2,1268.5,306z"/>
	<path class="st33" d="M1177.8,320c0.3-1.6,1.4-1.8,2.3-1.7c1,0.1,1.9,1.1,1.6,2.7c-0.2,1.3-1.1,1.6-2,1.5
		C1178.6,322.3,1177.9,321.6,1177.8,320z"/>
	<path class="st33" d="M1183.5,334.9c-0.8-2.8-1.5-4.6-3-5.6c-0.6-0.4-1.4-1.2-0.8-2.2c0.6-1,1.6-0.7,2.2,0.3
		C1183.2,329.2,1184,331.3,1183.5,334.9z"/>
	<path class="st33" d="M902.2,364.6c2.3-1.6,4.6-1.2,7.2,0.5C906.7,366.9,904.4,365.2,902.2,364.6z"/>
	<path class="st33" d="M1355.6,358.5c-0.4,1.2-1.2,1.8-2.1,1.6c-0.9-0.2-2.3-0.6-2.2-2.2c0.1-1.7,1.5-1.4,2.4-1.4
		C1354.7,356.6,1355.5,357,1355.6,358.5z"/>
	<path class="st33" d="M1327.5,307.4c0,1.2-0.4,1.9-1.3,1.9c-0.7,0-1.3-0.3-1.3-1.3c-0.1-1.4,0.5-2.2,1.5-2.3
		C1327.1,305.8,1327.5,306.4,1327.5,307.4z"/>
	<path class="st33" d="M1169.6,363.8c-1.1-1.3,0.1-2.1,0.4-3c0.4-1.2-1.7-3.4,0.5-3.3c1.5,0.1,0.3,2.5,0.4,3.8
		C1171,362.4,1170.8,363.7,1169.6,363.8z"/>
	<path class="st33" d="M1387.3,302.4c-0.8-0.1-1.4-0.5-1.3-1.8c0.1-1.1,0.6-1.8,1.5-1.7c0.6,0.1,1,0.8,1.1,1.6
		C1388.7,301.9,1388.1,302.3,1387.3,302.4z"/>
	<path class="st33" d="M1389.4,359c-1.4,0.2-2.9,1.4-4.1-0.7c-0.1-0.2,0-0.8,0.1-0.9C1387,356.6,1388.2,357.7,1389.4,359z"/>
	<path class="st33" d="M1371.3,338.2c-0.4-2.3-0.9-3.9,0.4-5.2c0.2-0.2,0.9,0,0.9,0.2C1372.9,335,1372.4,336.4,1371.3,338.2z"/>
	<path class="st33" d="M1188.3,319.6c0.7,0.1,1.6-0.1,1.6,1.3c0,0.9-0.6,1.4-1.3,1.5c-0.8,0.1-1.5-0.4-1.6-1.5
		C1186.9,319.8,1187.6,319.6,1188.3,319.6z"/>
	<path class="st33" d="M1333.4,309.7c0.6,0,1.3,0.1,1.4,1.2c0.1,1-0.4,1.5-1.1,1.5c-0.6,0.1-1.3-0.1-1.4-1.2
		C1332.2,310.2,1332.7,309.8,1333.4,309.7z"/>
	<path class="st33" d="M1377.3,314.2c0.7,0.3,1,1.1,0.9,1.9c-0.1,1-0.7,1.3-1.4,1.3c-0.6,0-1-0.3-0.8-1.2
		C1376.1,315.3,1376.4,314.4,1377.3,314.2z"/>
	<path class="st33" d="M1274.4,346.3c0,0.9-0.4,1.6-1,1.8c-0.7,0.2-1.2-0.3-1.4-1.2c-0.2-1,0.4-1.4,1-1.7
		C1273.7,344.9,1274.1,345.4,1274.4,346.3z"/>
	<path class="st33" d="M1193.6,314.7c0.5,0.1,1,0.4,1,1.2c0,1-0.4,1.5-1.2,1.4c-0.5-0.1-1-0.4-1.1-1.1
		C1192.4,315.2,1192.9,314.8,1193.6,314.7z"/>
	<path class="st33" d="M1013.5,368.6c0.2-1.4-0.2-3,0.9-4.2C1014.8,366,1015.7,367.6,1013.5,368.6
		C1013.4,368.6,1013.5,368.6,1013.5,368.6z"/>
	<path class="st35" d="M1043.2,626.4c-0.6,2-1.7,3.6-3.6,3.3c-1.3-0.2-2.6-1.6-2.4-3.3c0.3-3.1,2.7-2.1,4.2-2.7
		C1042.5,623.3,1043.2,624.6,1043.2,626.4z"/>
	<path class="st35" d="M1055.5,630.2c-2.3,2.3-3.9,3-5.6,3c-1,0-2.5-0.4-2.4-2.2c0.1-1.5,1.2-2.6,2.4-2.5
		C1051.5,628.8,1053.1,629.5,1055.5,630.2z"/>
	<path class="st35" d="M1017.4,618c1-0.2,1.3,0.6,1.2,1.5c-0.2,2.2-0.9,4.3-2.2,5.3c-0.8,0.7-1.9-1.1-1.9-2.4
		C1014.4,619.8,1016.5,619.4,1017.4,618z"/>
</g>
<text transform="matrix(1.1812 0 0 1 192.0709 635.0417)" class="st24 st47 st48">Taís Aline</text>
<text transform="matrix(1 0 0 1 425.1968 676.8591)" class="st49 st50 st51">Portfólio</text>
</svg>
